M48
; DRILL file {KiCad 9.0.1} date 2025-04-21T23:45:17+0530
; FORMAT={-:-/ absolute / metric / decimal}
; #@! TF.CreationDate,2025-04-21T23:45:17+05:30
; #@! TF.GenerationSoftware,Kicad,Pcbnew,9.0.1
; #@! TF.FileFunction,Plated,1,4,PTH
FMAT,2
METRIC
; #@! TA.AperFunction,Plated,PTH,ViaDrill
T1C0.300
; #@! TA.AperFunction,Plated,PTH,ComponentDrill
T2C0.800
; #@! TA.AperFunction,Plated,PTH,ComponentDrill
T3C0.900
; #@! TA.AperFunction,Plated,PTH,ComponentDrill
T4C1.000
; #@! TA.AperFunction,Plated,PTH,ComponentDrill
T5C1.100
%
G90
G05
T1
X84.0Y-85.5
X86.0Y-80.5
X88.5Y-84.0
X98.0Y-85.5
X122.5Y-85.0
X123.5Y-90.0
X126.0Y-75.5
T2
X125.38Y-62.0
X126.0Y-70.5
X126.0Y-75.5
X126.0Y-83.5
X126.0Y-88.5
X126.0Y-95.0
X126.0Y-100.0
X133.0Y-62.0
X134.0Y-68.19
X134.0Y-75.81
X134.0Y-81.19
X134.0Y-88.81
X134.0Y-92.69
X134.0Y-100.31
T3
X140.46Y-62.0
X143.0Y-62.0
T4
X104.5Y-64.64
X104.5Y-67.18
X104.5Y-69.72
X104.5Y-72.26
X104.5Y-74.8
X104.5Y-77.34
X104.5Y-79.88
X104.5Y-82.42
X104.5Y-84.96
X104.5Y-87.5
X104.5Y-90.04
X104.5Y-92.58
X104.5Y-95.12
X104.5Y-97.66
X104.5Y-100.2
X119.74Y-64.64
X119.74Y-67.18
X119.74Y-69.72
X119.74Y-72.26
X119.74Y-74.8
X119.74Y-77.34
X119.74Y-79.88
X119.74Y-82.42
X119.74Y-84.96
X119.74Y-87.5
X119.74Y-90.04
X119.74Y-92.58
X119.74Y-95.12
X119.74Y-97.66
X119.74Y-100.2
T5
X139.5Y-71.0
X139.5Y-75.5
X139.75Y-84.25
X139.75Y-88.75
X139.75Y-95.25
X139.75Y-99.75
X146.0Y-71.0
X146.0Y-75.5
X146.25Y-84.25
X146.25Y-88.75
X146.25Y-95.25
X146.25Y-99.75
M30
