%TF.GenerationSoftware,KiCad,Pcbnew,9.0.1*%
%TF.CreationDate,2025-04-21T23:45:21+05:30*%
%TF.ProjectId,L-1,4c2d312e-6b69-4636-9164-5f7063625858,rev?*%
%TF.SameCoordinates,Original*%
%TF.FileFunction,Copper,L1,Top*%
%TF.FilePolarity,Positive*%
%FSLAX46Y46*%
G04 Gerber Fmt 4.6, Leading zero omitted, Abs format (unit mm)*
G04 Created by KiCad (PCBNEW 9.0.1) date 2025-04-21 23:45:21*
%MOMM*%
%LPD*%
G01*
G04 APERTURE LIST*
G04 Aperture macros list*
%AMRoundRect*
0 Rectangle with rounded corners*
0 $1 Rounding radius*
0 $2 $3 $4 $5 $6 $7 $8 $9 X,Y pos of 4 corners*
0 Add a 4 corners polygon primitive as box body*
4,1,4,$2,$3,$4,$5,$6,$7,$8,$9,$2,$3,0*
0 Add four circle primitives for the rounded corners*
1,1,$1+$1,$2,$3*
1,1,$1+$1,$4,$5*
1,1,$1+$1,$6,$7*
1,1,$1+$1,$8,$9*
0 Add four rect primitives between the rounded corners*
20,1,$1+$1,$2,$3,$4,$5,0*
20,1,$1+$1,$4,$5,$6,$7,0*
20,1,$1+$1,$6,$7,$8,$9,0*
20,1,$1+$1,$8,$9,$2,$3,0*%
G04 Aperture macros list end*
%TA.AperFunction,ComponentPad*%
%ADD10C,1.800000*%
%TD*%
%TA.AperFunction,ComponentPad*%
%ADD11R,1.800000X1.800000*%
%TD*%
%TA.AperFunction,ComponentPad*%
%ADD12C,1.600000*%
%TD*%
%TA.AperFunction,SMDPad,CuDef*%
%ADD13RoundRect,0.190500X-0.762000X-0.444500X0.762000X-0.444500X0.762000X0.444500X-0.762000X0.444500X0*%
%TD*%
%TA.AperFunction,ComponentPad*%
%ADD14C,2.000000*%
%TD*%
%TA.AperFunction,ComponentPad*%
%ADD15O,1.600000X1.600000*%
%TD*%
%TA.AperFunction,ComponentPad*%
%ADD16R,1.600000X1.600000*%
%TD*%
%TA.AperFunction,ViaPad*%
%ADD17C,0.600000*%
%TD*%
%TA.AperFunction,Conductor*%
%ADD18C,0.200000*%
%TD*%
G04 APERTURE END LIST*
D10*
%TO.P,D1,2,A*%
%TO.N,Net-(D1-A)*%
X140460000Y-62000000D03*
D11*
%TO.P,D1,1,K*%
%TO.N,GND*%
X143000000Y-62000000D03*
%TD*%
D12*
%TO.P,C2,2*%
%TO.N,GND*%
X126000000Y-83500000D03*
%TO.P,C2,1*%
%TO.N,Net-(A1-D3)*%
X126000000Y-88500000D03*
%TD*%
D13*
%TO.P,U1,1,VCC*%
%TO.N,+5V*%
X83190000Y-60300000D03*
%TO.P,U1,2,SDA*%
%TO.N,Net-(A1-A4)*%
X85730000Y-60300000D03*
%TO.P,U1,3,SCL*%
%TO.N,Net-(A1-A5)*%
X88270000Y-60300000D03*
%TO.P,U1,4,GND*%
%TO.N,GND*%
X90810000Y-60300000D03*
%TD*%
%TO.P,U2,1,INT*%
%TO.N,unconnected-(U2-INT-Pad1)*%
X87920000Y-91920000D03*
%TO.P,U2,2,SDA*%
%TO.N,Net-(A1-A4)*%
X90460000Y-91920000D03*
%TO.P,U2,3,SCL*%
%TO.N,Net-(A1-A5)*%
X93000000Y-91920000D03*
%TO.P,U2,4,GND*%
%TO.N,GND*%
X95540000Y-91920000D03*
%TO.P,U2,5,VCC*%
%TO.N,+5V*%
X98080000Y-91920000D03*
%TD*%
D14*
%TO.P,SW3,1,1*%
%TO.N,GND*%
X139750000Y-95250000D03*
X146250000Y-95250000D03*
%TO.P,SW3,2,2*%
%TO.N,Net-(A1-D4)*%
X139750000Y-99750000D03*
X146250000Y-99750000D03*
%TD*%
%TO.P,SW2,1,1*%
%TO.N,GND*%
X139750000Y-84250000D03*
X146250000Y-84250000D03*
%TO.P,SW2,2,2*%
%TO.N,Net-(A1-D3)*%
X139750000Y-88750000D03*
X146250000Y-88750000D03*
%TD*%
%TO.P,SW1,1,1*%
%TO.N,GND*%
X139500000Y-71000000D03*
X146000000Y-71000000D03*
%TO.P,SW1,2,2*%
%TO.N,Net-(A1-D2)*%
X139500000Y-75500000D03*
X146000000Y-75500000D03*
%TD*%
D12*
%TO.P,R4,1*%
%TO.N,Net-(A1-D12)*%
X125380000Y-62000000D03*
D15*
%TO.P,R4,2*%
%TO.N,Net-(D1-A)*%
X133000000Y-62000000D03*
%TD*%
D12*
%TO.P,R3,1*%
%TO.N,+5V*%
X134000000Y-92690000D03*
D15*
%TO.P,R3,2*%
%TO.N,Net-(A1-D4)*%
X134000000Y-100310000D03*
%TD*%
D12*
%TO.P,R2,1*%
%TO.N,+5V*%
X134000000Y-81190000D03*
D15*
%TO.P,R2,2*%
%TO.N,Net-(A1-D3)*%
X134000000Y-88810000D03*
%TD*%
D12*
%TO.P,R1,1*%
%TO.N,+5V*%
X134000000Y-68190000D03*
D15*
%TO.P,R1,2*%
%TO.N,Net-(A1-D2)*%
X134000000Y-75810000D03*
%TD*%
D12*
%TO.P,C3,1*%
%TO.N,Net-(A1-D4)*%
X126000000Y-100000000D03*
%TO.P,C3,2*%
%TO.N,GND*%
X126000000Y-95000000D03*
%TD*%
%TO.P,C1,1*%
%TO.N,Net-(A1-D2)*%
X126000000Y-75500000D03*
%TO.P,C1,2*%
%TO.N,GND*%
X126000000Y-70500000D03*
%TD*%
D16*
%TO.P,A1,1,D1/TX*%
%TO.N,unconnected-(A1-D1{slash}TX-Pad1)*%
X119740000Y-100200000D03*
D15*
%TO.P,A1,2,D0/RX*%
%TO.N,unconnected-(A1-D0{slash}RX-Pad2)*%
X119740000Y-97660000D03*
%TO.P,A1,3,~{RESET}*%
%TO.N,unconnected-(A1-~{RESET}-Pad3)*%
X119740000Y-95120000D03*
%TO.P,A1,4,GND*%
%TO.N,GND*%
X119740000Y-92580000D03*
%TO.P,A1,5,D2*%
%TO.N,Net-(A1-D2)*%
X119740000Y-90040000D03*
%TO.P,A1,6,D3*%
%TO.N,Net-(A1-D3)*%
X119740000Y-87500000D03*
%TO.P,A1,7,D4*%
%TO.N,Net-(A1-D4)*%
X119740000Y-84960000D03*
%TO.P,A1,8,D5*%
%TO.N,unconnected-(A1-D5-Pad8)*%
X119740000Y-82420000D03*
%TO.P,A1,9,D6*%
%TO.N,unconnected-(A1-D6-Pad9)*%
X119740000Y-79880000D03*
%TO.P,A1,10,D7*%
%TO.N,unconnected-(A1-D7-Pad10)*%
X119740000Y-77340000D03*
%TO.P,A1,11,D8*%
%TO.N,unconnected-(A1-D8-Pad11)*%
X119740000Y-74800000D03*
%TO.P,A1,12,D9*%
%TO.N,unconnected-(A1-D9-Pad12)*%
X119740000Y-72260000D03*
%TO.P,A1,13,D10*%
%TO.N,unconnected-(A1-D10-Pad13)*%
X119740000Y-69720000D03*
%TO.P,A1,14,D11*%
%TO.N,unconnected-(A1-D11-Pad14)*%
X119740000Y-67180000D03*
%TO.P,A1,15,D12*%
%TO.N,Net-(A1-D12)*%
X119740000Y-64640000D03*
%TO.P,A1,16,D13*%
%TO.N,unconnected-(A1-D13-Pad16)*%
X104500000Y-64640000D03*
%TO.P,A1,17,3V3*%
%TO.N,unconnected-(A1-3V3-Pad17)*%
X104500000Y-67180000D03*
%TO.P,A1,18,AREF*%
%TO.N,unconnected-(A1-AREF-Pad18)*%
X104500000Y-69720000D03*
%TO.P,A1,19,A0*%
%TO.N,unconnected-(A1-A0-Pad19)*%
X104500000Y-72260000D03*
%TO.P,A1,20,A1*%
%TO.N,unconnected-(A1-A1-Pad20)*%
X104500000Y-74800000D03*
%TO.P,A1,21,A2*%
%TO.N,unconnected-(A1-A2-Pad21)*%
X104500000Y-77340000D03*
%TO.P,A1,22,A3*%
%TO.N,unconnected-(A1-A3-Pad22)*%
X104500000Y-79880000D03*
%TO.P,A1,23,A4*%
%TO.N,Net-(A1-A4)*%
X104500000Y-82420000D03*
%TO.P,A1,24,A5*%
%TO.N,Net-(A1-A5)*%
X104500000Y-84960000D03*
%TO.P,A1,25,A6*%
%TO.N,unconnected-(A1-A6-Pad25)*%
X104500000Y-87500000D03*
%TO.P,A1,26,A7*%
%TO.N,unconnected-(A1-A7-Pad26)*%
X104500000Y-90040000D03*
%TO.P,A1,27,+5V*%
%TO.N,+5V*%
X104500000Y-92580000D03*
%TO.P,A1,28,~{RESET}*%
%TO.N,unconnected-(A1-~{RESET}-Pad28)*%
X104500000Y-95120000D03*
%TO.P,A1,29,GND*%
%TO.N,GND*%
X104500000Y-97660000D03*
%TO.P,A1,30,VIN*%
%TO.N,unconnected-(A1-VIN-Pad30)*%
X104500000Y-100200000D03*
%TD*%
D17*
%TO.N,+5V*%
X98000000Y-85500000D03*
X84000000Y-85500000D03*
%TO.N,Net-(A1-A5)*%
X88500000Y-84000000D03*
%TO.N,Net-(A1-A4)*%
X86000000Y-80500000D03*
%TO.N,Net-(A1-D4)*%
X122500000Y-85000000D03*
%TO.N,Net-(A1-D2)*%
X126000000Y-75500000D03*
X123500000Y-90000000D03*
%TD*%
D18*
%TO.N,+5V*%
X103840000Y-91920000D02*
X104500000Y-92580000D01*
X98080000Y-91920000D02*
X103840000Y-91920000D01*
%TO.N,Net-(A1-A5)*%
X88500000Y-87420000D02*
X93000000Y-91920000D01*
X88500000Y-84000000D02*
X88500000Y-87420000D01*
%TO.N,Net-(A1-A4)*%
X86000000Y-87460000D02*
X90460000Y-91920000D01*
X86000000Y-80500000D02*
X86000000Y-87460000D01*
%TO.N,+5V*%
X83500000Y-85500000D02*
X84000000Y-85500000D01*
X83000000Y-60490000D02*
X83190000Y-60300000D01*
X83000000Y-85000000D02*
X83000000Y-60490000D01*
X83500000Y-85500000D02*
X83000000Y-85000000D01*
X98080000Y-85580000D02*
X98000000Y-85500000D01*
X98080000Y-91920000D02*
X98080000Y-85580000D01*
%TO.N,Net-(A1-A5)*%
X88270000Y-83770000D02*
X88500000Y-84000000D01*
X88270000Y-60300000D02*
X88270000Y-83770000D01*
%TO.N,Net-(A1-A4)*%
X85730000Y-80230000D02*
X86000000Y-80500000D01*
X85730000Y-60300000D02*
X85730000Y-80230000D01*
%TO.N,Net-(A1-D4)*%
X122460000Y-84960000D02*
X122500000Y-85000000D01*
X119740000Y-84960000D02*
X122460000Y-84960000D01*
%TO.N,Net-(A1-D2)*%
X119780000Y-90000000D02*
X123500000Y-90000000D01*
X119740000Y-90040000D02*
X119780000Y-90000000D01*
%TO.N,Net-(A1-D3)*%
X125000000Y-87500000D02*
X126000000Y-88500000D01*
X119740000Y-87500000D02*
X125000000Y-87500000D01*
%TO.N,+5V*%
X105528000Y-91552000D02*
X104500000Y-92580000D01*
X132862000Y-91552000D02*
X105528000Y-91552000D01*
X134000000Y-92690000D02*
X132862000Y-91552000D01*
%TO.N,Net-(A1-D2)*%
X126000000Y-75500000D02*
X126000000Y-75000000D01*
%TO.N,Net-(A1-D4)*%
X139750000Y-99750000D02*
X146250000Y-99750000D01*
X134310000Y-100310000D02*
X134870000Y-99750000D01*
X134000000Y-100310000D02*
X134310000Y-100310000D01*
X134870000Y-99750000D02*
X139750000Y-99750000D01*
X133690000Y-100000000D02*
X134000000Y-100310000D01*
X126000000Y-100000000D02*
X133690000Y-100000000D01*
%TO.N,Net-(A1-D3)*%
X139750000Y-88750000D02*
X146250000Y-88750000D01*
X139690000Y-88810000D02*
X139750000Y-88750000D01*
X134000000Y-88810000D02*
X139690000Y-88810000D01*
X126000000Y-88500000D02*
X133690000Y-88500000D01*
X133690000Y-88500000D02*
X134000000Y-88810000D01*
%TO.N,Net-(A1-D2)*%
X139500000Y-75500000D02*
X146000000Y-75500000D01*
X139190000Y-75810000D02*
X139500000Y-75500000D01*
X134000000Y-75810000D02*
X139190000Y-75810000D01*
X133690000Y-75500000D02*
X134000000Y-75810000D01*
X126000000Y-75500000D02*
X133690000Y-75500000D01*
%TO.N,Net-(D1-A)*%
X133000000Y-62000000D02*
X140460000Y-62000000D01*
%TO.N,Net-(A1-D12)*%
X122740000Y-64640000D02*
X125380000Y-62000000D01*
X119740000Y-64640000D02*
X122740000Y-64640000D01*
%TD*%
%TA.AperFunction,Conductor*%
%TO.N,GND*%
G36*
X149442539Y-57520185D02*
G01*
X149488294Y-57572989D01*
X149499500Y-57624500D01*
X149499500Y-105375500D01*
X149479815Y-105442539D01*
X149427011Y-105488294D01*
X149375500Y-105499500D01*
X72624500Y-105499500D01*
X72557461Y-105479815D01*
X72511706Y-105427011D01*
X72500500Y-105375500D01*
X72500500Y-59799655D01*
X81737000Y-59799655D01*
X81737000Y-60800354D01*
X81743325Y-60869966D01*
X81743328Y-60869977D01*
X81793247Y-61030175D01*
X81793249Y-61030179D01*
X81880056Y-61173777D01*
X81880060Y-61173782D01*
X81998717Y-61292439D01*
X81998722Y-61292443D01*
X82119315Y-61365343D01*
X82142322Y-61379251D01*
X82302529Y-61429173D01*
X82302533Y-61429173D01*
X82308793Y-61431124D01*
X82308190Y-61433056D01*
X82361591Y-61460981D01*
X82396173Y-61521693D01*
X82399500Y-61550225D01*
X82399500Y-84913330D01*
X82399499Y-84913348D01*
X82399499Y-85079054D01*
X82399498Y-85079054D01*
X82440423Y-85231787D01*
X82440424Y-85231788D01*
X82451997Y-85251832D01*
X82451999Y-85251835D01*
X82519477Y-85368712D01*
X82519479Y-85368715D01*
X82519480Y-85368716D01*
X82631284Y-85480520D01*
X82631285Y-85480521D01*
X83131284Y-85980520D01*
X83131286Y-85980521D01*
X83131290Y-85980524D01*
X83268209Y-86059573D01*
X83268216Y-86059577D01*
X83420943Y-86100501D01*
X83420945Y-86100501D01*
X83429002Y-86101562D01*
X83428810Y-86103018D01*
X83487275Y-86120186D01*
X83489127Y-86121399D01*
X83620814Y-86209390D01*
X83620827Y-86209397D01*
X83766498Y-86269735D01*
X83766503Y-86269737D01*
X83880995Y-86292511D01*
X83921153Y-86300499D01*
X83921156Y-86300500D01*
X83921158Y-86300500D01*
X84078844Y-86300500D01*
X84078845Y-86300499D01*
X84233497Y-86269737D01*
X84379179Y-86209394D01*
X84510289Y-86121789D01*
X84621789Y-86010289D01*
X84709394Y-85879179D01*
X84769737Y-85733497D01*
X84800500Y-85578842D01*
X84800500Y-85421158D01*
X84800500Y-85421155D01*
X84800499Y-85421153D01*
X84792150Y-85379179D01*
X84769737Y-85266503D01*
X84755357Y-85231787D01*
X84709397Y-85120827D01*
X84709390Y-85120814D01*
X84621789Y-84989711D01*
X84621786Y-84989707D01*
X84510292Y-84878213D01*
X84510288Y-84878210D01*
X84379185Y-84790609D01*
X84379172Y-84790602D01*
X84233501Y-84730264D01*
X84233489Y-84730261D01*
X84078845Y-84699500D01*
X84078842Y-84699500D01*
X83921158Y-84699500D01*
X83921155Y-84699500D01*
X83766511Y-84730260D01*
X83760680Y-84732030D01*
X83759858Y-84729322D01*
X83702399Y-84735460D01*
X83639942Y-84704142D01*
X83604331Y-84644028D01*
X83600500Y-84613445D01*
X83600500Y-61559499D01*
X83620185Y-61492460D01*
X83672989Y-61446705D01*
X83724500Y-61435499D01*
X84007853Y-61435499D01*
X84077466Y-61429174D01*
X84077469Y-61429173D01*
X84077471Y-61429173D01*
X84184275Y-61395891D01*
X84237675Y-61379252D01*
X84237675Y-61379251D01*
X84237678Y-61379251D01*
X84381283Y-61292439D01*
X84381289Y-61292432D01*
X84383516Y-61290689D01*
X84385461Y-61289913D01*
X84387703Y-61288559D01*
X84387928Y-61288931D01*
X84448425Y-61264832D01*
X84517010Y-61278173D01*
X84536484Y-61290689D01*
X84538713Y-61292435D01*
X84538717Y-61292439D01*
X84538720Y-61292441D01*
X84538723Y-61292443D01*
X84634453Y-61350313D01*
X84682322Y-61379251D01*
X84842529Y-61429173D01*
X84912153Y-61435500D01*
X85005500Y-61435499D01*
X85072538Y-61455183D01*
X85118294Y-61507986D01*
X85129500Y-61559499D01*
X85129500Y-80143330D01*
X85129499Y-80143348D01*
X85129499Y-80309054D01*
X85129498Y-80309054D01*
X85159536Y-80421158D01*
X85170423Y-80461785D01*
X85182886Y-80483372D01*
X85199500Y-80545372D01*
X85199500Y-80578846D01*
X85230261Y-80733489D01*
X85230264Y-80733501D01*
X85290602Y-80879172D01*
X85290609Y-80879185D01*
X85378602Y-81010874D01*
X85399480Y-81077551D01*
X85399500Y-81079765D01*
X85399500Y-87373330D01*
X85399499Y-87373348D01*
X85399499Y-87539054D01*
X85399498Y-87539054D01*
X85417299Y-87605485D01*
X85440423Y-87691785D01*
X85463517Y-87731784D01*
X85496386Y-87788715D01*
X85519479Y-87828715D01*
X85638349Y-87947585D01*
X85638355Y-87947590D01*
X88263584Y-90572819D01*
X88297069Y-90634142D01*
X88292085Y-90703834D01*
X88250213Y-90759767D01*
X88184749Y-90784184D01*
X88175903Y-90784500D01*
X87102145Y-90784500D01*
X87032533Y-90790825D01*
X87032522Y-90790828D01*
X86872324Y-90840747D01*
X86872320Y-90840749D01*
X86728722Y-90927556D01*
X86728717Y-90927560D01*
X86610060Y-91046217D01*
X86610056Y-91046222D01*
X86523250Y-91189819D01*
X86473326Y-91350032D01*
X86467000Y-91419655D01*
X86467000Y-92420354D01*
X86473325Y-92489966D01*
X86473328Y-92489977D01*
X86523247Y-92650175D01*
X86523249Y-92650179D01*
X86610056Y-92793777D01*
X86610060Y-92793782D01*
X86728717Y-92912439D01*
X86728722Y-92912443D01*
X86840641Y-92980099D01*
X86872322Y-92999251D01*
X87032529Y-93049173D01*
X87102153Y-93055500D01*
X88737846Y-93055499D01*
X88737853Y-93055499D01*
X88807466Y-93049174D01*
X88807469Y-93049173D01*
X88807471Y-93049173D01*
X88967678Y-92999251D01*
X89111283Y-92912439D01*
X89111289Y-92912432D01*
X89113516Y-92910689D01*
X89115461Y-92909913D01*
X89117703Y-92908559D01*
X89117928Y-92908931D01*
X89178425Y-92884832D01*
X89247010Y-92898173D01*
X89266484Y-92910689D01*
X89268713Y-92912435D01*
X89268717Y-92912439D01*
X89268720Y-92912441D01*
X89268723Y-92912443D01*
X89364453Y-92970313D01*
X89412322Y-92999251D01*
X89572529Y-93049173D01*
X89642153Y-93055500D01*
X91277846Y-93055499D01*
X91277853Y-93055499D01*
X91347466Y-93049174D01*
X91347469Y-93049173D01*
X91347471Y-93049173D01*
X91507678Y-92999251D01*
X91651283Y-92912439D01*
X91651289Y-92912432D01*
X91653516Y-92910689D01*
X91655461Y-92909913D01*
X91657703Y-92908559D01*
X91657928Y-92908931D01*
X91718425Y-92884832D01*
X91787010Y-92898173D01*
X91806484Y-92910689D01*
X91808713Y-92912435D01*
X91808717Y-92912439D01*
X91808720Y-92912441D01*
X91808723Y-92912443D01*
X91904453Y-92970313D01*
X91952322Y-92999251D01*
X92112529Y-93049173D01*
X92182153Y-93055500D01*
X93817846Y-93055499D01*
X93817853Y-93055499D01*
X93823367Y-93054998D01*
X94758551Y-93054998D01*
X94758552Y-93054999D01*
X96321447Y-93054999D01*
X96321447Y-93054998D01*
X95540000Y-92273552D01*
X94758551Y-93054998D01*
X93823367Y-93054998D01*
X93887466Y-93049174D01*
X93887469Y-93049173D01*
X93887471Y-93049173D01*
X94047678Y-92999251D01*
X94191283Y-92912439D01*
X94235683Y-92868038D01*
X94238882Y-92865251D01*
X94243170Y-92863277D01*
X95186448Y-91920000D01*
X95893552Y-91920000D01*
X96833288Y-92859736D01*
X96847328Y-92871050D01*
X96888717Y-92912439D01*
X96888722Y-92912443D01*
X97000641Y-92980099D01*
X97032322Y-92999251D01*
X97192529Y-93049173D01*
X97262153Y-93055500D01*
X98897846Y-93055499D01*
X98897853Y-93055499D01*
X98967466Y-93049174D01*
X98967469Y-93049173D01*
X98967471Y-93049173D01*
X99127678Y-92999251D01*
X99201589Y-92954570D01*
X99271277Y-92912443D01*
X99271278Y-92912441D01*
X99271283Y-92912439D01*
X99389939Y-92793783D01*
X99476751Y-92650178D01*
X99490016Y-92607608D01*
X99528753Y-92549462D01*
X99592778Y-92521488D01*
X99608401Y-92520500D01*
X103075500Y-92520500D01*
X103142539Y-92540185D01*
X103188294Y-92592989D01*
X103199500Y-92644500D01*
X103199500Y-92682351D01*
X103231522Y-92884534D01*
X103294781Y-93079223D01*
X103387715Y-93261613D01*
X103508028Y-93427213D01*
X103652786Y-93571971D01*
X103804184Y-93681966D01*
X103818390Y-93692287D01*
X103896349Y-93732009D01*
X103911080Y-93739515D01*
X103961876Y-93787490D01*
X103978671Y-93855311D01*
X103956134Y-93921446D01*
X103911080Y-93960485D01*
X103818386Y-94007715D01*
X103652786Y-94128028D01*
X103508028Y-94272786D01*
X103387715Y-94438386D01*
X103294781Y-94620776D01*
X103231522Y-94815465D01*
X103199500Y-95017648D01*
X103199500Y-95222351D01*
X103231522Y-95424534D01*
X103294781Y-95619223D01*
X103349147Y-95725921D01*
X103387712Y-95801609D01*
X103387715Y-95801613D01*
X103508028Y-95967213D01*
X103652786Y-96111971D01*
X103780495Y-96204755D01*
X103818390Y-96232287D01*
X103888461Y-96267990D01*
X103911629Y-96279795D01*
X103962425Y-96327770D01*
X103979220Y-96395591D01*
X103956682Y-96461726D01*
X103911629Y-96500765D01*
X103818650Y-96548140D01*
X103653105Y-96668417D01*
X103653104Y-96668417D01*
X103508417Y-96813104D01*
X103508417Y-96813105D01*
X103388140Y-96978650D01*
X103295244Y-97160970D01*
X103232009Y-97355586D01*
X103223391Y-97410000D01*
X104066988Y-97410000D01*
X104034075Y-97467007D01*
X104000000Y-97594174D01*
X104000000Y-97725826D01*
X104034075Y-97852993D01*
X104066988Y-97910000D01*
X103223391Y-97910000D01*
X103232009Y-97964413D01*
X103295244Y-98159029D01*
X103388140Y-98341349D01*
X103508417Y-98506894D01*
X103508417Y-98506895D01*
X103653104Y-98651582D01*
X103818652Y-98771861D01*
X103911628Y-98819234D01*
X103962425Y-98867208D01*
X103979220Y-98935029D01*
X103956683Y-99001164D01*
X103911630Y-99040203D01*
X103818388Y-99087713D01*
X103652786Y-99208028D01*
X103508028Y-99352786D01*
X103387715Y-99518386D01*
X103294781Y-99700776D01*
X103231522Y-99895465D01*
X103199500Y-100097648D01*
X103199500Y-100302351D01*
X103231522Y-100504534D01*
X103294781Y-100699223D01*
X103387715Y-100881613D01*
X103508028Y-101047213D01*
X103652786Y-101191971D01*
X103758090Y-101268477D01*
X103818390Y-101312287D01*
X103907212Y-101357544D01*
X104000776Y-101405218D01*
X104000778Y-101405218D01*
X104000781Y-101405220D01*
X104053299Y-101422284D01*
X104195465Y-101468477D01*
X104296557Y-101484488D01*
X104397648Y-101500500D01*
X104397649Y-101500500D01*
X104602351Y-101500500D01*
X104602352Y-101500500D01*
X104804534Y-101468477D01*
X104999219Y-101405220D01*
X105181610Y-101312287D01*
X105317507Y-101213553D01*
X105347213Y-101191971D01*
X105347215Y-101191968D01*
X105347219Y-101191966D01*
X105491966Y-101047219D01*
X105491968Y-101047215D01*
X105491971Y-101047213D01*
X105544732Y-100974590D01*
X105612287Y-100881610D01*
X105705220Y-100699219D01*
X105768477Y-100504534D01*
X105800500Y-100302352D01*
X105800500Y-100097648D01*
X105768477Y-99895466D01*
X105705220Y-99700781D01*
X105705218Y-99700778D01*
X105705218Y-99700776D01*
X105670124Y-99631902D01*
X105612287Y-99518390D01*
X105599490Y-99500776D01*
X105491971Y-99352786D01*
X105347213Y-99208028D01*
X105181611Y-99087713D01*
X105088369Y-99040203D01*
X105037574Y-98992229D01*
X105020779Y-98924407D01*
X105043317Y-98858273D01*
X105088371Y-98819234D01*
X105181347Y-98771861D01*
X105346894Y-98651582D01*
X105346895Y-98651582D01*
X105491582Y-98506895D01*
X105491582Y-98506894D01*
X105611859Y-98341349D01*
X105704755Y-98159029D01*
X105767990Y-97964413D01*
X105776609Y-97910000D01*
X104933012Y-97910000D01*
X104965925Y-97852993D01*
X105000000Y-97725826D01*
X105000000Y-97594174D01*
X104965925Y-97467007D01*
X104933012Y-97410000D01*
X105776609Y-97410000D01*
X105767990Y-97355586D01*
X105704755Y-97160970D01*
X105611859Y-96978650D01*
X105491582Y-96813105D01*
X105491582Y-96813104D01*
X105346895Y-96668417D01*
X105181349Y-96548140D01*
X105088370Y-96500765D01*
X105037574Y-96452790D01*
X105020779Y-96384969D01*
X105043316Y-96318835D01*
X105088370Y-96279795D01*
X105088920Y-96279515D01*
X105181610Y-96232287D01*
X105219505Y-96204755D01*
X105347213Y-96111971D01*
X105347215Y-96111968D01*
X105347219Y-96111966D01*
X105491966Y-95967219D01*
X105491968Y-95967215D01*
X105491971Y-95967213D01*
X105544732Y-95894590D01*
X105612287Y-95801610D01*
X105705220Y-95619219D01*
X105768477Y-95424534D01*
X105800500Y-95222352D01*
X105800500Y-95017648D01*
X105783801Y-94912214D01*
X105768477Y-94815465D01*
X105713559Y-94646446D01*
X105705220Y-94620781D01*
X105705218Y-94620778D01*
X105705218Y-94620776D01*
X105625248Y-94463828D01*
X105612287Y-94438390D01*
X105570514Y-94380894D01*
X105491971Y-94272786D01*
X105347213Y-94128028D01*
X105181614Y-94007715D01*
X105175006Y-94004348D01*
X105088917Y-93960483D01*
X105038123Y-93912511D01*
X105021328Y-93844690D01*
X105043865Y-93778555D01*
X105088917Y-93739516D01*
X105181610Y-93692287D01*
X105202770Y-93676913D01*
X105347213Y-93571971D01*
X105347215Y-93571968D01*
X105347219Y-93571966D01*
X105491966Y-93427219D01*
X105491968Y-93427215D01*
X105491971Y-93427213D01*
X105544732Y-93354590D01*
X105612287Y-93261610D01*
X105705220Y-93079219D01*
X105768477Y-92884534D01*
X105800500Y-92682352D01*
X105800500Y-92477648D01*
X105771713Y-92295897D01*
X105780667Y-92226605D01*
X105825664Y-92173153D01*
X105892415Y-92152513D01*
X105894186Y-92152500D01*
X118346319Y-92152500D01*
X118413358Y-92172185D01*
X118459113Y-92224989D01*
X118469057Y-92294147D01*
X118468792Y-92295898D01*
X118463391Y-92330000D01*
X119306988Y-92330000D01*
X119274075Y-92387007D01*
X119240000Y-92514174D01*
X119240000Y-92645826D01*
X119274075Y-92772993D01*
X119306988Y-92830000D01*
X118463391Y-92830000D01*
X118472009Y-92884413D01*
X118535244Y-93079029D01*
X118628140Y-93261349D01*
X118748417Y-93426894D01*
X118748417Y-93426895D01*
X118893104Y-93571582D01*
X119058652Y-93691861D01*
X119151628Y-93739234D01*
X119202425Y-93787208D01*
X119219220Y-93855029D01*
X119196683Y-93921164D01*
X119151630Y-93960203D01*
X119058388Y-94007713D01*
X118892786Y-94128028D01*
X118748028Y-94272786D01*
X118627715Y-94438386D01*
X118534781Y-94620776D01*
X118471522Y-94815465D01*
X118439500Y-95017648D01*
X118439500Y-95222351D01*
X118471522Y-95424534D01*
X118534781Y-95619223D01*
X118589147Y-95725921D01*
X118627712Y-95801609D01*
X118627715Y-95801613D01*
X118748028Y-95967213D01*
X118892786Y-96111971D01*
X119020495Y-96204755D01*
X119058390Y-96232287D01*
X119128461Y-96267990D01*
X119151080Y-96279515D01*
X119201876Y-96327490D01*
X119218671Y-96395311D01*
X119196134Y-96461446D01*
X119151080Y-96500485D01*
X119058386Y-96547715D01*
X118892786Y-96668028D01*
X118748028Y-96812786D01*
X118627715Y-96978386D01*
X118534781Y-97160776D01*
X118471522Y-97355465D01*
X118439500Y-97557648D01*
X118439500Y-97762351D01*
X118471522Y-97964534D01*
X118534781Y-98159223D01*
X118598691Y-98284653D01*
X118599605Y-98286446D01*
X118627715Y-98341613D01*
X118748028Y-98507213D01*
X118892784Y-98651969D01*
X118929068Y-98678330D01*
X118971735Y-98733659D01*
X118977715Y-98803273D01*
X118945109Y-98865068D01*
X118884271Y-98899426D01*
X118869440Y-98901938D01*
X118832519Y-98905907D01*
X118697671Y-98956202D01*
X118697664Y-98956206D01*
X118582455Y-99042452D01*
X118582452Y-99042455D01*
X118496206Y-99157664D01*
X118496202Y-99157671D01*
X118445908Y-99292517D01*
X118443127Y-99318390D01*
X118439501Y-99352123D01*
X118439500Y-99352135D01*
X118439500Y-101047870D01*
X118439501Y-101047876D01*
X118445908Y-101107483D01*
X118496202Y-101242328D01*
X118496206Y-101242335D01*
X118582452Y-101357544D01*
X118582455Y-101357547D01*
X118697664Y-101443793D01*
X118697671Y-101443797D01*
X118832517Y-101494091D01*
X118832516Y-101494091D01*
X118839444Y-101494835D01*
X118892127Y-101500500D01*
X120587872Y-101500499D01*
X120647483Y-101494091D01*
X120782331Y-101443796D01*
X120897546Y-101357546D01*
X120983796Y-101242331D01*
X121034091Y-101107483D01*
X121040500Y-101047873D01*
X121040499Y-99897648D01*
X124699500Y-99897648D01*
X124699500Y-100102351D01*
X124731522Y-100304534D01*
X124794781Y-100499223D01*
X124846385Y-100600500D01*
X124883320Y-100672989D01*
X124887715Y-100681613D01*
X125008028Y-100847213D01*
X125152786Y-100991971D01*
X125307749Y-101104556D01*
X125318390Y-101112287D01*
X125406574Y-101157219D01*
X125500776Y-101205218D01*
X125500778Y-101205218D01*
X125500781Y-101205220D01*
X125605137Y-101239127D01*
X125695465Y-101268477D01*
X125796557Y-101284488D01*
X125897648Y-101300500D01*
X125897649Y-101300500D01*
X126102351Y-101300500D01*
X126102352Y-101300500D01*
X126304534Y-101268477D01*
X126499219Y-101205220D01*
X126681610Y-101112287D01*
X126790268Y-101033343D01*
X126847213Y-100991971D01*
X126847215Y-100991968D01*
X126847219Y-100991966D01*
X126991966Y-100847219D01*
X126991968Y-100847215D01*
X126991971Y-100847213D01*
X127096913Y-100702770D01*
X127112287Y-100681610D01*
X127119117Y-100668204D01*
X127167091Y-100617409D01*
X127229602Y-100600500D01*
X132636872Y-100600500D01*
X132703911Y-100620185D01*
X132749666Y-100672989D01*
X132754802Y-100686179D01*
X132768231Y-100727511D01*
X132794781Y-100809221D01*
X132887715Y-100991613D01*
X133008028Y-101157213D01*
X133152786Y-101301971D01*
X133294896Y-101405218D01*
X133318390Y-101422287D01*
X133409043Y-101468477D01*
X133500776Y-101515218D01*
X133500778Y-101515218D01*
X133500781Y-101515220D01*
X133605137Y-101549127D01*
X133695465Y-101578477D01*
X133796557Y-101594488D01*
X133897648Y-101610500D01*
X133897649Y-101610500D01*
X134102351Y-101610500D01*
X134102352Y-101610500D01*
X134304534Y-101578477D01*
X134499219Y-101515220D01*
X134681610Y-101422287D01*
X134774590Y-101354732D01*
X134847213Y-101301971D01*
X134847215Y-101301968D01*
X134847219Y-101301966D01*
X134991966Y-101157219D01*
X134991968Y-101157215D01*
X134991971Y-101157213D01*
X135044732Y-101084590D01*
X135112287Y-100991610D01*
X135205220Y-100809219D01*
X135268477Y-100614534D01*
X135293729Y-100455102D01*
X135323658Y-100391967D01*
X135382970Y-100355036D01*
X135416202Y-100350500D01*
X138295932Y-100350500D01*
X138362971Y-100370185D01*
X138406416Y-100418203D01*
X138466657Y-100536433D01*
X138605483Y-100727510D01*
X138772490Y-100894517D01*
X138963567Y-101033343D01*
X139062991Y-101084002D01*
X139174003Y-101140566D01*
X139174005Y-101140566D01*
X139174008Y-101140568D01*
X139294412Y-101179689D01*
X139398631Y-101213553D01*
X139631903Y-101250500D01*
X139631908Y-101250500D01*
X139868097Y-101250500D01*
X140101368Y-101213553D01*
X140167790Y-101191971D01*
X140325992Y-101140568D01*
X140536433Y-101033343D01*
X140727510Y-100894517D01*
X140894517Y-100727510D01*
X141033343Y-100536433D01*
X141093583Y-100418204D01*
X141141558Y-100367409D01*
X141204068Y-100350500D01*
X144795932Y-100350500D01*
X144862971Y-100370185D01*
X144906416Y-100418203D01*
X144966657Y-100536433D01*
X145105483Y-100727510D01*
X145272490Y-100894517D01*
X145463567Y-101033343D01*
X145562991Y-101084002D01*
X145674003Y-101140566D01*
X145674005Y-101140566D01*
X145674008Y-101140568D01*
X145794412Y-101179689D01*
X145898631Y-101213553D01*
X146131903Y-101250500D01*
X146131908Y-101250500D01*
X146368097Y-101250500D01*
X146601368Y-101213553D01*
X146667790Y-101191971D01*
X146825992Y-101140568D01*
X147036433Y-101033343D01*
X147227510Y-100894517D01*
X147394517Y-100727510D01*
X147533343Y-100536433D01*
X147640568Y-100325992D01*
X147713553Y-100101368D01*
X147714142Y-100097648D01*
X147750500Y-99868097D01*
X147750500Y-99631902D01*
X147713553Y-99398631D01*
X147679074Y-99292516D01*
X147640568Y-99174008D01*
X147640566Y-99174005D01*
X147640566Y-99174003D01*
X147573537Y-99042452D01*
X147533343Y-98963567D01*
X147394517Y-98772490D01*
X147227510Y-98605483D01*
X147036433Y-98466657D01*
X146825996Y-98359433D01*
X146601368Y-98286446D01*
X146368097Y-98249500D01*
X146368092Y-98249500D01*
X146131908Y-98249500D01*
X146131903Y-98249500D01*
X145898631Y-98286446D01*
X145674003Y-98359433D01*
X145463566Y-98466657D01*
X145407738Y-98507219D01*
X145272490Y-98605483D01*
X145272488Y-98605485D01*
X145272487Y-98605485D01*
X145105485Y-98772487D01*
X145105485Y-98772488D01*
X145105483Y-98772490D01*
X145045862Y-98854550D01*
X144966657Y-98963566D01*
X144952053Y-98992229D01*
X144926462Y-99042455D01*
X144906417Y-99081795D01*
X144858442Y-99132591D01*
X144795932Y-99149500D01*
X141204068Y-99149500D01*
X141137029Y-99129815D01*
X141093583Y-99081795D01*
X141033343Y-98963567D01*
X140894517Y-98772490D01*
X140727510Y-98605483D01*
X140536433Y-98466657D01*
X140325996Y-98359433D01*
X140101368Y-98286446D01*
X139868097Y-98249500D01*
X139868092Y-98249500D01*
X139631908Y-98249500D01*
X139631903Y-98249500D01*
X139398631Y-98286446D01*
X139174003Y-98359433D01*
X138963566Y-98466657D01*
X138907738Y-98507219D01*
X138772490Y-98605483D01*
X138772488Y-98605485D01*
X138772487Y-98605485D01*
X138605485Y-98772487D01*
X138605485Y-98772488D01*
X138605483Y-98772490D01*
X138545862Y-98854550D01*
X138466657Y-98963566D01*
X138452053Y-98992229D01*
X138426462Y-99042455D01*
X138406417Y-99081795D01*
X138358442Y-99132591D01*
X138295932Y-99149500D01*
X134956670Y-99149500D01*
X134956654Y-99149499D01*
X134949058Y-99149499D01*
X134790943Y-99149499D01*
X134703254Y-99172995D01*
X134633404Y-99171332D01*
X134614866Y-99163705D01*
X134499223Y-99104781D01*
X134304534Y-99041522D01*
X134129995Y-99013878D01*
X134102352Y-99009500D01*
X133897648Y-99009500D01*
X133873329Y-99013351D01*
X133695465Y-99041522D01*
X133500776Y-99104781D01*
X133318386Y-99197715D01*
X133152786Y-99318028D01*
X133152782Y-99318032D01*
X133107634Y-99363181D01*
X133046311Y-99396666D01*
X133019953Y-99399500D01*
X127229602Y-99399500D01*
X127162563Y-99379815D01*
X127119117Y-99331795D01*
X127112284Y-99318385D01*
X126991971Y-99152786D01*
X126847213Y-99008028D01*
X126681613Y-98887715D01*
X126681612Y-98887714D01*
X126681610Y-98887713D01*
X126623831Y-98858273D01*
X126499223Y-98794781D01*
X126304534Y-98731522D01*
X126129995Y-98703878D01*
X126102352Y-98699500D01*
X125897648Y-98699500D01*
X125873329Y-98703351D01*
X125695465Y-98731522D01*
X125500776Y-98794781D01*
X125318386Y-98887715D01*
X125152786Y-99008028D01*
X125008028Y-99152786D01*
X124887715Y-99318386D01*
X124794781Y-99500776D01*
X124731522Y-99695465D01*
X124699500Y-99897648D01*
X121040499Y-99897648D01*
X121040499Y-99352128D01*
X121034091Y-99292517D01*
X120998731Y-99197713D01*
X120983797Y-99157671D01*
X120983793Y-99157664D01*
X120897547Y-99042455D01*
X120897544Y-99042452D01*
X120782335Y-98956206D01*
X120782328Y-98956202D01*
X120647482Y-98905908D01*
X120647483Y-98905908D01*
X120610560Y-98901939D01*
X120546009Y-98875201D01*
X120506160Y-98817809D01*
X120503667Y-98747984D01*
X120539319Y-98687895D01*
X120550930Y-98678331D01*
X120587219Y-98651966D01*
X120731966Y-98507219D01*
X120731968Y-98507215D01*
X120731971Y-98507213D01*
X120784732Y-98434590D01*
X120852287Y-98341610D01*
X120945220Y-98159219D01*
X121008477Y-97964534D01*
X121040500Y-97762352D01*
X121040500Y-97557648D01*
X121026144Y-97467007D01*
X121008477Y-97355465D01*
X120945218Y-97160776D01*
X120852419Y-96978650D01*
X120852287Y-96978390D01*
X120844556Y-96967749D01*
X120731971Y-96812786D01*
X120587213Y-96668028D01*
X120421614Y-96547715D01*
X120398394Y-96535884D01*
X120398394Y-96535883D01*
X120328920Y-96500485D01*
X120278123Y-96452511D01*
X120261328Y-96384690D01*
X120283865Y-96318555D01*
X120328917Y-96279516D01*
X120421610Y-96232287D01*
X120459505Y-96204755D01*
X120587213Y-96111971D01*
X120587215Y-96111968D01*
X120587219Y-96111966D01*
X120731966Y-95967219D01*
X120852287Y-95801610D01*
X120945220Y-95619219D01*
X121008477Y-95424534D01*
X121040500Y-95222352D01*
X121040500Y-95017648D01*
X121021668Y-94898752D01*
X121021499Y-94897682D01*
X124700000Y-94897682D01*
X124700000Y-95102317D01*
X124732009Y-95304417D01*
X124795244Y-95499031D01*
X124888141Y-95681350D01*
X124888147Y-95681359D01*
X124920523Y-95725921D01*
X124920524Y-95725922D01*
X125600000Y-95046446D01*
X125600000Y-95052661D01*
X125627259Y-95154394D01*
X125679920Y-95245606D01*
X125754394Y-95320080D01*
X125845606Y-95372741D01*
X125947339Y-95400000D01*
X125953553Y-95400000D01*
X125274076Y-96079474D01*
X125318650Y-96111859D01*
X125500968Y-96204755D01*
X125695582Y-96267990D01*
X125897683Y-96300000D01*
X126102317Y-96300000D01*
X126304417Y-96267990D01*
X126499031Y-96204755D01*
X126681349Y-96111859D01*
X126725921Y-96079474D01*
X126046447Y-95400000D01*
X126052661Y-95400000D01*
X126154394Y-95372741D01*
X126245606Y-95320080D01*
X126320080Y-95245606D01*
X126372741Y-95154394D01*
X126400000Y-95052661D01*
X126400000Y-95046448D01*
X127079474Y-95725922D01*
X127079474Y-95725921D01*
X127111859Y-95681349D01*
X127204755Y-95499031D01*
X127267990Y-95304417D01*
X127295307Y-95131947D01*
X138250000Y-95131947D01*
X138250000Y-95368052D01*
X138286934Y-95601247D01*
X138359897Y-95825802D01*
X138467087Y-96036174D01*
X138527338Y-96119104D01*
X138527340Y-96119105D01*
X139226212Y-95420233D01*
X139237482Y-95462292D01*
X139309890Y-95587708D01*
X139412292Y-95690110D01*
X139537708Y-95762518D01*
X139579765Y-95773787D01*
X138880893Y-96472658D01*
X138963828Y-96532914D01*
X139174197Y-96640102D01*
X139398752Y-96713065D01*
X139398751Y-96713065D01*
X139631948Y-96750000D01*
X139868052Y-96750000D01*
X140101247Y-96713065D01*
X140325802Y-96640102D01*
X140536163Y-96532918D01*
X140536169Y-96532914D01*
X140619104Y-96472658D01*
X140619105Y-96472658D01*
X139920233Y-95773787D01*
X139962292Y-95762518D01*
X140087708Y-95690110D01*
X140190110Y-95587708D01*
X140262518Y-95462292D01*
X140273787Y-95420234D01*
X140972658Y-96119105D01*
X140972658Y-96119104D01*
X141032914Y-96036169D01*
X141032918Y-96036163D01*
X141140102Y-95825802D01*
X141213065Y-95601247D01*
X141250000Y-95368052D01*
X141250000Y-95131947D01*
X144750000Y-95131947D01*
X144750000Y-95368052D01*
X144786934Y-95601247D01*
X144859897Y-95825802D01*
X144967087Y-96036174D01*
X145027338Y-96119104D01*
X145027340Y-96119105D01*
X145726212Y-95420233D01*
X145737482Y-95462292D01*
X145809890Y-95587708D01*
X145912292Y-95690110D01*
X146037708Y-95762518D01*
X146079765Y-95773787D01*
X145380893Y-96472658D01*
X145463828Y-96532914D01*
X145674197Y-96640102D01*
X145898752Y-96713065D01*
X145898751Y-96713065D01*
X146131948Y-96750000D01*
X146368052Y-96750000D01*
X146601247Y-96713065D01*
X146825802Y-96640102D01*
X147036163Y-96532918D01*
X147036169Y-96532914D01*
X147119104Y-96472658D01*
X147119105Y-96472658D01*
X146420233Y-95773787D01*
X146462292Y-95762518D01*
X146587708Y-95690110D01*
X146690110Y-95587708D01*
X146762518Y-95462292D01*
X146773787Y-95420234D01*
X147472658Y-96119105D01*
X147472658Y-96119104D01*
X147532914Y-96036169D01*
X147532918Y-96036163D01*
X147640102Y-95825802D01*
X147713065Y-95601247D01*
X147750000Y-95368052D01*
X147750000Y-95131947D01*
X147713065Y-94898752D01*
X147640102Y-94674197D01*
X147532914Y-94463828D01*
X147472658Y-94380894D01*
X147472658Y-94380893D01*
X146773787Y-95079765D01*
X146762518Y-95037708D01*
X146690110Y-94912292D01*
X146587708Y-94809890D01*
X146462292Y-94737482D01*
X146420234Y-94726212D01*
X147119105Y-94027340D01*
X147119104Y-94027338D01*
X147036174Y-93967087D01*
X146825802Y-93859897D01*
X146601247Y-93786934D01*
X146601248Y-93786934D01*
X146368052Y-93750000D01*
X146131948Y-93750000D01*
X145898752Y-93786934D01*
X145674197Y-93859897D01*
X145463830Y-93967084D01*
X145380894Y-94027340D01*
X146079766Y-94726212D01*
X146037708Y-94737482D01*
X145912292Y-94809890D01*
X145809890Y-94912292D01*
X145737482Y-95037708D01*
X145726212Y-95079766D01*
X145027340Y-94380894D01*
X144967084Y-94463830D01*
X144859897Y-94674197D01*
X144786934Y-94898752D01*
X144750000Y-95131947D01*
X141250000Y-95131947D01*
X141213065Y-94898752D01*
X141140102Y-94674197D01*
X141032914Y-94463828D01*
X140972658Y-94380894D01*
X140972658Y-94380893D01*
X140273787Y-95079765D01*
X140262518Y-95037708D01*
X140190110Y-94912292D01*
X140087708Y-94809890D01*
X139962292Y-94737482D01*
X139920234Y-94726212D01*
X140619105Y-94027340D01*
X140619104Y-94027339D01*
X140536174Y-93967087D01*
X140325802Y-93859897D01*
X140101247Y-93786934D01*
X140101248Y-93786934D01*
X139868052Y-93750000D01*
X139631948Y-93750000D01*
X139398752Y-93786934D01*
X139174197Y-93859897D01*
X138963830Y-93967084D01*
X138880894Y-94027340D01*
X139579766Y-94726212D01*
X139537708Y-94737482D01*
X139412292Y-94809890D01*
X139309890Y-94912292D01*
X139237482Y-95037708D01*
X139226212Y-95079766D01*
X138527340Y-94380894D01*
X138467084Y-94463830D01*
X138359897Y-94674197D01*
X138286934Y-94898752D01*
X138250000Y-95131947D01*
X127295307Y-95131947D01*
X127299151Y-95107677D01*
X127299151Y-95107676D01*
X127300000Y-95102316D01*
X127300000Y-94897682D01*
X127267990Y-94695582D01*
X127204755Y-94500968D01*
X127111859Y-94318650D01*
X127079474Y-94274077D01*
X127079474Y-94274076D01*
X126400000Y-94953551D01*
X126400000Y-94947339D01*
X126372741Y-94845606D01*
X126320080Y-94754394D01*
X126245606Y-94679920D01*
X126154394Y-94627259D01*
X126052661Y-94600000D01*
X126046446Y-94600000D01*
X126725922Y-93920524D01*
X126725921Y-93920523D01*
X126681359Y-93888147D01*
X126681350Y-93888141D01*
X126499031Y-93795244D01*
X126304417Y-93732009D01*
X126102317Y-93700000D01*
X125897683Y-93700000D01*
X125695582Y-93732009D01*
X125500968Y-93795244D01*
X125318644Y-93888143D01*
X125274077Y-93920523D01*
X125274077Y-93920524D01*
X125953554Y-94600000D01*
X125947339Y-94600000D01*
X125845606Y-94627259D01*
X125754394Y-94679920D01*
X125679920Y-94754394D01*
X125627259Y-94845606D01*
X125600000Y-94947339D01*
X125600000Y-94953553D01*
X124920524Y-94274077D01*
X124920523Y-94274077D01*
X124888143Y-94318644D01*
X124795244Y-94500968D01*
X124732009Y-94695582D01*
X124700000Y-94897682D01*
X121021499Y-94897682D01*
X121008477Y-94815465D01*
X120953559Y-94646446D01*
X120945220Y-94620781D01*
X120945218Y-94620778D01*
X120945218Y-94620776D01*
X120865248Y-94463828D01*
X120852287Y-94438390D01*
X120810514Y-94380894D01*
X120731971Y-94272786D01*
X120587217Y-94128032D01*
X120587212Y-94128028D01*
X120508705Y-94070990D01*
X120508698Y-94070986D01*
X120421610Y-94007713D01*
X120324077Y-93958017D01*
X120319945Y-93955489D01*
X120299601Y-93933033D01*
X120277574Y-93912229D01*
X120276377Y-93907397D01*
X120273035Y-93903708D01*
X120268060Y-93873810D01*
X120260779Y-93844407D01*
X120262384Y-93839696D01*
X120261567Y-93834786D01*
X120273544Y-93806948D01*
X120283317Y-93778273D01*
X120287407Y-93774728D01*
X120289182Y-93770605D01*
X120302638Y-93761531D01*
X120328371Y-93739234D01*
X120421347Y-93691861D01*
X120586894Y-93571582D01*
X120586895Y-93571582D01*
X120731582Y-93426895D01*
X120731582Y-93426894D01*
X120851859Y-93261349D01*
X120944755Y-93079029D01*
X121007990Y-92884413D01*
X121016609Y-92830000D01*
X120173012Y-92830000D01*
X120205925Y-92772993D01*
X120240000Y-92645826D01*
X120240000Y-92514174D01*
X120205925Y-92387007D01*
X120173012Y-92330000D01*
X121016609Y-92330000D01*
X121011208Y-92295898D01*
X121020162Y-92226605D01*
X121065159Y-92173153D01*
X121131910Y-92152513D01*
X121133681Y-92152500D01*
X132561903Y-92152500D01*
X132591343Y-92161144D01*
X132621330Y-92167668D01*
X132626345Y-92171422D01*
X132628942Y-92172185D01*
X132649584Y-92188819D01*
X132705922Y-92245157D01*
X132739407Y-92306480D01*
X132736173Y-92371155D01*
X132731522Y-92385468D01*
X132705548Y-92549462D01*
X132699500Y-92587648D01*
X132699500Y-92792352D01*
X132699727Y-92793783D01*
X132731522Y-92994534D01*
X132794781Y-93189223D01*
X132887715Y-93371613D01*
X133008028Y-93537213D01*
X133152786Y-93681971D01*
X133307749Y-93794556D01*
X133318390Y-93802287D01*
X133409043Y-93848477D01*
X133500776Y-93895218D01*
X133500778Y-93895218D01*
X133500781Y-93895220D01*
X133605137Y-93929127D01*
X133695465Y-93958477D01*
X133796557Y-93974488D01*
X133897648Y-93990500D01*
X133897649Y-93990500D01*
X134102351Y-93990500D01*
X134102352Y-93990500D01*
X134304534Y-93958477D01*
X134304539Y-93958475D01*
X134304541Y-93958475D01*
X134310100Y-93956669D01*
X134310102Y-93956668D01*
X134344033Y-93945642D01*
X134499219Y-93895220D01*
X134681610Y-93802287D01*
X134778340Y-93732009D01*
X134847213Y-93681971D01*
X134847215Y-93681968D01*
X134847219Y-93681966D01*
X134991966Y-93537219D01*
X134991968Y-93537215D01*
X134991971Y-93537213D01*
X135072121Y-93426894D01*
X135112287Y-93371610D01*
X135205220Y-93189219D01*
X135268477Y-92994534D01*
X135300500Y-92792352D01*
X135300500Y-92587648D01*
X135294452Y-92549462D01*
X135268477Y-92385465D01*
X135205218Y-92190776D01*
X135148774Y-92080000D01*
X135112287Y-92008390D01*
X135104556Y-91997749D01*
X134991971Y-91842786D01*
X134847213Y-91698028D01*
X134681613Y-91577715D01*
X134681612Y-91577714D01*
X134681610Y-91577713D01*
X134624653Y-91548691D01*
X134499223Y-91484781D01*
X134304534Y-91421522D01*
X134129995Y-91393878D01*
X134102352Y-91389500D01*
X133897648Y-91389500D01*
X133859599Y-91395526D01*
X133695468Y-91421522D01*
X133686717Y-91424365D01*
X133681154Y-91426173D01*
X133611313Y-91428167D01*
X133555157Y-91395922D01*
X133349590Y-91190355D01*
X133349588Y-91190352D01*
X133230717Y-91071481D01*
X133230716Y-91071480D01*
X133143904Y-91021360D01*
X133143904Y-91021359D01*
X133143900Y-91021358D01*
X133093785Y-90992423D01*
X132941057Y-90951499D01*
X132782943Y-90951499D01*
X132775347Y-90951499D01*
X132775331Y-90951500D01*
X123918074Y-90951500D01*
X123851035Y-90931815D01*
X123805280Y-90879011D01*
X123795336Y-90809853D01*
X123824361Y-90746297D01*
X123870621Y-90712939D01*
X123874348Y-90711394D01*
X123879179Y-90709394D01*
X124010289Y-90621789D01*
X124121789Y-90510289D01*
X124209394Y-90379179D01*
X124269737Y-90233497D01*
X124300500Y-90078842D01*
X124300500Y-89921158D01*
X124300500Y-89921155D01*
X124300499Y-89921153D01*
X124276499Y-89800500D01*
X124269737Y-89766503D01*
X124244352Y-89705218D01*
X124209397Y-89620827D01*
X124209390Y-89620814D01*
X124121789Y-89489711D01*
X124121786Y-89489707D01*
X124010292Y-89378213D01*
X124010288Y-89378210D01*
X123879185Y-89290609D01*
X123879172Y-89290602D01*
X123733501Y-89230264D01*
X123733489Y-89230261D01*
X123578845Y-89199500D01*
X123578842Y-89199500D01*
X123421158Y-89199500D01*
X123421155Y-89199500D01*
X123266510Y-89230261D01*
X123266498Y-89230264D01*
X123120827Y-89290602D01*
X123120814Y-89290609D01*
X122989125Y-89378602D01*
X122922447Y-89399480D01*
X122920234Y-89399500D01*
X120945337Y-89399500D01*
X120878298Y-89379815D01*
X120845019Y-89348385D01*
X120731971Y-89192787D01*
X120731967Y-89192782D01*
X120587213Y-89048028D01*
X120421614Y-88927715D01*
X120415006Y-88924348D01*
X120328917Y-88880483D01*
X120278123Y-88832511D01*
X120261328Y-88764690D01*
X120283865Y-88698555D01*
X120328917Y-88659516D01*
X120421610Y-88612287D01*
X120442770Y-88596913D01*
X120587213Y-88491971D01*
X120587215Y-88491968D01*
X120587219Y-88491966D01*
X120731966Y-88347219D01*
X120731968Y-88347215D01*
X120731971Y-88347213D01*
X120852284Y-88181614D01*
X120852285Y-88181613D01*
X120852287Y-88181610D01*
X120859117Y-88168204D01*
X120907091Y-88117409D01*
X120969602Y-88100500D01*
X124601379Y-88100500D01*
X124668418Y-88120185D01*
X124714173Y-88172989D01*
X124724117Y-88242147D01*
X124723852Y-88243898D01*
X124699500Y-88397648D01*
X124699500Y-88602351D01*
X124731522Y-88804534D01*
X124794781Y-88999223D01*
X124853536Y-89114534D01*
X124883320Y-89172989D01*
X124887715Y-89181613D01*
X125008028Y-89347213D01*
X125152786Y-89491971D01*
X125307749Y-89604556D01*
X125318390Y-89612287D01*
X125406574Y-89657219D01*
X125500776Y-89705218D01*
X125500778Y-89705218D01*
X125500781Y-89705220D01*
X125569383Y-89727510D01*
X125695465Y-89768477D01*
X125796557Y-89784488D01*
X125897648Y-89800500D01*
X125897649Y-89800500D01*
X126102351Y-89800500D01*
X126102352Y-89800500D01*
X126304534Y-89768477D01*
X126499219Y-89705220D01*
X126681610Y-89612287D01*
X126786018Y-89536431D01*
X126847213Y-89491971D01*
X126847215Y-89491968D01*
X126847219Y-89491966D01*
X126991966Y-89347219D01*
X126991968Y-89347215D01*
X126991971Y-89347213D01*
X127099289Y-89199500D01*
X127112287Y-89181610D01*
X127119117Y-89168204D01*
X127167091Y-89117409D01*
X127229602Y-89100500D01*
X132636872Y-89100500D01*
X132703911Y-89120185D01*
X132749666Y-89172989D01*
X132754802Y-89186179D01*
X132794780Y-89309219D01*
X132886745Y-89489711D01*
X132887715Y-89491613D01*
X133008028Y-89657213D01*
X133152786Y-89801971D01*
X133307749Y-89914556D01*
X133318390Y-89922287D01*
X133434607Y-89981503D01*
X133500776Y-90015218D01*
X133500778Y-90015218D01*
X133500781Y-90015220D01*
X133556555Y-90033342D01*
X133695465Y-90078477D01*
X133796557Y-90094488D01*
X133897648Y-90110500D01*
X133897649Y-90110500D01*
X134102351Y-90110500D01*
X134102352Y-90110500D01*
X134304534Y-90078477D01*
X134499219Y-90015220D01*
X134681610Y-89922287D01*
X134774590Y-89854732D01*
X134847213Y-89801971D01*
X134847215Y-89801968D01*
X134847219Y-89801966D01*
X134991966Y-89657219D01*
X134991968Y-89657215D01*
X134991971Y-89657213D01*
X135112284Y-89491614D01*
X135112285Y-89491613D01*
X135112287Y-89491610D01*
X135119117Y-89478204D01*
X135167091Y-89427409D01*
X135229602Y-89410500D01*
X138326503Y-89410500D01*
X138393542Y-89430185D01*
X138436987Y-89478204D01*
X138466655Y-89536431D01*
X138469816Y-89540781D01*
X138605483Y-89727510D01*
X138772490Y-89894517D01*
X138963567Y-90033343D01*
X139052864Y-90078842D01*
X139174003Y-90140566D01*
X139174005Y-90140566D01*
X139174008Y-90140568D01*
X139294412Y-90179689D01*
X139398631Y-90213553D01*
X139631903Y-90250500D01*
X139631908Y-90250500D01*
X139868097Y-90250500D01*
X140101368Y-90213553D01*
X140325992Y-90140568D01*
X140536433Y-90033343D01*
X140727510Y-89894517D01*
X140894517Y-89727510D01*
X141033343Y-89536433D01*
X141093583Y-89418204D01*
X141141558Y-89367409D01*
X141204068Y-89350500D01*
X144795932Y-89350500D01*
X144862971Y-89370185D01*
X144906416Y-89418203D01*
X144966657Y-89536433D01*
X145105483Y-89727510D01*
X145272490Y-89894517D01*
X145463567Y-90033343D01*
X145552864Y-90078842D01*
X145674003Y-90140566D01*
X145674005Y-90140566D01*
X145674008Y-90140568D01*
X145794412Y-90179689D01*
X145898631Y-90213553D01*
X146131903Y-90250500D01*
X146131908Y-90250500D01*
X146368097Y-90250500D01*
X146601368Y-90213553D01*
X146825992Y-90140568D01*
X147036433Y-90033343D01*
X147227510Y-89894517D01*
X147394517Y-89727510D01*
X147533343Y-89536433D01*
X147640568Y-89325992D01*
X147713553Y-89101368D01*
X147741057Y-88927715D01*
X147750500Y-88868097D01*
X147750500Y-88631902D01*
X147713553Y-88398631D01*
X147640566Y-88174003D01*
X147584002Y-88062991D01*
X147533343Y-87963567D01*
X147394517Y-87772490D01*
X147227510Y-87605483D01*
X147036433Y-87466657D01*
X146825996Y-87359433D01*
X146601368Y-87286446D01*
X146368097Y-87249500D01*
X146368092Y-87249500D01*
X146131908Y-87249500D01*
X146131903Y-87249500D01*
X145898631Y-87286446D01*
X145674003Y-87359433D01*
X145463566Y-87466657D01*
X145363921Y-87539054D01*
X145272490Y-87605483D01*
X145272488Y-87605485D01*
X145272487Y-87605485D01*
X145105485Y-87772487D01*
X145105485Y-87772488D01*
X145105483Y-87772490D01*
X145082202Y-87804534D01*
X144966657Y-87963566D01*
X144906417Y-88081795D01*
X144858442Y-88132591D01*
X144795932Y-88149500D01*
X141204068Y-88149500D01*
X141137029Y-88129815D01*
X141093583Y-88081795D01*
X141033343Y-87963567D01*
X140894517Y-87772490D01*
X140727510Y-87605483D01*
X140536433Y-87466657D01*
X140325996Y-87359433D01*
X140101368Y-87286446D01*
X139868097Y-87249500D01*
X139868092Y-87249500D01*
X139631908Y-87249500D01*
X139631903Y-87249500D01*
X139398631Y-87286446D01*
X139174003Y-87359433D01*
X138963566Y-87466657D01*
X138863921Y-87539054D01*
X138772490Y-87605483D01*
X138772488Y-87605485D01*
X138772487Y-87605485D01*
X138605485Y-87772487D01*
X138605485Y-87772488D01*
X138605483Y-87772490D01*
X138582202Y-87804534D01*
X138466657Y-87963566D01*
X138375845Y-88141795D01*
X138327870Y-88192591D01*
X138265360Y-88209500D01*
X135229602Y-88209500D01*
X135162563Y-88189815D01*
X135119117Y-88141795D01*
X135112287Y-88128390D01*
X135112285Y-88128387D01*
X135112284Y-88128385D01*
X134991971Y-87962786D01*
X134847213Y-87818028D01*
X134681613Y-87697715D01*
X134681612Y-87697714D01*
X134681610Y-87697713D01*
X134593436Y-87652786D01*
X134499223Y-87604781D01*
X134304534Y-87541522D01*
X134129995Y-87513878D01*
X134102352Y-87509500D01*
X133897648Y-87509500D01*
X133873329Y-87513351D01*
X133695465Y-87541522D01*
X133500776Y-87604781D01*
X133318386Y-87697715D01*
X133152786Y-87818028D01*
X133152782Y-87818032D01*
X133107634Y-87863181D01*
X133046311Y-87896666D01*
X133019953Y-87899500D01*
X127229602Y-87899500D01*
X127162563Y-87879815D01*
X127119117Y-87831795D01*
X127112284Y-87818385D01*
X126991971Y-87652786D01*
X126847213Y-87508028D01*
X126681613Y-87387715D01*
X126681612Y-87387714D01*
X126681610Y-87387713D01*
X126589819Y-87340943D01*
X126499223Y-87294781D01*
X126304534Y-87231522D01*
X126129995Y-87203878D01*
X126102352Y-87199500D01*
X125897648Y-87199500D01*
X125859599Y-87205526D01*
X125695468Y-87231522D01*
X125686717Y-87234365D01*
X125681154Y-87236173D01*
X125665941Y-87236607D01*
X125651684Y-87241925D01*
X125631729Y-87237584D01*
X125611313Y-87238167D01*
X125597226Y-87230078D01*
X125583411Y-87227073D01*
X125555157Y-87205922D01*
X125487590Y-87138355D01*
X125487588Y-87138352D01*
X125368717Y-87019481D01*
X125368716Y-87019480D01*
X125281904Y-86969360D01*
X125281904Y-86969359D01*
X125281900Y-86969358D01*
X125231785Y-86940423D01*
X125079057Y-86899499D01*
X124920943Y-86899499D01*
X124913347Y-86899499D01*
X124913331Y-86899500D01*
X120969602Y-86899500D01*
X120902563Y-86879815D01*
X120859117Y-86831795D01*
X120852284Y-86818385D01*
X120731971Y-86652786D01*
X120587213Y-86508028D01*
X120421614Y-86387715D01*
X120415006Y-86384348D01*
X120328917Y-86340483D01*
X120278123Y-86292511D01*
X120261328Y-86224690D01*
X120283865Y-86158555D01*
X120328917Y-86119516D01*
X120421610Y-86072287D01*
X120442770Y-86056913D01*
X120587213Y-85951971D01*
X120587215Y-85951968D01*
X120587219Y-85951966D01*
X120731966Y-85807219D01*
X120731968Y-85807215D01*
X120731971Y-85807213D01*
X120852284Y-85641614D01*
X120852285Y-85641613D01*
X120852287Y-85641610D01*
X120859117Y-85628204D01*
X120907091Y-85577409D01*
X120969602Y-85560500D01*
X121877059Y-85560500D01*
X121944098Y-85580185D01*
X121964740Y-85596819D01*
X121989707Y-85621786D01*
X121989711Y-85621789D01*
X122120814Y-85709390D01*
X122120827Y-85709397D01*
X122218853Y-85750000D01*
X122266503Y-85769737D01*
X122421153Y-85800499D01*
X122421156Y-85800500D01*
X122421158Y-85800500D01*
X122578844Y-85800500D01*
X122578845Y-85800499D01*
X122733497Y-85769737D01*
X122846166Y-85723067D01*
X122879172Y-85709397D01*
X122879172Y-85709396D01*
X122879179Y-85709394D01*
X123010289Y-85621789D01*
X123121789Y-85510289D01*
X123209394Y-85379179D01*
X123269737Y-85233497D01*
X123300500Y-85078842D01*
X123300500Y-84921158D01*
X123300500Y-84921155D01*
X123300499Y-84921153D01*
X123274531Y-84790606D01*
X123269737Y-84766503D01*
X123255458Y-84732030D01*
X123209397Y-84620827D01*
X123209389Y-84620813D01*
X123196222Y-84601107D01*
X123196221Y-84601106D01*
X123121789Y-84489711D01*
X123121786Y-84489707D01*
X123010292Y-84378213D01*
X123010288Y-84378210D01*
X122879185Y-84290609D01*
X122879172Y-84290602D01*
X122733501Y-84230264D01*
X122733489Y-84230261D01*
X122578845Y-84199500D01*
X122578842Y-84199500D01*
X122421158Y-84199500D01*
X122421155Y-84199500D01*
X122266510Y-84230261D01*
X122266498Y-84230264D01*
X122120827Y-84290602D01*
X122120815Y-84290609D01*
X122048990Y-84338602D01*
X121982313Y-84359480D01*
X121980099Y-84359500D01*
X120969602Y-84359500D01*
X120902563Y-84339815D01*
X120859117Y-84291795D01*
X120852284Y-84278385D01*
X120731971Y-84112786D01*
X120587213Y-83968028D01*
X120421614Y-83847715D01*
X120347378Y-83809890D01*
X120328917Y-83800483D01*
X120278123Y-83752511D01*
X120261328Y-83684690D01*
X120283865Y-83618555D01*
X120328917Y-83579516D01*
X120421610Y-83532287D01*
X120466051Y-83499999D01*
X120587213Y-83411971D01*
X120587215Y-83411968D01*
X120587219Y-83411966D01*
X120601503Y-83397682D01*
X124700000Y-83397682D01*
X124700000Y-83602317D01*
X124732009Y-83804417D01*
X124795244Y-83999031D01*
X124888141Y-84181350D01*
X124888147Y-84181359D01*
X124920523Y-84225921D01*
X124920524Y-84225922D01*
X125600000Y-83546446D01*
X125600000Y-83552661D01*
X125627259Y-83654394D01*
X125679920Y-83745606D01*
X125754394Y-83820080D01*
X125845606Y-83872741D01*
X125947339Y-83900000D01*
X125953553Y-83900000D01*
X125274076Y-84579474D01*
X125318650Y-84611859D01*
X125500968Y-84704755D01*
X125695582Y-84767990D01*
X125897683Y-84800000D01*
X126102317Y-84800000D01*
X126304417Y-84767990D01*
X126499031Y-84704755D01*
X126681349Y-84611859D01*
X126725921Y-84579474D01*
X126046447Y-83900000D01*
X126052661Y-83900000D01*
X126154394Y-83872741D01*
X126245606Y-83820080D01*
X126320080Y-83745606D01*
X126372741Y-83654394D01*
X126400000Y-83552661D01*
X126400000Y-83546448D01*
X127079474Y-84225922D01*
X127079474Y-84225921D01*
X127111861Y-84181347D01*
X127111861Y-84181346D01*
X127137031Y-84131947D01*
X138250000Y-84131947D01*
X138250000Y-84368052D01*
X138286934Y-84601247D01*
X138359897Y-84825802D01*
X138467087Y-85036174D01*
X138527338Y-85119104D01*
X138527340Y-85119105D01*
X139226212Y-84420233D01*
X139237482Y-84462292D01*
X139309890Y-84587708D01*
X139412292Y-84690110D01*
X139537708Y-84762518D01*
X139579765Y-84773787D01*
X138880893Y-85472658D01*
X138963828Y-85532914D01*
X139174197Y-85640102D01*
X139398752Y-85713065D01*
X139398751Y-85713065D01*
X139631948Y-85750000D01*
X139868052Y-85750000D01*
X140101247Y-85713065D01*
X140325802Y-85640102D01*
X140536163Y-85532918D01*
X140536169Y-85532914D01*
X140619104Y-85472658D01*
X140619105Y-85472658D01*
X139920233Y-84773787D01*
X139962292Y-84762518D01*
X140087708Y-84690110D01*
X140190110Y-84587708D01*
X140262518Y-84462292D01*
X140273787Y-84420234D01*
X140972658Y-85119105D01*
X140972658Y-85119104D01*
X141032914Y-85036169D01*
X141032918Y-85036163D01*
X141140102Y-84825802D01*
X141213065Y-84601247D01*
X141250000Y-84368052D01*
X141250000Y-84131947D01*
X144750000Y-84131947D01*
X144750000Y-84368052D01*
X144786934Y-84601247D01*
X144859897Y-84825802D01*
X144967087Y-85036174D01*
X145027338Y-85119104D01*
X145027340Y-85119105D01*
X145726212Y-84420233D01*
X145737482Y-84462292D01*
X145809890Y-84587708D01*
X145912292Y-84690110D01*
X146037708Y-84762518D01*
X146079765Y-84773787D01*
X145380893Y-85472658D01*
X145463828Y-85532914D01*
X145674197Y-85640102D01*
X145898752Y-85713065D01*
X145898751Y-85713065D01*
X146131948Y-85750000D01*
X146368052Y-85750000D01*
X146601247Y-85713065D01*
X146825802Y-85640102D01*
X147036163Y-85532918D01*
X147036169Y-85532914D01*
X147119104Y-85472658D01*
X147119105Y-85472658D01*
X146420233Y-84773787D01*
X146462292Y-84762518D01*
X146587708Y-84690110D01*
X146690110Y-84587708D01*
X146762518Y-84462292D01*
X146773787Y-84420234D01*
X147472658Y-85119105D01*
X147472658Y-85119104D01*
X147532914Y-85036169D01*
X147532918Y-85036163D01*
X147640102Y-84825802D01*
X147713065Y-84601247D01*
X147750000Y-84368052D01*
X147750000Y-84131947D01*
X147713065Y-83898752D01*
X147640102Y-83674197D01*
X147532914Y-83463828D01*
X147472658Y-83380894D01*
X147472658Y-83380893D01*
X146773787Y-84079765D01*
X146762518Y-84037708D01*
X146690110Y-83912292D01*
X146587708Y-83809890D01*
X146462292Y-83737482D01*
X146420234Y-83726212D01*
X147119105Y-83027340D01*
X147119104Y-83027338D01*
X147036174Y-82967087D01*
X146825802Y-82859897D01*
X146601247Y-82786934D01*
X146601248Y-82786934D01*
X146368052Y-82750000D01*
X146131948Y-82750000D01*
X145898752Y-82786934D01*
X145674197Y-82859897D01*
X145463830Y-82967084D01*
X145380894Y-83027340D01*
X146079766Y-83726212D01*
X146037708Y-83737482D01*
X145912292Y-83809890D01*
X145809890Y-83912292D01*
X145737482Y-84037708D01*
X145726212Y-84079766D01*
X145027340Y-83380894D01*
X144967084Y-83463830D01*
X144859897Y-83674197D01*
X144786934Y-83898752D01*
X144750000Y-84131947D01*
X141250000Y-84131947D01*
X141213065Y-83898752D01*
X141140102Y-83674197D01*
X141032914Y-83463828D01*
X140972658Y-83380894D01*
X140972658Y-83380893D01*
X140273787Y-84079765D01*
X140262518Y-84037708D01*
X140190110Y-83912292D01*
X140087708Y-83809890D01*
X139962292Y-83737482D01*
X139920234Y-83726212D01*
X140619105Y-83027340D01*
X140619104Y-83027339D01*
X140536174Y-82967087D01*
X140325802Y-82859897D01*
X140101247Y-82786934D01*
X140101248Y-82786934D01*
X139868052Y-82750000D01*
X139631948Y-82750000D01*
X139398752Y-82786934D01*
X139174197Y-82859897D01*
X138963830Y-82967084D01*
X138880894Y-83027340D01*
X139579766Y-83726212D01*
X139537708Y-83737482D01*
X139412292Y-83809890D01*
X139309890Y-83912292D01*
X139237482Y-84037708D01*
X139226212Y-84079766D01*
X138527340Y-83380894D01*
X138467084Y-83463830D01*
X138359897Y-83674197D01*
X138286934Y-83898752D01*
X138250000Y-84131947D01*
X127137031Y-84131947D01*
X127168197Y-84070781D01*
X127168197Y-84070780D01*
X127204755Y-83999031D01*
X127267990Y-83804417D01*
X127300000Y-83602317D01*
X127300000Y-83397682D01*
X127267990Y-83195582D01*
X127241130Y-83112918D01*
X127204754Y-83000968D01*
X127111859Y-82818650D01*
X127079474Y-82774077D01*
X127079474Y-82774076D01*
X126400000Y-83453551D01*
X126400000Y-83447339D01*
X126372741Y-83345606D01*
X126320080Y-83254394D01*
X126245606Y-83179920D01*
X126154394Y-83127259D01*
X126052661Y-83100000D01*
X126046446Y-83100000D01*
X126725922Y-82420524D01*
X126725921Y-82420523D01*
X126681359Y-82388147D01*
X126681350Y-82388141D01*
X126499031Y-82295244D01*
X126304417Y-82232009D01*
X126102317Y-82200000D01*
X125897683Y-82200000D01*
X125695582Y-82232009D01*
X125500968Y-82295244D01*
X125318644Y-82388143D01*
X125274077Y-82420523D01*
X125274077Y-82420524D01*
X125953554Y-83100000D01*
X125947339Y-83100000D01*
X125845606Y-83127259D01*
X125754394Y-83179920D01*
X125679920Y-83254394D01*
X125627259Y-83345606D01*
X125600000Y-83447339D01*
X125600000Y-83453553D01*
X124920524Y-82774077D01*
X124920523Y-82774077D01*
X124888143Y-82818644D01*
X124795244Y-83000968D01*
X124732009Y-83195582D01*
X124700000Y-83397682D01*
X120601503Y-83397682D01*
X120731966Y-83267219D01*
X120731968Y-83267215D01*
X120731971Y-83267213D01*
X120819712Y-83146446D01*
X120852287Y-83101610D01*
X120945220Y-82919219D01*
X121008477Y-82724534D01*
X121040500Y-82522352D01*
X121040500Y-82317648D01*
X121038067Y-82302284D01*
X121008477Y-82115465D01*
X120945218Y-81920776D01*
X120911503Y-81854607D01*
X120852287Y-81738390D01*
X120844556Y-81727749D01*
X120731971Y-81572786D01*
X120587213Y-81428028D01*
X120421614Y-81307715D01*
X120391460Y-81292351D01*
X120328917Y-81260483D01*
X120321094Y-81253094D01*
X120311006Y-81249344D01*
X120296138Y-81229525D01*
X120278123Y-81212511D01*
X120275535Y-81202062D01*
X120269077Y-81193453D01*
X120267284Y-81168741D01*
X120261328Y-81144690D01*
X120264799Y-81134501D01*
X120264021Y-81123767D01*
X120275872Y-81102009D01*
X120280766Y-81087648D01*
X132699500Y-81087648D01*
X132699500Y-81292351D01*
X132731522Y-81494534D01*
X132794781Y-81689223D01*
X132887715Y-81871613D01*
X133008028Y-82037213D01*
X133152786Y-82181971D01*
X133307749Y-82294556D01*
X133318390Y-82302287D01*
X133434607Y-82361503D01*
X133500776Y-82395218D01*
X133500778Y-82395218D01*
X133500781Y-82395220D01*
X133578656Y-82420523D01*
X133695465Y-82458477D01*
X133796557Y-82474488D01*
X133897648Y-82490500D01*
X133897649Y-82490500D01*
X134102351Y-82490500D01*
X134102352Y-82490500D01*
X134304534Y-82458477D01*
X134499219Y-82395220D01*
X134681610Y-82302287D01*
X134778340Y-82232009D01*
X134847213Y-82181971D01*
X134847215Y-82181968D01*
X134847219Y-82181966D01*
X134991966Y-82037219D01*
X134991968Y-82037215D01*
X134991971Y-82037213D01*
X135076566Y-81920776D01*
X135112287Y-81871610D01*
X135205220Y-81689219D01*
X135268477Y-81494534D01*
X135300500Y-81292352D01*
X135300500Y-81087648D01*
X135268477Y-80885466D01*
X135266434Y-80879179D01*
X135239127Y-80795137D01*
X135205220Y-80690781D01*
X135205218Y-80690778D01*
X135205218Y-80690776D01*
X135148184Y-80578842D01*
X135112287Y-80508390D01*
X135078427Y-80461785D01*
X134991971Y-80342786D01*
X134847213Y-80198028D01*
X134681613Y-80077715D01*
X134681612Y-80077714D01*
X134681610Y-80077713D01*
X134624653Y-80048691D01*
X134499223Y-79984781D01*
X134304534Y-79921522D01*
X134129995Y-79893878D01*
X134102352Y-79889500D01*
X133897648Y-79889500D01*
X133873329Y-79893351D01*
X133695465Y-79921522D01*
X133500776Y-79984781D01*
X133318386Y-80077715D01*
X133152786Y-80198028D01*
X133008028Y-80342786D01*
X132887715Y-80508386D01*
X132794781Y-80690776D01*
X132731522Y-80885465D01*
X132699500Y-81087648D01*
X120280766Y-81087648D01*
X120283865Y-81078555D01*
X120293176Y-81070242D01*
X120297443Y-81062409D01*
X120321772Y-81044713D01*
X120325675Y-81041229D01*
X120327275Y-81040352D01*
X120421610Y-80992287D01*
X120587219Y-80871966D01*
X120731966Y-80727219D01*
X120731968Y-80727215D01*
X120731971Y-80727213D01*
X120839764Y-80578846D01*
X120852287Y-80561610D01*
X120945220Y-80379219D01*
X121008477Y-80184534D01*
X121040500Y-79982352D01*
X121040500Y-79777648D01*
X121008477Y-79575466D01*
X120945220Y-79380781D01*
X120945218Y-79380778D01*
X120945218Y-79380776D01*
X120911503Y-79314607D01*
X120852287Y-79198390D01*
X120844556Y-79187749D01*
X120731971Y-79032786D01*
X120587213Y-78888028D01*
X120421614Y-78767715D01*
X120415006Y-78764348D01*
X120328917Y-78720483D01*
X120278123Y-78672511D01*
X120261328Y-78604690D01*
X120283865Y-78538555D01*
X120328917Y-78499516D01*
X120421610Y-78452287D01*
X120442770Y-78436913D01*
X120587213Y-78331971D01*
X120587215Y-78331968D01*
X120587219Y-78331966D01*
X120731966Y-78187219D01*
X120731968Y-78187215D01*
X120731971Y-78187213D01*
X120784732Y-78114590D01*
X120852287Y-78021610D01*
X120945220Y-77839219D01*
X121008477Y-77644534D01*
X121040500Y-77442352D01*
X121040500Y-77237648D01*
X121008477Y-77035465D01*
X120945218Y-76840776D01*
X120876147Y-76705218D01*
X120852287Y-76658390D01*
X120842206Y-76644514D01*
X120731971Y-76492786D01*
X120587213Y-76348028D01*
X120421614Y-76227715D01*
X120415006Y-76224348D01*
X120328917Y-76180483D01*
X120278123Y-76132511D01*
X120261328Y-76064690D01*
X120283865Y-75998555D01*
X120328917Y-75959516D01*
X120421610Y-75912287D01*
X120442770Y-75896913D01*
X120587213Y-75791971D01*
X120587215Y-75791968D01*
X120587219Y-75791966D01*
X120731966Y-75647219D01*
X120731968Y-75647215D01*
X120731971Y-75647213D01*
X120852284Y-75481614D01*
X120852285Y-75481613D01*
X120852287Y-75481610D01*
X120895068Y-75397648D01*
X124699500Y-75397648D01*
X124699500Y-75602351D01*
X124731522Y-75804534D01*
X124794781Y-75999223D01*
X124846385Y-76100500D01*
X124883320Y-76172989D01*
X124887715Y-76181613D01*
X125008028Y-76347213D01*
X125152786Y-76491971D01*
X125307749Y-76604556D01*
X125318390Y-76612287D01*
X125434607Y-76671503D01*
X125500776Y-76705218D01*
X125500778Y-76705218D01*
X125500781Y-76705220D01*
X125605137Y-76739127D01*
X125695465Y-76768477D01*
X125789318Y-76783342D01*
X125897648Y-76800500D01*
X125897649Y-76800500D01*
X126102351Y-76800500D01*
X126102352Y-76800500D01*
X126304534Y-76768477D01*
X126499219Y-76705220D01*
X126681610Y-76612287D01*
X126774590Y-76544732D01*
X126847213Y-76491971D01*
X126847215Y-76491968D01*
X126847219Y-76491966D01*
X126991966Y-76347219D01*
X126991968Y-76347215D01*
X126991971Y-76347213D01*
X127112284Y-76181614D01*
X127112285Y-76181613D01*
X127112287Y-76181610D01*
X127119117Y-76168204D01*
X127167091Y-76117409D01*
X127229602Y-76100500D01*
X132636872Y-76100500D01*
X132703911Y-76120185D01*
X132749666Y-76172989D01*
X132754802Y-76186179D01*
X132794780Y-76309219D01*
X132880529Y-76477511D01*
X132887715Y-76491613D01*
X133008028Y-76657213D01*
X133152786Y-76801971D01*
X133274729Y-76890566D01*
X133318390Y-76922287D01*
X133434607Y-76981503D01*
X133500776Y-77015218D01*
X133500778Y-77015218D01*
X133500781Y-77015220D01*
X133563089Y-77035465D01*
X133695465Y-77078477D01*
X133796557Y-77094488D01*
X133897648Y-77110500D01*
X133897649Y-77110500D01*
X134102351Y-77110500D01*
X134102352Y-77110500D01*
X134304534Y-77078477D01*
X134499219Y-77015220D01*
X134681610Y-76922287D01*
X134774590Y-76854732D01*
X134847213Y-76801971D01*
X134847215Y-76801968D01*
X134847219Y-76801966D01*
X134991966Y-76657219D01*
X134991968Y-76657215D01*
X134991971Y-76657213D01*
X135112284Y-76491614D01*
X135112285Y-76491613D01*
X135112287Y-76491610D01*
X135119117Y-76478204D01*
X135167091Y-76427409D01*
X135229602Y-76410500D01*
X138243616Y-76410500D01*
X138310655Y-76430185D01*
X138343933Y-76461613D01*
X138355483Y-76477510D01*
X138522490Y-76644517D01*
X138713567Y-76783343D01*
X138747240Y-76800500D01*
X138924003Y-76890566D01*
X138924005Y-76890566D01*
X138924008Y-76890568D01*
X139021629Y-76922287D01*
X139148631Y-76963553D01*
X139381903Y-77000500D01*
X139381908Y-77000500D01*
X139618097Y-77000500D01*
X139851368Y-76963553D01*
X140075992Y-76890568D01*
X140286433Y-76783343D01*
X140477510Y-76644517D01*
X140644517Y-76477510D01*
X140783343Y-76286433D01*
X140843583Y-76168204D01*
X140891558Y-76117409D01*
X140954068Y-76100500D01*
X144545932Y-76100500D01*
X144612971Y-76120185D01*
X144656416Y-76168203D01*
X144716657Y-76286433D01*
X144855483Y-76477510D01*
X145022490Y-76644517D01*
X145213567Y-76783343D01*
X145247240Y-76800500D01*
X145424003Y-76890566D01*
X145424005Y-76890566D01*
X145424008Y-76890568D01*
X145521629Y-76922287D01*
X145648631Y-76963553D01*
X145881903Y-77000500D01*
X145881908Y-77000500D01*
X146118097Y-77000500D01*
X146351368Y-76963553D01*
X146575992Y-76890568D01*
X146786433Y-76783343D01*
X146977510Y-76644517D01*
X147144517Y-76477510D01*
X147283343Y-76286433D01*
X147390568Y-76075992D01*
X147463553Y-75851368D01*
X147470971Y-75804534D01*
X147500500Y-75618097D01*
X147500500Y-75381902D01*
X147463553Y-75148631D01*
X147415513Y-75000781D01*
X147390568Y-74924008D01*
X147390566Y-74924005D01*
X147390566Y-74924003D01*
X147283342Y-74713566D01*
X147144517Y-74522490D01*
X146977510Y-74355483D01*
X146786433Y-74216657D01*
X146575996Y-74109433D01*
X146351368Y-74036446D01*
X146118097Y-73999500D01*
X146118092Y-73999500D01*
X145881908Y-73999500D01*
X145881903Y-73999500D01*
X145648631Y-74036446D01*
X145424003Y-74109433D01*
X145213566Y-74216657D01*
X145106040Y-74294780D01*
X145022490Y-74355483D01*
X145022488Y-74355485D01*
X145022487Y-74355485D01*
X144855485Y-74522487D01*
X144855485Y-74522488D01*
X144855483Y-74522490D01*
X144841655Y-74541523D01*
X144716657Y-74713566D01*
X144684060Y-74777540D01*
X144663250Y-74818385D01*
X144656417Y-74831795D01*
X144608442Y-74882591D01*
X144545932Y-74899500D01*
X140954068Y-74899500D01*
X140887029Y-74879815D01*
X140843583Y-74831795D01*
X140836751Y-74818386D01*
X140783343Y-74713567D01*
X140644517Y-74522490D01*
X140477510Y-74355483D01*
X140286433Y-74216657D01*
X140075996Y-74109433D01*
X139851368Y-74036446D01*
X139618097Y-73999500D01*
X139618092Y-73999500D01*
X139381908Y-73999500D01*
X139381903Y-73999500D01*
X139148631Y-74036446D01*
X138924003Y-74109433D01*
X138713566Y-74216657D01*
X138606040Y-74294780D01*
X138522490Y-74355483D01*
X138522488Y-74355485D01*
X138522487Y-74355485D01*
X138355485Y-74522487D01*
X138355485Y-74522488D01*
X138355483Y-74522490D01*
X138341655Y-74541523D01*
X138216657Y-74713566D01*
X138109433Y-74924003D01*
X138044509Y-75123819D01*
X138005071Y-75181494D01*
X137940712Y-75208692D01*
X137926578Y-75209500D01*
X135229602Y-75209500D01*
X135162563Y-75189815D01*
X135119117Y-75141795D01*
X135112284Y-75128385D01*
X134991971Y-74962786D01*
X134847213Y-74818028D01*
X134681613Y-74697715D01*
X134681612Y-74697714D01*
X134681610Y-74697713D01*
X134593436Y-74652786D01*
X134499223Y-74604781D01*
X134304534Y-74541522D01*
X134129995Y-74513878D01*
X134102352Y-74509500D01*
X133897648Y-74509500D01*
X133873329Y-74513351D01*
X133695465Y-74541522D01*
X133500776Y-74604781D01*
X133318386Y-74697715D01*
X133152786Y-74818028D01*
X133152782Y-74818032D01*
X133107634Y-74863181D01*
X133046311Y-74896666D01*
X133019953Y-74899500D01*
X127229602Y-74899500D01*
X127162563Y-74879815D01*
X127119117Y-74831795D01*
X127112284Y-74818385D01*
X126991971Y-74652786D01*
X126847213Y-74508028D01*
X126681613Y-74387715D01*
X126681612Y-74387714D01*
X126681610Y-74387713D01*
X126618355Y-74355483D01*
X126499223Y-74294781D01*
X126304534Y-74231522D01*
X126129995Y-74203878D01*
X126102352Y-74199500D01*
X125897648Y-74199500D01*
X125873329Y-74203351D01*
X125695465Y-74231522D01*
X125500776Y-74294781D01*
X125318386Y-74387715D01*
X125152786Y-74508028D01*
X125008028Y-74652786D01*
X124887715Y-74818386D01*
X124794781Y-75000776D01*
X124731522Y-75195465D01*
X124699500Y-75397648D01*
X120895068Y-75397648D01*
X120945220Y-75299219D01*
X121008477Y-75104534D01*
X121040500Y-74902352D01*
X121040500Y-74697648D01*
X121008477Y-74495466D01*
X120945220Y-74300781D01*
X120945218Y-74300778D01*
X120945218Y-74300776D01*
X120909931Y-74231522D01*
X120852287Y-74118390D01*
X120844556Y-74107749D01*
X120731971Y-73952786D01*
X120587213Y-73808028D01*
X120421614Y-73687715D01*
X120415006Y-73684348D01*
X120328917Y-73640483D01*
X120278123Y-73592511D01*
X120261328Y-73524690D01*
X120283865Y-73458555D01*
X120328917Y-73419516D01*
X120421610Y-73372287D01*
X120442770Y-73356913D01*
X120587213Y-73251971D01*
X120587215Y-73251968D01*
X120587219Y-73251966D01*
X120731966Y-73107219D01*
X120731968Y-73107215D01*
X120731971Y-73107213D01*
X120784732Y-73034590D01*
X120852287Y-72941610D01*
X120945220Y-72759219D01*
X121008477Y-72564534D01*
X121040500Y-72362352D01*
X121040500Y-72157648D01*
X121008477Y-71955466D01*
X120945220Y-71760781D01*
X120945218Y-71760778D01*
X120945218Y-71760776D01*
X120857443Y-71588510D01*
X120857442Y-71588508D01*
X120852284Y-71578385D01*
X120731971Y-71412786D01*
X120587213Y-71268028D01*
X120421614Y-71147715D01*
X120363397Y-71118052D01*
X120328917Y-71100483D01*
X120278123Y-71052511D01*
X120261328Y-70984690D01*
X120283865Y-70918555D01*
X120328917Y-70879516D01*
X120421610Y-70832287D01*
X120482968Y-70787708D01*
X120587213Y-70711971D01*
X120587215Y-70711968D01*
X120587219Y-70711966D01*
X120731966Y-70567219D01*
X120731968Y-70567215D01*
X120731971Y-70567213D01*
X120852286Y-70401611D01*
X120854288Y-70397682D01*
X124700000Y-70397682D01*
X124700000Y-70602317D01*
X124732009Y-70804417D01*
X124795244Y-70999031D01*
X124888141Y-71181350D01*
X124888147Y-71181359D01*
X124920523Y-71225921D01*
X124920524Y-71225922D01*
X125600000Y-70546446D01*
X125600000Y-70552661D01*
X125627259Y-70654394D01*
X125679920Y-70745606D01*
X125754394Y-70820080D01*
X125845606Y-70872741D01*
X125947339Y-70900000D01*
X125953553Y-70900000D01*
X125274076Y-71579474D01*
X125318650Y-71611859D01*
X125500968Y-71704755D01*
X125695582Y-71767990D01*
X125897683Y-71800000D01*
X126102317Y-71800000D01*
X126304417Y-71767990D01*
X126499031Y-71704755D01*
X126681349Y-71611859D01*
X126725921Y-71579474D01*
X126046447Y-70900000D01*
X126052661Y-70900000D01*
X126154394Y-70872741D01*
X126245606Y-70820080D01*
X126320080Y-70745606D01*
X126372741Y-70654394D01*
X126400000Y-70552661D01*
X126400000Y-70546448D01*
X127079474Y-71225922D01*
X127079474Y-71225921D01*
X127111859Y-71181349D01*
X127204755Y-70999031D01*
X127242799Y-70881947D01*
X138000000Y-70881947D01*
X138000000Y-71118052D01*
X138036934Y-71351247D01*
X138109897Y-71575802D01*
X138217087Y-71786174D01*
X138277338Y-71869104D01*
X138277340Y-71869105D01*
X138976212Y-71170233D01*
X138987482Y-71212292D01*
X139059890Y-71337708D01*
X139162292Y-71440110D01*
X139287708Y-71512518D01*
X139329765Y-71523787D01*
X138630893Y-72222658D01*
X138713828Y-72282914D01*
X138924197Y-72390102D01*
X139148752Y-72463065D01*
X139148751Y-72463065D01*
X139381948Y-72500000D01*
X139618052Y-72500000D01*
X139851247Y-72463065D01*
X140075802Y-72390102D01*
X140286163Y-72282918D01*
X140286169Y-72282914D01*
X140369104Y-72222658D01*
X140369105Y-72222658D01*
X139670233Y-71523787D01*
X139712292Y-71512518D01*
X139837708Y-71440110D01*
X139940110Y-71337708D01*
X140012518Y-71212292D01*
X140023787Y-71170234D01*
X140722658Y-71869105D01*
X140722658Y-71869104D01*
X140782914Y-71786169D01*
X140782918Y-71786163D01*
X140890102Y-71575802D01*
X140963065Y-71351247D01*
X141000000Y-71118052D01*
X141000000Y-70881947D01*
X144500000Y-70881947D01*
X144500000Y-71118052D01*
X144536934Y-71351247D01*
X144609897Y-71575802D01*
X144717087Y-71786174D01*
X144777338Y-71869104D01*
X144777340Y-71869105D01*
X145476212Y-71170233D01*
X145487482Y-71212292D01*
X145559890Y-71337708D01*
X145662292Y-71440110D01*
X145787708Y-71512518D01*
X145829765Y-71523787D01*
X145130893Y-72222658D01*
X145213828Y-72282914D01*
X145424197Y-72390102D01*
X145648752Y-72463065D01*
X145648751Y-72463065D01*
X145881948Y-72500000D01*
X146118052Y-72500000D01*
X146351247Y-72463065D01*
X146575802Y-72390102D01*
X146786163Y-72282918D01*
X146786169Y-72282914D01*
X146869104Y-72222658D01*
X146869105Y-72222658D01*
X146170233Y-71523787D01*
X146212292Y-71512518D01*
X146337708Y-71440110D01*
X146440110Y-71337708D01*
X146512518Y-71212292D01*
X146523787Y-71170234D01*
X147222658Y-71869105D01*
X147222658Y-71869104D01*
X147282914Y-71786169D01*
X147282918Y-71786163D01*
X147390102Y-71575802D01*
X147463065Y-71351247D01*
X147500000Y-71118052D01*
X147500000Y-70881947D01*
X147463065Y-70648752D01*
X147390102Y-70424197D01*
X147282914Y-70213828D01*
X147222658Y-70130894D01*
X147222658Y-70130893D01*
X146523787Y-70829765D01*
X146512518Y-70787708D01*
X146440110Y-70662292D01*
X146337708Y-70559890D01*
X146212292Y-70487482D01*
X146170234Y-70476212D01*
X146869105Y-69777340D01*
X146869104Y-69777338D01*
X146786174Y-69717087D01*
X146575802Y-69609897D01*
X146351247Y-69536934D01*
X146351248Y-69536934D01*
X146118052Y-69500000D01*
X145881948Y-69500000D01*
X145648752Y-69536934D01*
X145424197Y-69609897D01*
X145213830Y-69717084D01*
X145130894Y-69777340D01*
X145829766Y-70476212D01*
X145787708Y-70487482D01*
X145662292Y-70559890D01*
X145559890Y-70662292D01*
X145487482Y-70787708D01*
X145476212Y-70829766D01*
X144777340Y-70130894D01*
X144717084Y-70213830D01*
X144609897Y-70424197D01*
X144536934Y-70648752D01*
X144500000Y-70881947D01*
X141000000Y-70881947D01*
X140963065Y-70648752D01*
X140890102Y-70424197D01*
X140782914Y-70213828D01*
X140722658Y-70130894D01*
X140722658Y-70130893D01*
X140023787Y-70829765D01*
X140012518Y-70787708D01*
X139940110Y-70662292D01*
X139837708Y-70559890D01*
X139712292Y-70487482D01*
X139670234Y-70476212D01*
X140369105Y-69777340D01*
X140369104Y-69777339D01*
X140286174Y-69717087D01*
X140075802Y-69609897D01*
X139851247Y-69536934D01*
X139851248Y-69536934D01*
X139618052Y-69500000D01*
X139381948Y-69500000D01*
X139148752Y-69536934D01*
X138924197Y-69609897D01*
X138713830Y-69717084D01*
X138630894Y-69777340D01*
X139329766Y-70476212D01*
X139287708Y-70487482D01*
X139162292Y-70559890D01*
X139059890Y-70662292D01*
X138987482Y-70787708D01*
X138976212Y-70829766D01*
X138277340Y-70130894D01*
X138217084Y-70213830D01*
X138109897Y-70424197D01*
X138036934Y-70648752D01*
X138000000Y-70881947D01*
X127242799Y-70881947D01*
X127256833Y-70838756D01*
X127256833Y-70838755D01*
X127267989Y-70804421D01*
X127267989Y-70804418D01*
X127300000Y-70602317D01*
X127300000Y-70397682D01*
X127267990Y-70195582D01*
X127204755Y-70000968D01*
X127143574Y-69880894D01*
X127111859Y-69818650D01*
X127079474Y-69774077D01*
X127079474Y-69774076D01*
X126400000Y-70453551D01*
X126400000Y-70447339D01*
X126372741Y-70345606D01*
X126320080Y-70254394D01*
X126245606Y-70179920D01*
X126154394Y-70127259D01*
X126052661Y-70100000D01*
X126046446Y-70100000D01*
X126725922Y-69420524D01*
X126725921Y-69420523D01*
X126681359Y-69388147D01*
X126681350Y-69388141D01*
X126499031Y-69295244D01*
X126304417Y-69232009D01*
X126102317Y-69200000D01*
X125897683Y-69200000D01*
X125695582Y-69232009D01*
X125500968Y-69295244D01*
X125318644Y-69388143D01*
X125274077Y-69420523D01*
X125274077Y-69420524D01*
X125953554Y-70100000D01*
X125947339Y-70100000D01*
X125845606Y-70127259D01*
X125754394Y-70179920D01*
X125679920Y-70254394D01*
X125627259Y-70345606D01*
X125600000Y-70447339D01*
X125600000Y-70453553D01*
X124920524Y-69774077D01*
X124920523Y-69774077D01*
X124888143Y-69818644D01*
X124795244Y-70000968D01*
X124732009Y-70195582D01*
X124700000Y-70397682D01*
X120854288Y-70397682D01*
X120885453Y-70336520D01*
X120927297Y-70254394D01*
X120945220Y-70219219D01*
X121008477Y-70024534D01*
X121040500Y-69822352D01*
X121040500Y-69617648D01*
X121021866Y-69500000D01*
X121019836Y-69487181D01*
X121008477Y-69415465D01*
X120945218Y-69220776D01*
X120911503Y-69154607D01*
X120852287Y-69038390D01*
X120844556Y-69027749D01*
X120731971Y-68872786D01*
X120587213Y-68728028D01*
X120421614Y-68607715D01*
X120415006Y-68604348D01*
X120328917Y-68560483D01*
X120278123Y-68512511D01*
X120261328Y-68444690D01*
X120283865Y-68378555D01*
X120328917Y-68339516D01*
X120421610Y-68292287D01*
X120442770Y-68276913D01*
X120587213Y-68171971D01*
X120587215Y-68171968D01*
X120587219Y-68171966D01*
X120671537Y-68087648D01*
X132699500Y-68087648D01*
X132699500Y-68292351D01*
X132731522Y-68494534D01*
X132794781Y-68689223D01*
X132887715Y-68871613D01*
X133008028Y-69037213D01*
X133152786Y-69181971D01*
X133307749Y-69294556D01*
X133318390Y-69302287D01*
X133434607Y-69361503D01*
X133500776Y-69395218D01*
X133500778Y-69395218D01*
X133500781Y-69395220D01*
X133563089Y-69415465D01*
X133695465Y-69458477D01*
X133796557Y-69474488D01*
X133897648Y-69490500D01*
X133897649Y-69490500D01*
X134102351Y-69490500D01*
X134102352Y-69490500D01*
X134304534Y-69458477D01*
X134499219Y-69395220D01*
X134681610Y-69302287D01*
X134778340Y-69232009D01*
X134847213Y-69181971D01*
X134847215Y-69181968D01*
X134847219Y-69181966D01*
X134991966Y-69037219D01*
X134991968Y-69037215D01*
X134991971Y-69037213D01*
X135044732Y-68964590D01*
X135112287Y-68871610D01*
X135205220Y-68689219D01*
X135268477Y-68494534D01*
X135300500Y-68292352D01*
X135300500Y-68087648D01*
X135290928Y-68027213D01*
X135268477Y-67885465D01*
X135205218Y-67690776D01*
X135171503Y-67624607D01*
X135112287Y-67508390D01*
X135094955Y-67484534D01*
X134991971Y-67342786D01*
X134847213Y-67198028D01*
X134681613Y-67077715D01*
X134681612Y-67077714D01*
X134681610Y-67077713D01*
X134624653Y-67048691D01*
X134499223Y-66984781D01*
X134304534Y-66921522D01*
X134129995Y-66893878D01*
X134102352Y-66889500D01*
X133897648Y-66889500D01*
X133873329Y-66893351D01*
X133695465Y-66921522D01*
X133500776Y-66984781D01*
X133318386Y-67077715D01*
X133152786Y-67198028D01*
X133008028Y-67342786D01*
X132887715Y-67508386D01*
X132794781Y-67690776D01*
X132731522Y-67885465D01*
X132699500Y-68087648D01*
X120671537Y-68087648D01*
X120731966Y-68027219D01*
X120852287Y-67861610D01*
X120945220Y-67679219D01*
X121008477Y-67484534D01*
X121040500Y-67282352D01*
X121040500Y-67077648D01*
X121008477Y-66875466D01*
X120945220Y-66680781D01*
X120945218Y-66680778D01*
X120945218Y-66680776D01*
X120911503Y-66614607D01*
X120852287Y-66498390D01*
X120844556Y-66487749D01*
X120731971Y-66332786D01*
X120587213Y-66188028D01*
X120421614Y-66067715D01*
X120415006Y-66064348D01*
X120328917Y-66020483D01*
X120278123Y-65972511D01*
X120261328Y-65904690D01*
X120283865Y-65838555D01*
X120328917Y-65799516D01*
X120421610Y-65752287D01*
X120442770Y-65736913D01*
X120587213Y-65631971D01*
X120587215Y-65631968D01*
X120587219Y-65631966D01*
X120731966Y-65487219D01*
X120731968Y-65487215D01*
X120731971Y-65487213D01*
X120852284Y-65321614D01*
X120852285Y-65321613D01*
X120852287Y-65321610D01*
X120859117Y-65308204D01*
X120907091Y-65257409D01*
X120969602Y-65240500D01*
X122653331Y-65240500D01*
X122653347Y-65240501D01*
X122660943Y-65240501D01*
X122819054Y-65240501D01*
X122819057Y-65240501D01*
X122971785Y-65199577D01*
X123021904Y-65170639D01*
X123108716Y-65120520D01*
X123220520Y-65008716D01*
X123220520Y-65008714D01*
X123230728Y-64998507D01*
X123230729Y-64998504D01*
X124935159Y-63294075D01*
X124996480Y-63260592D01*
X125061154Y-63263826D01*
X125075466Y-63268477D01*
X125277648Y-63300500D01*
X125277649Y-63300500D01*
X125482351Y-63300500D01*
X125482352Y-63300500D01*
X125684534Y-63268477D01*
X125879219Y-63205220D01*
X126061610Y-63112287D01*
X126206005Y-63007379D01*
X126227213Y-62991971D01*
X126227215Y-62991968D01*
X126227219Y-62991966D01*
X126371966Y-62847219D01*
X126371968Y-62847215D01*
X126371971Y-62847213D01*
X126454207Y-62734023D01*
X126492287Y-62681610D01*
X126585220Y-62499219D01*
X126648477Y-62304534D01*
X126680500Y-62102352D01*
X126680500Y-61897648D01*
X131699500Y-61897648D01*
X131699500Y-62102351D01*
X131731522Y-62304534D01*
X131794781Y-62499223D01*
X131846385Y-62600500D01*
X131880882Y-62668204D01*
X131887715Y-62681613D01*
X132008028Y-62847213D01*
X132152786Y-62991971D01*
X132307749Y-63104556D01*
X132318390Y-63112287D01*
X132434607Y-63171503D01*
X132500776Y-63205218D01*
X132500778Y-63205218D01*
X132500781Y-63205220D01*
X132605137Y-63239127D01*
X132695465Y-63268477D01*
X132796557Y-63284488D01*
X132897648Y-63300500D01*
X132897649Y-63300500D01*
X133102351Y-63300500D01*
X133102352Y-63300500D01*
X133304534Y-63268477D01*
X133499219Y-63205220D01*
X133681610Y-63112287D01*
X133826005Y-63007379D01*
X133847213Y-62991971D01*
X133847215Y-62991968D01*
X133847219Y-62991966D01*
X133991966Y-62847219D01*
X133991968Y-62847215D01*
X133991971Y-62847213D01*
X134112284Y-62681614D01*
X134112285Y-62681613D01*
X134112287Y-62681610D01*
X134119117Y-62668204D01*
X134167091Y-62617409D01*
X134229602Y-62600500D01*
X139118164Y-62600500D01*
X139185203Y-62620185D01*
X139228648Y-62668204D01*
X139262185Y-62734023D01*
X139391752Y-62912358D01*
X139391756Y-62912363D01*
X139547636Y-63068243D01*
X139547641Y-63068247D01*
X139703192Y-63181260D01*
X139725978Y-63197815D01*
X139842501Y-63257187D01*
X139922393Y-63297895D01*
X139922396Y-63297896D01*
X140027221Y-63331955D01*
X140132049Y-63366015D01*
X140349778Y-63400500D01*
X140349779Y-63400500D01*
X140570221Y-63400500D01*
X140570222Y-63400500D01*
X140787951Y-63366015D01*
X140997606Y-63297895D01*
X141194022Y-63197815D01*
X141372365Y-63068242D01*
X141422924Y-63017682D01*
X141484245Y-62984198D01*
X141553936Y-62989182D01*
X141609870Y-63031053D01*
X141626786Y-63062030D01*
X141656646Y-63142087D01*
X141656649Y-63142093D01*
X141742809Y-63257187D01*
X141742812Y-63257190D01*
X141857906Y-63343350D01*
X141857913Y-63343354D01*
X141992620Y-63393596D01*
X141992627Y-63393598D01*
X142052155Y-63399999D01*
X142052172Y-63400000D01*
X142750000Y-63400000D01*
X142750000Y-62375277D01*
X142826306Y-62419333D01*
X142940756Y-62450000D01*
X143059244Y-62450000D01*
X143173694Y-62419333D01*
X143250000Y-62375277D01*
X143250000Y-63400000D01*
X143947828Y-63400000D01*
X143947844Y-63399999D01*
X144007372Y-63393598D01*
X144007379Y-63393596D01*
X144142086Y-63343354D01*
X144142093Y-63343350D01*
X144257187Y-63257190D01*
X144257190Y-63257187D01*
X144343350Y-63142093D01*
X144343354Y-63142086D01*
X144393596Y-63007379D01*
X144393598Y-63007372D01*
X144399999Y-62947844D01*
X144400000Y-62947827D01*
X144400000Y-62250000D01*
X143375278Y-62250000D01*
X143419333Y-62173694D01*
X143450000Y-62059244D01*
X143450000Y-61940756D01*
X143419333Y-61826306D01*
X143375278Y-61750000D01*
X144400000Y-61750000D01*
X144400000Y-61052172D01*
X144399999Y-61052155D01*
X144393598Y-60992627D01*
X144393596Y-60992620D01*
X144343354Y-60857913D01*
X144343350Y-60857906D01*
X144257190Y-60742812D01*
X144257187Y-60742809D01*
X144142093Y-60656649D01*
X144142086Y-60656645D01*
X144007379Y-60606403D01*
X144007372Y-60606401D01*
X143947844Y-60600000D01*
X143250000Y-60600000D01*
X143250000Y-61624722D01*
X143173694Y-61580667D01*
X143059244Y-61550000D01*
X142940756Y-61550000D01*
X142826306Y-61580667D01*
X142750000Y-61624722D01*
X142750000Y-60600000D01*
X142052155Y-60600000D01*
X141992627Y-60606401D01*
X141992620Y-60606403D01*
X141857913Y-60656645D01*
X141857906Y-60656649D01*
X141742812Y-60742809D01*
X141742809Y-60742812D01*
X141656649Y-60857906D01*
X141656643Y-60857918D01*
X141626785Y-60937969D01*
X141584914Y-60993903D01*
X141519449Y-61018319D01*
X141451176Y-61003467D01*
X141422923Y-60982316D01*
X141372363Y-60931756D01*
X141372358Y-60931752D01*
X141194025Y-60802187D01*
X141194024Y-60802186D01*
X141194022Y-60802185D01*
X141131096Y-60770122D01*
X140997606Y-60702104D01*
X140997603Y-60702103D01*
X140787952Y-60633985D01*
X140679086Y-60616742D01*
X140570222Y-60599500D01*
X140349778Y-60599500D01*
X140277201Y-60610995D01*
X140132047Y-60633985D01*
X139922396Y-60702103D01*
X139922393Y-60702104D01*
X139725974Y-60802187D01*
X139547641Y-60931752D01*
X139547636Y-60931756D01*
X139391756Y-61087636D01*
X139391752Y-61087641D01*
X139262185Y-61265976D01*
X139228648Y-61331796D01*
X139180674Y-61382591D01*
X139118164Y-61399500D01*
X134229602Y-61399500D01*
X134162563Y-61379815D01*
X134119117Y-61331795D01*
X134112284Y-61318385D01*
X133991971Y-61152786D01*
X133847213Y-61008028D01*
X133681613Y-60887715D01*
X133681612Y-60887714D01*
X133681610Y-60887713D01*
X133623111Y-60857906D01*
X133499223Y-60794781D01*
X133304534Y-60731522D01*
X133118799Y-60702105D01*
X133102352Y-60699500D01*
X132897648Y-60699500D01*
X132881201Y-60702105D01*
X132695465Y-60731522D01*
X132500776Y-60794781D01*
X132318386Y-60887715D01*
X132152786Y-61008028D01*
X132008028Y-61152786D01*
X131887715Y-61318386D01*
X131794781Y-61500776D01*
X131731522Y-61695465D01*
X131699500Y-61897648D01*
X126680500Y-61897648D01*
X126648477Y-61695465D01*
X126619127Y-61605137D01*
X126585220Y-61500781D01*
X126585218Y-61500778D01*
X126585218Y-61500776D01*
X126548733Y-61429171D01*
X126492287Y-61318390D01*
X126472161Y-61290689D01*
X126371971Y-61152786D01*
X126227213Y-61008028D01*
X126061613Y-60887715D01*
X126061612Y-60887714D01*
X126061610Y-60887713D01*
X126003111Y-60857906D01*
X125879223Y-60794781D01*
X125684534Y-60731522D01*
X125498799Y-60702105D01*
X125482352Y-60699500D01*
X125277648Y-60699500D01*
X125261201Y-60702105D01*
X125075465Y-60731522D01*
X124880776Y-60794781D01*
X124698386Y-60887715D01*
X124532786Y-61008028D01*
X124388028Y-61152786D01*
X124267715Y-61318386D01*
X124174781Y-61500776D01*
X124111522Y-61695465D01*
X124079500Y-61897648D01*
X124079500Y-62102351D01*
X124111523Y-62304535D01*
X124116172Y-62318845D01*
X124118165Y-62388687D01*
X124085921Y-62444841D01*
X122527584Y-64003181D01*
X122466261Y-64036666D01*
X122439903Y-64039500D01*
X120969602Y-64039500D01*
X120902563Y-64019815D01*
X120859117Y-63971795D01*
X120852284Y-63958385D01*
X120731971Y-63792786D01*
X120587213Y-63648028D01*
X120421613Y-63527715D01*
X120421612Y-63527714D01*
X120421610Y-63527713D01*
X120364653Y-63498691D01*
X120239223Y-63434781D01*
X120044534Y-63371522D01*
X119866685Y-63343354D01*
X119842352Y-63339500D01*
X119637648Y-63339500D01*
X119613340Y-63343350D01*
X119435465Y-63371522D01*
X119240776Y-63434781D01*
X119058386Y-63527715D01*
X118892786Y-63648028D01*
X118748028Y-63792786D01*
X118627715Y-63958386D01*
X118534781Y-64140776D01*
X118471522Y-64335465D01*
X118439500Y-64537648D01*
X118439500Y-64742351D01*
X118471522Y-64944534D01*
X118534781Y-65139223D01*
X118627715Y-65321613D01*
X118748028Y-65487213D01*
X118892786Y-65631971D01*
X119047749Y-65744556D01*
X119058390Y-65752287D01*
X119149840Y-65798883D01*
X119151080Y-65799515D01*
X119201876Y-65847490D01*
X119218671Y-65915311D01*
X119196134Y-65981446D01*
X119151080Y-66020485D01*
X119058386Y-66067715D01*
X118892786Y-66188028D01*
X118748028Y-66332786D01*
X118627715Y-66498386D01*
X118534781Y-66680776D01*
X118471522Y-66875465D01*
X118439500Y-67077648D01*
X118439500Y-67282351D01*
X118471522Y-67484534D01*
X118534781Y-67679223D01*
X118627715Y-67861613D01*
X118748028Y-68027213D01*
X118892786Y-68171971D01*
X119047749Y-68284556D01*
X119058390Y-68292287D01*
X119149840Y-68338883D01*
X119151080Y-68339515D01*
X119201876Y-68387490D01*
X119218671Y-68455311D01*
X119196134Y-68521446D01*
X119151080Y-68560485D01*
X119058386Y-68607715D01*
X118892786Y-68728028D01*
X118748028Y-68872786D01*
X118627715Y-69038386D01*
X118534781Y-69220776D01*
X118471522Y-69415465D01*
X118439500Y-69617648D01*
X118439500Y-69822351D01*
X118471522Y-70024534D01*
X118534781Y-70219223D01*
X118594548Y-70336520D01*
X118599177Y-70345606D01*
X118627715Y-70401613D01*
X118748028Y-70567213D01*
X118892786Y-70711971D01*
X119020030Y-70804417D01*
X119058390Y-70832287D01*
X119149840Y-70878883D01*
X119151080Y-70879515D01*
X119201876Y-70927490D01*
X119218671Y-70995311D01*
X119196134Y-71061446D01*
X119151080Y-71100485D01*
X119058386Y-71147715D01*
X118892786Y-71268028D01*
X118748028Y-71412786D01*
X118627715Y-71578386D01*
X118534781Y-71760776D01*
X118471522Y-71955465D01*
X118439500Y-72157648D01*
X118439500Y-72362351D01*
X118471522Y-72564534D01*
X118534781Y-72759223D01*
X118627715Y-72941613D01*
X118748028Y-73107213D01*
X118892786Y-73251971D01*
X119047749Y-73364556D01*
X119058390Y-73372287D01*
X119149840Y-73418883D01*
X119151080Y-73419515D01*
X119201876Y-73467490D01*
X119218671Y-73535311D01*
X119196134Y-73601446D01*
X119151080Y-73640485D01*
X119058386Y-73687715D01*
X118892786Y-73808028D01*
X118748028Y-73952786D01*
X118627715Y-74118386D01*
X118534781Y-74300776D01*
X118471522Y-74495465D01*
X118439500Y-74697648D01*
X118439500Y-74902351D01*
X118471522Y-75104534D01*
X118534781Y-75299223D01*
X118627715Y-75481613D01*
X118748028Y-75647213D01*
X118892786Y-75791971D01*
X119047749Y-75904556D01*
X119058390Y-75912287D01*
X119149840Y-75958883D01*
X119151080Y-75959515D01*
X119201876Y-76007490D01*
X119218671Y-76075311D01*
X119196134Y-76141446D01*
X119151080Y-76180485D01*
X119058386Y-76227715D01*
X118892786Y-76348028D01*
X118748028Y-76492786D01*
X118627715Y-76658386D01*
X118534781Y-76840776D01*
X118471522Y-77035465D01*
X118439500Y-77237648D01*
X118439500Y-77442351D01*
X118471522Y-77644534D01*
X118534781Y-77839223D01*
X118627715Y-78021613D01*
X118748028Y-78187213D01*
X118892786Y-78331971D01*
X119047749Y-78444556D01*
X119058390Y-78452287D01*
X119149840Y-78498883D01*
X119151080Y-78499515D01*
X119201876Y-78547490D01*
X119218671Y-78615311D01*
X119196134Y-78681446D01*
X119151080Y-78720485D01*
X119058386Y-78767715D01*
X118892786Y-78888028D01*
X118748028Y-79032786D01*
X118627715Y-79198386D01*
X118534781Y-79380776D01*
X118471522Y-79575465D01*
X118439500Y-79777648D01*
X118439500Y-79982351D01*
X118471522Y-80184534D01*
X118534781Y-80379223D01*
X118587847Y-80483369D01*
X118619439Y-80545372D01*
X118627715Y-80561613D01*
X118748028Y-80727213D01*
X118892786Y-80871971D01*
X119038454Y-80977803D01*
X119058390Y-80992287D01*
X119135503Y-81031578D01*
X119151080Y-81039515D01*
X119201876Y-81087490D01*
X119218671Y-81155311D01*
X119196134Y-81221446D01*
X119151080Y-81260485D01*
X119058386Y-81307715D01*
X118892786Y-81428028D01*
X118748028Y-81572786D01*
X118627715Y-81738386D01*
X118534781Y-81920776D01*
X118471522Y-82115465D01*
X118439500Y-82317648D01*
X118439500Y-82522351D01*
X118471522Y-82724534D01*
X118534781Y-82919223D01*
X118627715Y-83101613D01*
X118748028Y-83267213D01*
X118892786Y-83411971D01*
X119047749Y-83524556D01*
X119058390Y-83532287D01*
X119149840Y-83578883D01*
X119151080Y-83579515D01*
X119201876Y-83627490D01*
X119218671Y-83695311D01*
X119196134Y-83761446D01*
X119151080Y-83800485D01*
X119058386Y-83847715D01*
X118892786Y-83968028D01*
X118748028Y-84112786D01*
X118627715Y-84278386D01*
X118534781Y-84460776D01*
X118471522Y-84655465D01*
X118439500Y-84857648D01*
X118439500Y-85062351D01*
X118471522Y-85264534D01*
X118534781Y-85459223D01*
X118627715Y-85641613D01*
X118748028Y-85807213D01*
X118892786Y-85951971D01*
X119040895Y-86059576D01*
X119058390Y-86072287D01*
X119135503Y-86111578D01*
X119151080Y-86119515D01*
X119201876Y-86167490D01*
X119218671Y-86235311D01*
X119196134Y-86301446D01*
X119151080Y-86340485D01*
X119058386Y-86387715D01*
X118892786Y-86508028D01*
X118748028Y-86652786D01*
X118627715Y-86818386D01*
X118534781Y-87000776D01*
X118471522Y-87195465D01*
X118439500Y-87397648D01*
X118439500Y-87602351D01*
X118471522Y-87804534D01*
X118534781Y-87999223D01*
X118586385Y-88100500D01*
X118623320Y-88172989D01*
X118627715Y-88181613D01*
X118748028Y-88347213D01*
X118892786Y-88491971D01*
X119047749Y-88604556D01*
X119058390Y-88612287D01*
X119149840Y-88658883D01*
X119151080Y-88659515D01*
X119201876Y-88707490D01*
X119218671Y-88775311D01*
X119196134Y-88841446D01*
X119151080Y-88880485D01*
X119058386Y-88927715D01*
X118892786Y-89048028D01*
X118748028Y-89192786D01*
X118627715Y-89358386D01*
X118534783Y-89540774D01*
X118534782Y-89540777D01*
X118534780Y-89540781D01*
X118512398Y-89609665D01*
X118471522Y-89735465D01*
X118439500Y-89937648D01*
X118439500Y-90142351D01*
X118471522Y-90344534D01*
X118534781Y-90539223D01*
X118627713Y-90721610D01*
X118651692Y-90754614D01*
X118675172Y-90820421D01*
X118659347Y-90888475D01*
X118609241Y-90937170D01*
X118551374Y-90951500D01*
X105688626Y-90951500D01*
X105621587Y-90931815D01*
X105575832Y-90879011D01*
X105565888Y-90809853D01*
X105588308Y-90754614D01*
X105592982Y-90748181D01*
X105612287Y-90721610D01*
X105705220Y-90539219D01*
X105768477Y-90344534D01*
X105800500Y-90142352D01*
X105800500Y-89937648D01*
X105768477Y-89735466D01*
X105765892Y-89727511D01*
X105743051Y-89657213D01*
X105705220Y-89540781D01*
X105705217Y-89540777D01*
X105705217Y-89540774D01*
X105638838Y-89410500D01*
X105612287Y-89358390D01*
X105576564Y-89309221D01*
X105491971Y-89192786D01*
X105347213Y-89048028D01*
X105181614Y-88927715D01*
X105175006Y-88924348D01*
X105088917Y-88880483D01*
X105038123Y-88832511D01*
X105021328Y-88764690D01*
X105043865Y-88698555D01*
X105088917Y-88659516D01*
X105181610Y-88612287D01*
X105202770Y-88596913D01*
X105347213Y-88491971D01*
X105347215Y-88491968D01*
X105347219Y-88491966D01*
X105491966Y-88347219D01*
X105491968Y-88347215D01*
X105491971Y-88347213D01*
X105567032Y-88243898D01*
X105612287Y-88181610D01*
X105705220Y-87999219D01*
X105768477Y-87804534D01*
X105800500Y-87602352D01*
X105800500Y-87397648D01*
X105774993Y-87236607D01*
X105768477Y-87195465D01*
X105711296Y-87019481D01*
X105705220Y-87000781D01*
X105705218Y-87000778D01*
X105705218Y-87000776D01*
X105671503Y-86934607D01*
X105612287Y-86818390D01*
X105604556Y-86807749D01*
X105491971Y-86652786D01*
X105347213Y-86508028D01*
X105181614Y-86387715D01*
X105175006Y-86384348D01*
X105088917Y-86340483D01*
X105038123Y-86292511D01*
X105021328Y-86224690D01*
X105043865Y-86158555D01*
X105088917Y-86119516D01*
X105181610Y-86072287D01*
X105202770Y-86056913D01*
X105347213Y-85951971D01*
X105347215Y-85951968D01*
X105347219Y-85951966D01*
X105491966Y-85807219D01*
X105491968Y-85807215D01*
X105491971Y-85807213D01*
X105563042Y-85709390D01*
X105612287Y-85641610D01*
X105705220Y-85459219D01*
X105768477Y-85264534D01*
X105800500Y-85062352D01*
X105800500Y-84857648D01*
X105776187Y-84704142D01*
X105768477Y-84655465D01*
X105714620Y-84489711D01*
X105705220Y-84460781D01*
X105705218Y-84460778D01*
X105705218Y-84460776D01*
X105657972Y-84368052D01*
X105612287Y-84278390D01*
X105604556Y-84267749D01*
X105491971Y-84112786D01*
X105347213Y-83968028D01*
X105181614Y-83847715D01*
X105107378Y-83809890D01*
X105088917Y-83800483D01*
X105038123Y-83752511D01*
X105021328Y-83684690D01*
X105043865Y-83618555D01*
X105088917Y-83579516D01*
X105181610Y-83532287D01*
X105226051Y-83499999D01*
X105347213Y-83411971D01*
X105347215Y-83411968D01*
X105347219Y-83411966D01*
X105491966Y-83267219D01*
X105491968Y-83267215D01*
X105491971Y-83267213D01*
X105579712Y-83146446D01*
X105612287Y-83101610D01*
X105705220Y-82919219D01*
X105768477Y-82724534D01*
X105800500Y-82522352D01*
X105800500Y-82317648D01*
X105798067Y-82302284D01*
X105768477Y-82115465D01*
X105705218Y-81920776D01*
X105671503Y-81854607D01*
X105612287Y-81738390D01*
X105604556Y-81727749D01*
X105491971Y-81572786D01*
X105347213Y-81428028D01*
X105181614Y-81307715D01*
X105151460Y-81292351D01*
X105088917Y-81260483D01*
X105038123Y-81212511D01*
X105021328Y-81144690D01*
X105043865Y-81078555D01*
X105088917Y-81039516D01*
X105181610Y-80992287D01*
X105328638Y-80885466D01*
X105347213Y-80871971D01*
X105347215Y-80871968D01*
X105347219Y-80871966D01*
X105491966Y-80727219D01*
X105491968Y-80727215D01*
X105491971Y-80727213D01*
X105599764Y-80578846D01*
X105612287Y-80561610D01*
X105705220Y-80379219D01*
X105768477Y-80184534D01*
X105800500Y-79982352D01*
X105800500Y-79777648D01*
X105768477Y-79575466D01*
X105705220Y-79380781D01*
X105705218Y-79380778D01*
X105705218Y-79380776D01*
X105671503Y-79314607D01*
X105612287Y-79198390D01*
X105604556Y-79187749D01*
X105491971Y-79032786D01*
X105347213Y-78888028D01*
X105181614Y-78767715D01*
X105175006Y-78764348D01*
X105088917Y-78720483D01*
X105038123Y-78672511D01*
X105021328Y-78604690D01*
X105043865Y-78538555D01*
X105088917Y-78499516D01*
X105181610Y-78452287D01*
X105202770Y-78436913D01*
X105347213Y-78331971D01*
X105347215Y-78331968D01*
X105347219Y-78331966D01*
X105491966Y-78187219D01*
X105491968Y-78187215D01*
X105491971Y-78187213D01*
X105544732Y-78114590D01*
X105612287Y-78021610D01*
X105705220Y-77839219D01*
X105768477Y-77644534D01*
X105800500Y-77442352D01*
X105800500Y-77237648D01*
X105768477Y-77035465D01*
X105705218Y-76840776D01*
X105636147Y-76705218D01*
X105612287Y-76658390D01*
X105602206Y-76644514D01*
X105491971Y-76492786D01*
X105347213Y-76348028D01*
X105181614Y-76227715D01*
X105175006Y-76224348D01*
X105088917Y-76180483D01*
X105038123Y-76132511D01*
X105021328Y-76064690D01*
X105043865Y-75998555D01*
X105088917Y-75959516D01*
X105181610Y-75912287D01*
X105202770Y-75896913D01*
X105347213Y-75791971D01*
X105347215Y-75791968D01*
X105347219Y-75791966D01*
X105491966Y-75647219D01*
X105491968Y-75647215D01*
X105491971Y-75647213D01*
X105544732Y-75574590D01*
X105612287Y-75481610D01*
X105705220Y-75299219D01*
X105768477Y-75104534D01*
X105800500Y-74902352D01*
X105800500Y-74697648D01*
X105768477Y-74495466D01*
X105705220Y-74300781D01*
X105705218Y-74300778D01*
X105705218Y-74300776D01*
X105669931Y-74231522D01*
X105612287Y-74118390D01*
X105604556Y-74107749D01*
X105491971Y-73952786D01*
X105347213Y-73808028D01*
X105181614Y-73687715D01*
X105175006Y-73684348D01*
X105088917Y-73640483D01*
X105038123Y-73592511D01*
X105021328Y-73524690D01*
X105043865Y-73458555D01*
X105088917Y-73419516D01*
X105181610Y-73372287D01*
X105202770Y-73356913D01*
X105347213Y-73251971D01*
X105347215Y-73251968D01*
X105347219Y-73251966D01*
X105491966Y-73107219D01*
X105491968Y-73107215D01*
X105491971Y-73107213D01*
X105544732Y-73034590D01*
X105612287Y-72941610D01*
X105705220Y-72759219D01*
X105768477Y-72564534D01*
X105800500Y-72362352D01*
X105800500Y-72157648D01*
X105768477Y-71955466D01*
X105705220Y-71760781D01*
X105705218Y-71760778D01*
X105705218Y-71760776D01*
X105617442Y-71588508D01*
X105612287Y-71578390D01*
X105564429Y-71512518D01*
X105491971Y-71412786D01*
X105347213Y-71268028D01*
X105181614Y-71147715D01*
X105123397Y-71118052D01*
X105088917Y-71100483D01*
X105038123Y-71052511D01*
X105021328Y-70984690D01*
X105043865Y-70918555D01*
X105088917Y-70879516D01*
X105181610Y-70832287D01*
X105242968Y-70787708D01*
X105347213Y-70711971D01*
X105347215Y-70711968D01*
X105347219Y-70711966D01*
X105491966Y-70567219D01*
X105491968Y-70567215D01*
X105491971Y-70567213D01*
X105579063Y-70447339D01*
X105612287Y-70401610D01*
X105705220Y-70219219D01*
X105768477Y-70024534D01*
X105800500Y-69822352D01*
X105800500Y-69617648D01*
X105781866Y-69500000D01*
X105768477Y-69415465D01*
X105705218Y-69220776D01*
X105671503Y-69154607D01*
X105612287Y-69038390D01*
X105604556Y-69027749D01*
X105491971Y-68872786D01*
X105347213Y-68728028D01*
X105181614Y-68607715D01*
X105175006Y-68604348D01*
X105088917Y-68560483D01*
X105038123Y-68512511D01*
X105021328Y-68444690D01*
X105043865Y-68378555D01*
X105088917Y-68339516D01*
X105181610Y-68292287D01*
X105202770Y-68276913D01*
X105347213Y-68171971D01*
X105347215Y-68171968D01*
X105347219Y-68171966D01*
X105491966Y-68027219D01*
X105491968Y-68027215D01*
X105491971Y-68027213D01*
X105544732Y-67954590D01*
X105612287Y-67861610D01*
X105705220Y-67679219D01*
X105768477Y-67484534D01*
X105800500Y-67282352D01*
X105800500Y-67077648D01*
X105768477Y-66875466D01*
X105705220Y-66680781D01*
X105705218Y-66680778D01*
X105705218Y-66680776D01*
X105671503Y-66614607D01*
X105612287Y-66498390D01*
X105604556Y-66487749D01*
X105491971Y-66332786D01*
X105347213Y-66188028D01*
X105181614Y-66067715D01*
X105175006Y-66064348D01*
X105088917Y-66020483D01*
X105038123Y-65972511D01*
X105021328Y-65904690D01*
X105043865Y-65838555D01*
X105088917Y-65799516D01*
X105181610Y-65752287D01*
X105202770Y-65736913D01*
X105347213Y-65631971D01*
X105347215Y-65631968D01*
X105347219Y-65631966D01*
X105491966Y-65487219D01*
X105491968Y-65487215D01*
X105491971Y-65487213D01*
X105544732Y-65414590D01*
X105612287Y-65321610D01*
X105705220Y-65139219D01*
X105768477Y-64944534D01*
X105800500Y-64742352D01*
X105800500Y-64537648D01*
X105768477Y-64335466D01*
X105705220Y-64140781D01*
X105705218Y-64140778D01*
X105705218Y-64140776D01*
X105671503Y-64074607D01*
X105612287Y-63958390D01*
X105604556Y-63947749D01*
X105491971Y-63792786D01*
X105347213Y-63648028D01*
X105181613Y-63527715D01*
X105181612Y-63527714D01*
X105181610Y-63527713D01*
X105124653Y-63498691D01*
X104999223Y-63434781D01*
X104804534Y-63371522D01*
X104626685Y-63343354D01*
X104602352Y-63339500D01*
X104397648Y-63339500D01*
X104373340Y-63343350D01*
X104195465Y-63371522D01*
X104000776Y-63434781D01*
X103818386Y-63527715D01*
X103652786Y-63648028D01*
X103508028Y-63792786D01*
X103387715Y-63958386D01*
X103294781Y-64140776D01*
X103231522Y-64335465D01*
X103199500Y-64537648D01*
X103199500Y-64742351D01*
X103231522Y-64944534D01*
X103294781Y-65139223D01*
X103387715Y-65321613D01*
X103508028Y-65487213D01*
X103652786Y-65631971D01*
X103807749Y-65744556D01*
X103818390Y-65752287D01*
X103909840Y-65798883D01*
X103911080Y-65799515D01*
X103961876Y-65847490D01*
X103978671Y-65915311D01*
X103956134Y-65981446D01*
X103911080Y-66020485D01*
X103818386Y-66067715D01*
X103652786Y-66188028D01*
X103508028Y-66332786D01*
X103387715Y-66498386D01*
X103294781Y-66680776D01*
X103231522Y-66875465D01*
X103199500Y-67077648D01*
X103199500Y-67282351D01*
X103231522Y-67484534D01*
X103294781Y-67679223D01*
X103387715Y-67861613D01*
X103508028Y-68027213D01*
X103652786Y-68171971D01*
X103807749Y-68284556D01*
X103818390Y-68292287D01*
X103909840Y-68338883D01*
X103911080Y-68339515D01*
X103961876Y-68387490D01*
X103978671Y-68455311D01*
X103956134Y-68521446D01*
X103911080Y-68560485D01*
X103818386Y-68607715D01*
X103652786Y-68728028D01*
X103508028Y-68872786D01*
X103387715Y-69038386D01*
X103294781Y-69220776D01*
X103231522Y-69415465D01*
X103199500Y-69617648D01*
X103199500Y-69822351D01*
X103231522Y-70024534D01*
X103294781Y-70219223D01*
X103354548Y-70336520D01*
X103359177Y-70345606D01*
X103387715Y-70401613D01*
X103508028Y-70567213D01*
X103652786Y-70711971D01*
X103780030Y-70804417D01*
X103818390Y-70832287D01*
X103909840Y-70878883D01*
X103911080Y-70879515D01*
X103961876Y-70927490D01*
X103978671Y-70995311D01*
X103956134Y-71061446D01*
X103911080Y-71100485D01*
X103818386Y-71147715D01*
X103652786Y-71268028D01*
X103508028Y-71412786D01*
X103387715Y-71578386D01*
X103294781Y-71760776D01*
X103231522Y-71955465D01*
X103199500Y-72157648D01*
X103199500Y-72362351D01*
X103231522Y-72564534D01*
X103294781Y-72759223D01*
X103387715Y-72941613D01*
X103508028Y-73107213D01*
X103652786Y-73251971D01*
X103807749Y-73364556D01*
X103818390Y-73372287D01*
X103909840Y-73418883D01*
X103911080Y-73419515D01*
X103961876Y-73467490D01*
X103978671Y-73535311D01*
X103956134Y-73601446D01*
X103911080Y-73640485D01*
X103818386Y-73687715D01*
X103652786Y-73808028D01*
X103508028Y-73952786D01*
X103387715Y-74118386D01*
X103294781Y-74300776D01*
X103231522Y-74495465D01*
X103199500Y-74697648D01*
X103199500Y-74902351D01*
X103231522Y-75104534D01*
X103294781Y-75299223D01*
X103387715Y-75481613D01*
X103508028Y-75647213D01*
X103652786Y-75791971D01*
X103807749Y-75904556D01*
X103818390Y-75912287D01*
X103909840Y-75958883D01*
X103911080Y-75959515D01*
X103961876Y-76007490D01*
X103978671Y-76075311D01*
X103956134Y-76141446D01*
X103911080Y-76180485D01*
X103818386Y-76227715D01*
X103652786Y-76348028D01*
X103508028Y-76492786D01*
X103387715Y-76658386D01*
X103294781Y-76840776D01*
X103231522Y-77035465D01*
X103199500Y-77237648D01*
X103199500Y-77442351D01*
X103231522Y-77644534D01*
X103294781Y-77839223D01*
X103387715Y-78021613D01*
X103508028Y-78187213D01*
X103652786Y-78331971D01*
X103807749Y-78444556D01*
X103818390Y-78452287D01*
X103909840Y-78498883D01*
X103911080Y-78499515D01*
X103961876Y-78547490D01*
X103978671Y-78615311D01*
X103956134Y-78681446D01*
X103911080Y-78720485D01*
X103818386Y-78767715D01*
X103652786Y-78888028D01*
X103508028Y-79032786D01*
X103387715Y-79198386D01*
X103294781Y-79380776D01*
X103231522Y-79575465D01*
X103199500Y-79777648D01*
X103199500Y-79982351D01*
X103231522Y-80184534D01*
X103294781Y-80379223D01*
X103347847Y-80483369D01*
X103379439Y-80545372D01*
X103387715Y-80561613D01*
X103508028Y-80727213D01*
X103652786Y-80871971D01*
X103798454Y-80977803D01*
X103818390Y-80992287D01*
X103895503Y-81031578D01*
X103911080Y-81039515D01*
X103961876Y-81087490D01*
X103978671Y-81155311D01*
X103956134Y-81221446D01*
X103911080Y-81260485D01*
X103818386Y-81307715D01*
X103652786Y-81428028D01*
X103508028Y-81572786D01*
X103387715Y-81738386D01*
X103294781Y-81920776D01*
X103231522Y-82115465D01*
X103199500Y-82317648D01*
X103199500Y-82522351D01*
X103231522Y-82724534D01*
X103294781Y-82919223D01*
X103387715Y-83101613D01*
X103508028Y-83267213D01*
X103652786Y-83411971D01*
X103807749Y-83524556D01*
X103818390Y-83532287D01*
X103909840Y-83578883D01*
X103911080Y-83579515D01*
X103961876Y-83627490D01*
X103978671Y-83695311D01*
X103956134Y-83761446D01*
X103911080Y-83800485D01*
X103818386Y-83847715D01*
X103652786Y-83968028D01*
X103508028Y-84112786D01*
X103387715Y-84278386D01*
X103294781Y-84460776D01*
X103231522Y-84655465D01*
X103199500Y-84857648D01*
X103199500Y-85062351D01*
X103231522Y-85264534D01*
X103294781Y-85459223D01*
X103387715Y-85641613D01*
X103508028Y-85807213D01*
X103652786Y-85951971D01*
X103800895Y-86059576D01*
X103818390Y-86072287D01*
X103895503Y-86111578D01*
X103911080Y-86119515D01*
X103961876Y-86167490D01*
X103978671Y-86235311D01*
X103956134Y-86301446D01*
X103911080Y-86340485D01*
X103818386Y-86387715D01*
X103652786Y-86508028D01*
X103508028Y-86652786D01*
X103387715Y-86818386D01*
X103294781Y-87000776D01*
X103231522Y-87195465D01*
X103199500Y-87397648D01*
X103199500Y-87602351D01*
X103231522Y-87804534D01*
X103294781Y-87999223D01*
X103346385Y-88100500D01*
X103383320Y-88172989D01*
X103387715Y-88181613D01*
X103508028Y-88347213D01*
X103652786Y-88491971D01*
X103807749Y-88604556D01*
X103818390Y-88612287D01*
X103909840Y-88658883D01*
X103911080Y-88659515D01*
X103961876Y-88707490D01*
X103978671Y-88775311D01*
X103956134Y-88841446D01*
X103911080Y-88880485D01*
X103818386Y-88927715D01*
X103652786Y-89048028D01*
X103508028Y-89192786D01*
X103387715Y-89358386D01*
X103294783Y-89540774D01*
X103294782Y-89540777D01*
X103294780Y-89540781D01*
X103272398Y-89609665D01*
X103231522Y-89735465D01*
X103199500Y-89937648D01*
X103199500Y-90142351D01*
X103231522Y-90344534D01*
X103294781Y-90539223D01*
X103343146Y-90634142D01*
X103381489Y-90709395D01*
X103387715Y-90721613D01*
X103508028Y-90887213D01*
X103508034Y-90887219D01*
X103652781Y-91031966D01*
X103739790Y-91095181D01*
X103782456Y-91150511D01*
X103788435Y-91220125D01*
X103755830Y-91281920D01*
X103694991Y-91316277D01*
X103666905Y-91319500D01*
X99608401Y-91319500D01*
X99541362Y-91299815D01*
X99495607Y-91247011D01*
X99490018Y-91232398D01*
X99476751Y-91189822D01*
X99405212Y-91071481D01*
X99389943Y-91046222D01*
X99389939Y-91046217D01*
X99271282Y-90927560D01*
X99271277Y-90927556D01*
X99127680Y-90840750D01*
X99127679Y-90840749D01*
X99127678Y-90840749D01*
X98967471Y-90790827D01*
X98967469Y-90790826D01*
X98967467Y-90790826D01*
X98918721Y-90786396D01*
X98897847Y-90784500D01*
X98897844Y-90784500D01*
X98804500Y-90784500D01*
X98737461Y-90764815D01*
X98691706Y-90712011D01*
X98680500Y-90660500D01*
X98680500Y-85960036D01*
X98700185Y-85892997D01*
X98701346Y-85891222D01*
X98709394Y-85879179D01*
X98769737Y-85733497D01*
X98800500Y-85578842D01*
X98800500Y-85421158D01*
X98800500Y-85421155D01*
X98800499Y-85421153D01*
X98792150Y-85379179D01*
X98769737Y-85266503D01*
X98755357Y-85231787D01*
X98709397Y-85120827D01*
X98709390Y-85120814D01*
X98621789Y-84989711D01*
X98621786Y-84989707D01*
X98510292Y-84878213D01*
X98510288Y-84878210D01*
X98379185Y-84790609D01*
X98379172Y-84790602D01*
X98233501Y-84730264D01*
X98233489Y-84730261D01*
X98078845Y-84699500D01*
X98078842Y-84699500D01*
X97921158Y-84699500D01*
X97921155Y-84699500D01*
X97766510Y-84730261D01*
X97766498Y-84730264D01*
X97620827Y-84790602D01*
X97620814Y-84790609D01*
X97489711Y-84878210D01*
X97489707Y-84878213D01*
X97378213Y-84989707D01*
X97378210Y-84989711D01*
X97290609Y-85120814D01*
X97290602Y-85120827D01*
X97230264Y-85266498D01*
X97230261Y-85266510D01*
X97199500Y-85421153D01*
X97199500Y-85578846D01*
X97230261Y-85733489D01*
X97230264Y-85733501D01*
X97290602Y-85879172D01*
X97290609Y-85879185D01*
X97378209Y-86010287D01*
X97378210Y-86010288D01*
X97378211Y-86010289D01*
X97443182Y-86075260D01*
X97476666Y-86136581D01*
X97479500Y-86162940D01*
X97479500Y-90660500D01*
X97459815Y-90727539D01*
X97407011Y-90773294D01*
X97355501Y-90784500D01*
X97262145Y-90784500D01*
X97192533Y-90790825D01*
X97192522Y-90790828D01*
X97032324Y-90840747D01*
X97032320Y-90840749D01*
X96888722Y-90927556D01*
X96888717Y-90927560D01*
X96847328Y-90968950D01*
X96841323Y-90972228D01*
X95893552Y-91920000D01*
X95186448Y-91920000D01*
X94248170Y-90981722D01*
X94238882Y-90974749D01*
X94235682Y-90971960D01*
X94191283Y-90927561D01*
X94169920Y-90914647D01*
X94169916Y-90914643D01*
X94047680Y-90840750D01*
X94047679Y-90840749D01*
X94047678Y-90840749D01*
X93887471Y-90790827D01*
X93887469Y-90790826D01*
X93887467Y-90790826D01*
X93838721Y-90786396D01*
X93823352Y-90785000D01*
X94758551Y-90785000D01*
X95540000Y-91566448D01*
X95540001Y-91566448D01*
X96321447Y-90785000D01*
X94758551Y-90785000D01*
X93823352Y-90785000D01*
X93817847Y-90784500D01*
X93817844Y-90784500D01*
X92765097Y-90784500D01*
X92698058Y-90764815D01*
X92677416Y-90748181D01*
X89136819Y-87207584D01*
X89103334Y-87146261D01*
X89100500Y-87119903D01*
X89100500Y-84579765D01*
X89120185Y-84512726D01*
X89121398Y-84510874D01*
X89154873Y-84460776D01*
X89209394Y-84379179D01*
X89269737Y-84233497D01*
X89300500Y-84078842D01*
X89300500Y-83921158D01*
X89300500Y-83921155D01*
X89300499Y-83921153D01*
X89278367Y-83809890D01*
X89269737Y-83766503D01*
X89238680Y-83691523D01*
X89209397Y-83620827D01*
X89209390Y-83620814D01*
X89121789Y-83489711D01*
X89121786Y-83489707D01*
X89010292Y-83378213D01*
X89010288Y-83378210D01*
X88925609Y-83321629D01*
X88880804Y-83268017D01*
X88870500Y-83218527D01*
X88870500Y-61559499D01*
X88890185Y-61492460D01*
X88942989Y-61446705D01*
X88994500Y-61435499D01*
X89087853Y-61435499D01*
X89093367Y-61434998D01*
X90028551Y-61434998D01*
X90028552Y-61434999D01*
X91591447Y-61434999D01*
X91591447Y-61434998D01*
X90810000Y-60653552D01*
X90028551Y-61434998D01*
X89093367Y-61434998D01*
X89157466Y-61429174D01*
X89157469Y-61429173D01*
X89157471Y-61429173D01*
X89264275Y-61395891D01*
X89317675Y-61379252D01*
X89317675Y-61379251D01*
X89317678Y-61379251D01*
X89461283Y-61292439D01*
X89505683Y-61248038D01*
X89508882Y-61245251D01*
X89513170Y-61243277D01*
X90456448Y-60300000D01*
X91163552Y-60300000D01*
X92078283Y-61214731D01*
X92119542Y-61173471D01*
X92119545Y-61173467D01*
X92206289Y-61029973D01*
X92256177Y-60869876D01*
X92262499Y-60800298D01*
X92262499Y-59799691D01*
X92256178Y-59730124D01*
X92256176Y-59730116D01*
X92206291Y-59570029D01*
X92206290Y-59570027D01*
X92119545Y-59426532D01*
X92119542Y-59426528D01*
X92078283Y-59385269D01*
X91163552Y-60300000D01*
X90456448Y-60300000D01*
X89518170Y-59361722D01*
X89508882Y-59354749D01*
X89505682Y-59351960D01*
X89461283Y-59307561D01*
X89439920Y-59294647D01*
X89439916Y-59294643D01*
X89317680Y-59220750D01*
X89317679Y-59220749D01*
X89317678Y-59220749D01*
X89157471Y-59170827D01*
X89157469Y-59170826D01*
X89157467Y-59170826D01*
X89108721Y-59166396D01*
X89093352Y-59165000D01*
X90028551Y-59165000D01*
X90810000Y-59946448D01*
X90810001Y-59946448D01*
X91591447Y-59165000D01*
X90028551Y-59165000D01*
X89093352Y-59165000D01*
X89087847Y-59164500D01*
X89087844Y-59164500D01*
X87452145Y-59164500D01*
X87382533Y-59170825D01*
X87382522Y-59170828D01*
X87222324Y-59220747D01*
X87222320Y-59220749D01*
X87078717Y-59307559D01*
X87076476Y-59309316D01*
X87074530Y-59310090D01*
X87072297Y-59311441D01*
X87072072Y-59311069D01*
X87011565Y-59335167D01*
X86942982Y-59321821D01*
X86923524Y-59309316D01*
X86921282Y-59307559D01*
X86777680Y-59220750D01*
X86777679Y-59220749D01*
X86777678Y-59220749D01*
X86617471Y-59170827D01*
X86617469Y-59170826D01*
X86617467Y-59170826D01*
X86568721Y-59166396D01*
X86547847Y-59164500D01*
X86547844Y-59164500D01*
X84912145Y-59164500D01*
X84842533Y-59170825D01*
X84842522Y-59170828D01*
X84682324Y-59220747D01*
X84682320Y-59220749D01*
X84538717Y-59307559D01*
X84536476Y-59309316D01*
X84534530Y-59310090D01*
X84532297Y-59311441D01*
X84532072Y-59311069D01*
X84471565Y-59335167D01*
X84402982Y-59321821D01*
X84383524Y-59309316D01*
X84381282Y-59307559D01*
X84237680Y-59220750D01*
X84237679Y-59220749D01*
X84237678Y-59220749D01*
X84077471Y-59170827D01*
X84077469Y-59170826D01*
X84077467Y-59170826D01*
X84028721Y-59166396D01*
X84007847Y-59164500D01*
X84007844Y-59164500D01*
X82372145Y-59164500D01*
X82302533Y-59170825D01*
X82302522Y-59170828D01*
X82142324Y-59220747D01*
X82142320Y-59220749D01*
X81998722Y-59307556D01*
X81998717Y-59307560D01*
X81880060Y-59426217D01*
X81880056Y-59426222D01*
X81793250Y-59569819D01*
X81793249Y-59569821D01*
X81793249Y-59569822D01*
X81768288Y-59649925D01*
X81743326Y-59730032D01*
X81737000Y-59799655D01*
X72500500Y-59799655D01*
X72500500Y-57624500D01*
X72520185Y-57557461D01*
X72572989Y-57511706D01*
X72624500Y-57500500D01*
X148934108Y-57500500D01*
X149375500Y-57500500D01*
X149442539Y-57520185D01*
G37*
%TD.AperFunction*%
%TD*%
M02*
