%TF.GenerationSoftware,KiCad,Pcbnew,9.0.1*%
%TF.CreationDate,2025-04-21T23:45:21+05:30*%
%TF.ProjectId,L-1,4c2d312e-6b69-4636-9164-5f7063625858,rev?*%
%TF.SameCoordinates,Original*%
%TF.FileFunction,Legend,Top*%
%TF.FilePolarity,Positive*%
%FSLAX46Y46*%
G04 Gerber Fmt 4.6, Leading zero omitted, Abs format (unit mm)*
G04 Created by KiCad (PCBNEW 9.0.1) date 2025-04-21 23:45:21*
%MOMM*%
%LPD*%
G01*
G04 APERTURE LIST*
%ADD10C,0.150000*%
%ADD11C,0.100000*%
%ADD12C,0.120000*%
G04 APERTURE END LIST*
D10*
X140991905Y-66414819D02*
X140991905Y-65414819D01*
X140991905Y-65414819D02*
X141230000Y-65414819D01*
X141230000Y-65414819D02*
X141372857Y-65462438D01*
X141372857Y-65462438D02*
X141468095Y-65557676D01*
X141468095Y-65557676D02*
X141515714Y-65652914D01*
X141515714Y-65652914D02*
X141563333Y-65843390D01*
X141563333Y-65843390D02*
X141563333Y-65986247D01*
X141563333Y-65986247D02*
X141515714Y-66176723D01*
X141515714Y-66176723D02*
X141468095Y-66271961D01*
X141468095Y-66271961D02*
X141372857Y-66367200D01*
X141372857Y-66367200D02*
X141230000Y-66414819D01*
X141230000Y-66414819D02*
X140991905Y-66414819D01*
X142515714Y-66414819D02*
X141944286Y-66414819D01*
X142230000Y-66414819D02*
X142230000Y-65414819D01*
X142230000Y-65414819D02*
X142134762Y-65557676D01*
X142134762Y-65557676D02*
X142039524Y-65652914D01*
X142039524Y-65652914D02*
X141944286Y-65700533D01*
X123859580Y-86166666D02*
X123907200Y-86214285D01*
X123907200Y-86214285D02*
X123954819Y-86357142D01*
X123954819Y-86357142D02*
X123954819Y-86452380D01*
X123954819Y-86452380D02*
X123907200Y-86595237D01*
X123907200Y-86595237D02*
X123811961Y-86690475D01*
X123811961Y-86690475D02*
X123716723Y-86738094D01*
X123716723Y-86738094D02*
X123526247Y-86785713D01*
X123526247Y-86785713D02*
X123383390Y-86785713D01*
X123383390Y-86785713D02*
X123192914Y-86738094D01*
X123192914Y-86738094D02*
X123097676Y-86690475D01*
X123097676Y-86690475D02*
X123002438Y-86595237D01*
X123002438Y-86595237D02*
X122954819Y-86452380D01*
X122954819Y-86452380D02*
X122954819Y-86357142D01*
X122954819Y-86357142D02*
X123002438Y-86214285D01*
X123002438Y-86214285D02*
X123050057Y-86166666D01*
X123050057Y-85785713D02*
X123002438Y-85738094D01*
X123002438Y-85738094D02*
X122954819Y-85642856D01*
X122954819Y-85642856D02*
X122954819Y-85404761D01*
X122954819Y-85404761D02*
X123002438Y-85309523D01*
X123002438Y-85309523D02*
X123050057Y-85261904D01*
X123050057Y-85261904D02*
X123145295Y-85214285D01*
X123145295Y-85214285D02*
X123240533Y-85214285D01*
X123240533Y-85214285D02*
X123383390Y-85261904D01*
X123383390Y-85261904D02*
X123954819Y-85833332D01*
X123954819Y-85833332D02*
X123954819Y-85214285D01*
D11*
X98938095Y-88967419D02*
X98938095Y-89776942D01*
X98938095Y-89776942D02*
X98985714Y-89872180D01*
X98985714Y-89872180D02*
X99033333Y-89919800D01*
X99033333Y-89919800D02*
X99128571Y-89967419D01*
X99128571Y-89967419D02*
X99319047Y-89967419D01*
X99319047Y-89967419D02*
X99414285Y-89919800D01*
X99414285Y-89919800D02*
X99461904Y-89872180D01*
X99461904Y-89872180D02*
X99509523Y-89776942D01*
X99509523Y-89776942D02*
X99509523Y-88967419D01*
X100509523Y-89967419D02*
X99938095Y-89967419D01*
X100223809Y-89967419D02*
X100223809Y-88967419D01*
X100223809Y-88967419D02*
X100128571Y-89110276D01*
X100128571Y-89110276D02*
X100033333Y-89205514D01*
X100033333Y-89205514D02*
X99938095Y-89253133D01*
X85605800Y-63910877D02*
X85639133Y-63810877D01*
X85639133Y-63810877D02*
X85639133Y-63644211D01*
X85639133Y-63644211D02*
X85605800Y-63577544D01*
X85605800Y-63577544D02*
X85572466Y-63544211D01*
X85572466Y-63544211D02*
X85505800Y-63510877D01*
X85505800Y-63510877D02*
X85439133Y-63510877D01*
X85439133Y-63510877D02*
X85372466Y-63544211D01*
X85372466Y-63544211D02*
X85339133Y-63577544D01*
X85339133Y-63577544D02*
X85305800Y-63644211D01*
X85305800Y-63644211D02*
X85272466Y-63777544D01*
X85272466Y-63777544D02*
X85239133Y-63844211D01*
X85239133Y-63844211D02*
X85205800Y-63877544D01*
X85205800Y-63877544D02*
X85139133Y-63910877D01*
X85139133Y-63910877D02*
X85072466Y-63910877D01*
X85072466Y-63910877D02*
X85005800Y-63877544D01*
X85005800Y-63877544D02*
X84972466Y-63844211D01*
X84972466Y-63844211D02*
X84939133Y-63777544D01*
X84939133Y-63777544D02*
X84939133Y-63610877D01*
X84939133Y-63610877D02*
X84972466Y-63510877D01*
X85639133Y-63210877D02*
X84939133Y-63210877D01*
X84939133Y-63210877D02*
X84939133Y-63044210D01*
X84939133Y-63044210D02*
X84972466Y-62944210D01*
X84972466Y-62944210D02*
X85039133Y-62877544D01*
X85039133Y-62877544D02*
X85105800Y-62844210D01*
X85105800Y-62844210D02*
X85239133Y-62810877D01*
X85239133Y-62810877D02*
X85339133Y-62810877D01*
X85339133Y-62810877D02*
X85472466Y-62844210D01*
X85472466Y-62844210D02*
X85539133Y-62877544D01*
X85539133Y-62877544D02*
X85605800Y-62944210D01*
X85605800Y-62944210D02*
X85639133Y-63044210D01*
X85639133Y-63044210D02*
X85639133Y-63210877D01*
X85439133Y-62544210D02*
X85439133Y-62210877D01*
X85639133Y-62610877D02*
X84939133Y-62377544D01*
X84939133Y-62377544D02*
X85639133Y-62144210D01*
X90052466Y-63510877D02*
X90019133Y-63577544D01*
X90019133Y-63577544D02*
X90019133Y-63677544D01*
X90019133Y-63677544D02*
X90052466Y-63777544D01*
X90052466Y-63777544D02*
X90119133Y-63844211D01*
X90119133Y-63844211D02*
X90185800Y-63877544D01*
X90185800Y-63877544D02*
X90319133Y-63910877D01*
X90319133Y-63910877D02*
X90419133Y-63910877D01*
X90419133Y-63910877D02*
X90552466Y-63877544D01*
X90552466Y-63877544D02*
X90619133Y-63844211D01*
X90619133Y-63844211D02*
X90685800Y-63777544D01*
X90685800Y-63777544D02*
X90719133Y-63677544D01*
X90719133Y-63677544D02*
X90719133Y-63610877D01*
X90719133Y-63610877D02*
X90685800Y-63510877D01*
X90685800Y-63510877D02*
X90652466Y-63477544D01*
X90652466Y-63477544D02*
X90419133Y-63477544D01*
X90419133Y-63477544D02*
X90419133Y-63610877D01*
X90719133Y-63177544D02*
X90019133Y-63177544D01*
X90019133Y-63177544D02*
X90719133Y-62777544D01*
X90719133Y-62777544D02*
X90019133Y-62777544D01*
X90719133Y-62444211D02*
X90019133Y-62444211D01*
X90019133Y-62444211D02*
X90019133Y-62277544D01*
X90019133Y-62277544D02*
X90052466Y-62177544D01*
X90052466Y-62177544D02*
X90119133Y-62110878D01*
X90119133Y-62110878D02*
X90185800Y-62077544D01*
X90185800Y-62077544D02*
X90319133Y-62044211D01*
X90319133Y-62044211D02*
X90419133Y-62044211D01*
X90419133Y-62044211D02*
X90552466Y-62077544D01*
X90552466Y-62077544D02*
X90619133Y-62110878D01*
X90619133Y-62110878D02*
X90685800Y-62177544D01*
X90685800Y-62177544D02*
X90719133Y-62277544D01*
X90719133Y-62277544D02*
X90719133Y-62444211D01*
X82399133Y-63977544D02*
X83099133Y-63744211D01*
X83099133Y-63744211D02*
X82399133Y-63510877D01*
X83032466Y-62877544D02*
X83065800Y-62910877D01*
X83065800Y-62910877D02*
X83099133Y-63010877D01*
X83099133Y-63010877D02*
X83099133Y-63077544D01*
X83099133Y-63077544D02*
X83065800Y-63177544D01*
X83065800Y-63177544D02*
X82999133Y-63244211D01*
X82999133Y-63244211D02*
X82932466Y-63277544D01*
X82932466Y-63277544D02*
X82799133Y-63310877D01*
X82799133Y-63310877D02*
X82699133Y-63310877D01*
X82699133Y-63310877D02*
X82565800Y-63277544D01*
X82565800Y-63277544D02*
X82499133Y-63244211D01*
X82499133Y-63244211D02*
X82432466Y-63177544D01*
X82432466Y-63177544D02*
X82399133Y-63077544D01*
X82399133Y-63077544D02*
X82399133Y-63010877D01*
X82399133Y-63010877D02*
X82432466Y-62910877D01*
X82432466Y-62910877D02*
X82465800Y-62877544D01*
X83032466Y-62177544D02*
X83065800Y-62210877D01*
X83065800Y-62210877D02*
X83099133Y-62310877D01*
X83099133Y-62310877D02*
X83099133Y-62377544D01*
X83099133Y-62377544D02*
X83065800Y-62477544D01*
X83065800Y-62477544D02*
X82999133Y-62544211D01*
X82999133Y-62544211D02*
X82932466Y-62577544D01*
X82932466Y-62577544D02*
X82799133Y-62610877D01*
X82799133Y-62610877D02*
X82699133Y-62610877D01*
X82699133Y-62610877D02*
X82565800Y-62577544D01*
X82565800Y-62577544D02*
X82499133Y-62544211D01*
X82499133Y-62544211D02*
X82432466Y-62477544D01*
X82432466Y-62477544D02*
X82399133Y-62377544D01*
X82399133Y-62377544D02*
X82399133Y-62310877D01*
X82399133Y-62310877D02*
X82432466Y-62210877D01*
X82432466Y-62210877D02*
X82465800Y-62177544D01*
X88145800Y-63910877D02*
X88179133Y-63810877D01*
X88179133Y-63810877D02*
X88179133Y-63644211D01*
X88179133Y-63644211D02*
X88145800Y-63577544D01*
X88145800Y-63577544D02*
X88112466Y-63544211D01*
X88112466Y-63544211D02*
X88045800Y-63510877D01*
X88045800Y-63510877D02*
X87979133Y-63510877D01*
X87979133Y-63510877D02*
X87912466Y-63544211D01*
X87912466Y-63544211D02*
X87879133Y-63577544D01*
X87879133Y-63577544D02*
X87845800Y-63644211D01*
X87845800Y-63644211D02*
X87812466Y-63777544D01*
X87812466Y-63777544D02*
X87779133Y-63844211D01*
X87779133Y-63844211D02*
X87745800Y-63877544D01*
X87745800Y-63877544D02*
X87679133Y-63910877D01*
X87679133Y-63910877D02*
X87612466Y-63910877D01*
X87612466Y-63910877D02*
X87545800Y-63877544D01*
X87545800Y-63877544D02*
X87512466Y-63844211D01*
X87512466Y-63844211D02*
X87479133Y-63777544D01*
X87479133Y-63777544D02*
X87479133Y-63610877D01*
X87479133Y-63610877D02*
X87512466Y-63510877D01*
X88112466Y-62810877D02*
X88145800Y-62844210D01*
X88145800Y-62844210D02*
X88179133Y-62944210D01*
X88179133Y-62944210D02*
X88179133Y-63010877D01*
X88179133Y-63010877D02*
X88145800Y-63110877D01*
X88145800Y-63110877D02*
X88079133Y-63177544D01*
X88079133Y-63177544D02*
X88012466Y-63210877D01*
X88012466Y-63210877D02*
X87879133Y-63244210D01*
X87879133Y-63244210D02*
X87779133Y-63244210D01*
X87779133Y-63244210D02*
X87645800Y-63210877D01*
X87645800Y-63210877D02*
X87579133Y-63177544D01*
X87579133Y-63177544D02*
X87512466Y-63110877D01*
X87512466Y-63110877D02*
X87479133Y-63010877D01*
X87479133Y-63010877D02*
X87479133Y-62944210D01*
X87479133Y-62944210D02*
X87512466Y-62844210D01*
X87512466Y-62844210D02*
X87545800Y-62810877D01*
X88179133Y-62177544D02*
X88179133Y-62510877D01*
X88179133Y-62510877D02*
X87479133Y-62510877D01*
X97238095Y-104457419D02*
X97238095Y-105266942D01*
X97238095Y-105266942D02*
X97285714Y-105362180D01*
X97285714Y-105362180D02*
X97333333Y-105409800D01*
X97333333Y-105409800D02*
X97428571Y-105457419D01*
X97428571Y-105457419D02*
X97619047Y-105457419D01*
X97619047Y-105457419D02*
X97714285Y-105409800D01*
X97714285Y-105409800D02*
X97761904Y-105362180D01*
X97761904Y-105362180D02*
X97809523Y-105266942D01*
X97809523Y-105266942D02*
X97809523Y-104457419D01*
X98238095Y-104552657D02*
X98285714Y-104505038D01*
X98285714Y-104505038D02*
X98380952Y-104457419D01*
X98380952Y-104457419D02*
X98619047Y-104457419D01*
X98619047Y-104457419D02*
X98714285Y-104505038D01*
X98714285Y-104505038D02*
X98761904Y-104552657D01*
X98761904Y-104552657D02*
X98809523Y-104647895D01*
X98809523Y-104647895D02*
X98809523Y-104743133D01*
X98809523Y-104743133D02*
X98761904Y-104885990D01*
X98761904Y-104885990D02*
X98190476Y-105457419D01*
X98190476Y-105457419D02*
X98809523Y-105457419D01*
X95242466Y-94400877D02*
X95209133Y-94467544D01*
X95209133Y-94467544D02*
X95209133Y-94567544D01*
X95209133Y-94567544D02*
X95242466Y-94667544D01*
X95242466Y-94667544D02*
X95309133Y-94734211D01*
X95309133Y-94734211D02*
X95375800Y-94767544D01*
X95375800Y-94767544D02*
X95509133Y-94800877D01*
X95509133Y-94800877D02*
X95609133Y-94800877D01*
X95609133Y-94800877D02*
X95742466Y-94767544D01*
X95742466Y-94767544D02*
X95809133Y-94734211D01*
X95809133Y-94734211D02*
X95875800Y-94667544D01*
X95875800Y-94667544D02*
X95909133Y-94567544D01*
X95909133Y-94567544D02*
X95909133Y-94500877D01*
X95909133Y-94500877D02*
X95875800Y-94400877D01*
X95875800Y-94400877D02*
X95842466Y-94367544D01*
X95842466Y-94367544D02*
X95609133Y-94367544D01*
X95609133Y-94367544D02*
X95609133Y-94500877D01*
X95909133Y-94067544D02*
X95209133Y-94067544D01*
X95209133Y-94067544D02*
X95909133Y-93667544D01*
X95909133Y-93667544D02*
X95209133Y-93667544D01*
X95909133Y-93334211D02*
X95209133Y-93334211D01*
X95209133Y-93334211D02*
X95209133Y-93167544D01*
X95209133Y-93167544D02*
X95242466Y-93067544D01*
X95242466Y-93067544D02*
X95309133Y-93000878D01*
X95309133Y-93000878D02*
X95375800Y-92967544D01*
X95375800Y-92967544D02*
X95509133Y-92934211D01*
X95509133Y-92934211D02*
X95609133Y-92934211D01*
X95609133Y-92934211D02*
X95742466Y-92967544D01*
X95742466Y-92967544D02*
X95809133Y-93000878D01*
X95809133Y-93000878D02*
X95875800Y-93067544D01*
X95875800Y-93067544D02*
X95909133Y-93167544D01*
X95909133Y-93167544D02*
X95909133Y-93334211D01*
X88409133Y-94267544D02*
X87709133Y-94267544D01*
X88409133Y-93934211D02*
X87709133Y-93934211D01*
X87709133Y-93934211D02*
X88409133Y-93534211D01*
X88409133Y-93534211D02*
X87709133Y-93534211D01*
X87709133Y-93300878D02*
X87709133Y-92900878D01*
X88409133Y-93100878D02*
X87709133Y-93100878D01*
X90875800Y-94800877D02*
X90909133Y-94700877D01*
X90909133Y-94700877D02*
X90909133Y-94534211D01*
X90909133Y-94534211D02*
X90875800Y-94467544D01*
X90875800Y-94467544D02*
X90842466Y-94434211D01*
X90842466Y-94434211D02*
X90775800Y-94400877D01*
X90775800Y-94400877D02*
X90709133Y-94400877D01*
X90709133Y-94400877D02*
X90642466Y-94434211D01*
X90642466Y-94434211D02*
X90609133Y-94467544D01*
X90609133Y-94467544D02*
X90575800Y-94534211D01*
X90575800Y-94534211D02*
X90542466Y-94667544D01*
X90542466Y-94667544D02*
X90509133Y-94734211D01*
X90509133Y-94734211D02*
X90475800Y-94767544D01*
X90475800Y-94767544D02*
X90409133Y-94800877D01*
X90409133Y-94800877D02*
X90342466Y-94800877D01*
X90342466Y-94800877D02*
X90275800Y-94767544D01*
X90275800Y-94767544D02*
X90242466Y-94734211D01*
X90242466Y-94734211D02*
X90209133Y-94667544D01*
X90209133Y-94667544D02*
X90209133Y-94500877D01*
X90209133Y-94500877D02*
X90242466Y-94400877D01*
X90909133Y-94100877D02*
X90209133Y-94100877D01*
X90209133Y-94100877D02*
X90209133Y-93934210D01*
X90209133Y-93934210D02*
X90242466Y-93834210D01*
X90242466Y-93834210D02*
X90309133Y-93767544D01*
X90309133Y-93767544D02*
X90375800Y-93734210D01*
X90375800Y-93734210D02*
X90509133Y-93700877D01*
X90509133Y-93700877D02*
X90609133Y-93700877D01*
X90609133Y-93700877D02*
X90742466Y-93734210D01*
X90742466Y-93734210D02*
X90809133Y-93767544D01*
X90809133Y-93767544D02*
X90875800Y-93834210D01*
X90875800Y-93834210D02*
X90909133Y-93934210D01*
X90909133Y-93934210D02*
X90909133Y-94100877D01*
X90709133Y-93434210D02*
X90709133Y-93100877D01*
X90909133Y-93500877D02*
X90209133Y-93267544D01*
X90209133Y-93267544D02*
X90909133Y-93034210D01*
X97709133Y-94867544D02*
X98409133Y-94634211D01*
X98409133Y-94634211D02*
X97709133Y-94400877D01*
X98342466Y-93767544D02*
X98375800Y-93800877D01*
X98375800Y-93800877D02*
X98409133Y-93900877D01*
X98409133Y-93900877D02*
X98409133Y-93967544D01*
X98409133Y-93967544D02*
X98375800Y-94067544D01*
X98375800Y-94067544D02*
X98309133Y-94134211D01*
X98309133Y-94134211D02*
X98242466Y-94167544D01*
X98242466Y-94167544D02*
X98109133Y-94200877D01*
X98109133Y-94200877D02*
X98009133Y-94200877D01*
X98009133Y-94200877D02*
X97875800Y-94167544D01*
X97875800Y-94167544D02*
X97809133Y-94134211D01*
X97809133Y-94134211D02*
X97742466Y-94067544D01*
X97742466Y-94067544D02*
X97709133Y-93967544D01*
X97709133Y-93967544D02*
X97709133Y-93900877D01*
X97709133Y-93900877D02*
X97742466Y-93800877D01*
X97742466Y-93800877D02*
X97775800Y-93767544D01*
X98342466Y-93067544D02*
X98375800Y-93100877D01*
X98375800Y-93100877D02*
X98409133Y-93200877D01*
X98409133Y-93200877D02*
X98409133Y-93267544D01*
X98409133Y-93267544D02*
X98375800Y-93367544D01*
X98375800Y-93367544D02*
X98309133Y-93434211D01*
X98309133Y-93434211D02*
X98242466Y-93467544D01*
X98242466Y-93467544D02*
X98109133Y-93500877D01*
X98109133Y-93500877D02*
X98009133Y-93500877D01*
X98009133Y-93500877D02*
X97875800Y-93467544D01*
X97875800Y-93467544D02*
X97809133Y-93434211D01*
X97809133Y-93434211D02*
X97742466Y-93367544D01*
X97742466Y-93367544D02*
X97709133Y-93267544D01*
X97709133Y-93267544D02*
X97709133Y-93200877D01*
X97709133Y-93200877D02*
X97742466Y-93100877D01*
X97742466Y-93100877D02*
X97775800Y-93067544D01*
X93375800Y-94800877D02*
X93409133Y-94700877D01*
X93409133Y-94700877D02*
X93409133Y-94534211D01*
X93409133Y-94534211D02*
X93375800Y-94467544D01*
X93375800Y-94467544D02*
X93342466Y-94434211D01*
X93342466Y-94434211D02*
X93275800Y-94400877D01*
X93275800Y-94400877D02*
X93209133Y-94400877D01*
X93209133Y-94400877D02*
X93142466Y-94434211D01*
X93142466Y-94434211D02*
X93109133Y-94467544D01*
X93109133Y-94467544D02*
X93075800Y-94534211D01*
X93075800Y-94534211D02*
X93042466Y-94667544D01*
X93042466Y-94667544D02*
X93009133Y-94734211D01*
X93009133Y-94734211D02*
X92975800Y-94767544D01*
X92975800Y-94767544D02*
X92909133Y-94800877D01*
X92909133Y-94800877D02*
X92842466Y-94800877D01*
X92842466Y-94800877D02*
X92775800Y-94767544D01*
X92775800Y-94767544D02*
X92742466Y-94734211D01*
X92742466Y-94734211D02*
X92709133Y-94667544D01*
X92709133Y-94667544D02*
X92709133Y-94500877D01*
X92709133Y-94500877D02*
X92742466Y-94400877D01*
X93342466Y-93700877D02*
X93375800Y-93734210D01*
X93375800Y-93734210D02*
X93409133Y-93834210D01*
X93409133Y-93834210D02*
X93409133Y-93900877D01*
X93409133Y-93900877D02*
X93375800Y-94000877D01*
X93375800Y-94000877D02*
X93309133Y-94067544D01*
X93309133Y-94067544D02*
X93242466Y-94100877D01*
X93242466Y-94100877D02*
X93109133Y-94134210D01*
X93109133Y-94134210D02*
X93009133Y-94134210D01*
X93009133Y-94134210D02*
X92875800Y-94100877D01*
X92875800Y-94100877D02*
X92809133Y-94067544D01*
X92809133Y-94067544D02*
X92742466Y-94000877D01*
X92742466Y-94000877D02*
X92709133Y-93900877D01*
X92709133Y-93900877D02*
X92709133Y-93834210D01*
X92709133Y-93834210D02*
X92742466Y-93734210D01*
X92742466Y-93734210D02*
X92775800Y-93700877D01*
X93409133Y-93067544D02*
X93409133Y-93400877D01*
X93409133Y-93400877D02*
X92709133Y-93400877D01*
D10*
X141666667Y-93657200D02*
X141809524Y-93704819D01*
X141809524Y-93704819D02*
X142047619Y-93704819D01*
X142047619Y-93704819D02*
X142142857Y-93657200D01*
X142142857Y-93657200D02*
X142190476Y-93609580D01*
X142190476Y-93609580D02*
X142238095Y-93514342D01*
X142238095Y-93514342D02*
X142238095Y-93419104D01*
X142238095Y-93419104D02*
X142190476Y-93323866D01*
X142190476Y-93323866D02*
X142142857Y-93276247D01*
X142142857Y-93276247D02*
X142047619Y-93228628D01*
X142047619Y-93228628D02*
X141857143Y-93181009D01*
X141857143Y-93181009D02*
X141761905Y-93133390D01*
X141761905Y-93133390D02*
X141714286Y-93085771D01*
X141714286Y-93085771D02*
X141666667Y-92990533D01*
X141666667Y-92990533D02*
X141666667Y-92895295D01*
X141666667Y-92895295D02*
X141714286Y-92800057D01*
X141714286Y-92800057D02*
X141761905Y-92752438D01*
X141761905Y-92752438D02*
X141857143Y-92704819D01*
X141857143Y-92704819D02*
X142095238Y-92704819D01*
X142095238Y-92704819D02*
X142238095Y-92752438D01*
X142571429Y-92704819D02*
X142809524Y-93704819D01*
X142809524Y-93704819D02*
X143000000Y-92990533D01*
X143000000Y-92990533D02*
X143190476Y-93704819D01*
X143190476Y-93704819D02*
X143428572Y-92704819D01*
X143714286Y-92704819D02*
X144333333Y-92704819D01*
X144333333Y-92704819D02*
X144000000Y-93085771D01*
X144000000Y-93085771D02*
X144142857Y-93085771D01*
X144142857Y-93085771D02*
X144238095Y-93133390D01*
X144238095Y-93133390D02*
X144285714Y-93181009D01*
X144285714Y-93181009D02*
X144333333Y-93276247D01*
X144333333Y-93276247D02*
X144333333Y-93514342D01*
X144333333Y-93514342D02*
X144285714Y-93609580D01*
X144285714Y-93609580D02*
X144238095Y-93657200D01*
X144238095Y-93657200D02*
X144142857Y-93704819D01*
X144142857Y-93704819D02*
X143857143Y-93704819D01*
X143857143Y-93704819D02*
X143761905Y-93657200D01*
X143761905Y-93657200D02*
X143714286Y-93609580D01*
X141666667Y-82657200D02*
X141809524Y-82704819D01*
X141809524Y-82704819D02*
X142047619Y-82704819D01*
X142047619Y-82704819D02*
X142142857Y-82657200D01*
X142142857Y-82657200D02*
X142190476Y-82609580D01*
X142190476Y-82609580D02*
X142238095Y-82514342D01*
X142238095Y-82514342D02*
X142238095Y-82419104D01*
X142238095Y-82419104D02*
X142190476Y-82323866D01*
X142190476Y-82323866D02*
X142142857Y-82276247D01*
X142142857Y-82276247D02*
X142047619Y-82228628D01*
X142047619Y-82228628D02*
X141857143Y-82181009D01*
X141857143Y-82181009D02*
X141761905Y-82133390D01*
X141761905Y-82133390D02*
X141714286Y-82085771D01*
X141714286Y-82085771D02*
X141666667Y-81990533D01*
X141666667Y-81990533D02*
X141666667Y-81895295D01*
X141666667Y-81895295D02*
X141714286Y-81800057D01*
X141714286Y-81800057D02*
X141761905Y-81752438D01*
X141761905Y-81752438D02*
X141857143Y-81704819D01*
X141857143Y-81704819D02*
X142095238Y-81704819D01*
X142095238Y-81704819D02*
X142238095Y-81752438D01*
X142571429Y-81704819D02*
X142809524Y-82704819D01*
X142809524Y-82704819D02*
X143000000Y-81990533D01*
X143000000Y-81990533D02*
X143190476Y-82704819D01*
X143190476Y-82704819D02*
X143428572Y-81704819D01*
X143761905Y-81800057D02*
X143809524Y-81752438D01*
X143809524Y-81752438D02*
X143904762Y-81704819D01*
X143904762Y-81704819D02*
X144142857Y-81704819D01*
X144142857Y-81704819D02*
X144238095Y-81752438D01*
X144238095Y-81752438D02*
X144285714Y-81800057D01*
X144285714Y-81800057D02*
X144333333Y-81895295D01*
X144333333Y-81895295D02*
X144333333Y-81990533D01*
X144333333Y-81990533D02*
X144285714Y-82133390D01*
X144285714Y-82133390D02*
X143714286Y-82704819D01*
X143714286Y-82704819D02*
X144333333Y-82704819D01*
X141416667Y-69407200D02*
X141559524Y-69454819D01*
X141559524Y-69454819D02*
X141797619Y-69454819D01*
X141797619Y-69454819D02*
X141892857Y-69407200D01*
X141892857Y-69407200D02*
X141940476Y-69359580D01*
X141940476Y-69359580D02*
X141988095Y-69264342D01*
X141988095Y-69264342D02*
X141988095Y-69169104D01*
X141988095Y-69169104D02*
X141940476Y-69073866D01*
X141940476Y-69073866D02*
X141892857Y-69026247D01*
X141892857Y-69026247D02*
X141797619Y-68978628D01*
X141797619Y-68978628D02*
X141607143Y-68931009D01*
X141607143Y-68931009D02*
X141511905Y-68883390D01*
X141511905Y-68883390D02*
X141464286Y-68835771D01*
X141464286Y-68835771D02*
X141416667Y-68740533D01*
X141416667Y-68740533D02*
X141416667Y-68645295D01*
X141416667Y-68645295D02*
X141464286Y-68550057D01*
X141464286Y-68550057D02*
X141511905Y-68502438D01*
X141511905Y-68502438D02*
X141607143Y-68454819D01*
X141607143Y-68454819D02*
X141845238Y-68454819D01*
X141845238Y-68454819D02*
X141988095Y-68502438D01*
X142321429Y-68454819D02*
X142559524Y-69454819D01*
X142559524Y-69454819D02*
X142750000Y-68740533D01*
X142750000Y-68740533D02*
X142940476Y-69454819D01*
X142940476Y-69454819D02*
X143178572Y-68454819D01*
X144083333Y-69454819D02*
X143511905Y-69454819D01*
X143797619Y-69454819D02*
X143797619Y-68454819D01*
X143797619Y-68454819D02*
X143702381Y-68597676D01*
X143702381Y-68597676D02*
X143607143Y-68692914D01*
X143607143Y-68692914D02*
X143511905Y-68740533D01*
X129023333Y-60084819D02*
X128690000Y-59608628D01*
X128451905Y-60084819D02*
X128451905Y-59084819D01*
X128451905Y-59084819D02*
X128832857Y-59084819D01*
X128832857Y-59084819D02*
X128928095Y-59132438D01*
X128928095Y-59132438D02*
X128975714Y-59180057D01*
X128975714Y-59180057D02*
X129023333Y-59275295D01*
X129023333Y-59275295D02*
X129023333Y-59418152D01*
X129023333Y-59418152D02*
X128975714Y-59513390D01*
X128975714Y-59513390D02*
X128928095Y-59561009D01*
X128928095Y-59561009D02*
X128832857Y-59608628D01*
X128832857Y-59608628D02*
X128451905Y-59608628D01*
X129880476Y-59418152D02*
X129880476Y-60084819D01*
X129642381Y-59037200D02*
X129404286Y-59751485D01*
X129404286Y-59751485D02*
X130023333Y-59751485D01*
X136824819Y-96666666D02*
X136348628Y-96999999D01*
X136824819Y-97238094D02*
X135824819Y-97238094D01*
X135824819Y-97238094D02*
X135824819Y-96857142D01*
X135824819Y-96857142D02*
X135872438Y-96761904D01*
X135872438Y-96761904D02*
X135920057Y-96714285D01*
X135920057Y-96714285D02*
X136015295Y-96666666D01*
X136015295Y-96666666D02*
X136158152Y-96666666D01*
X136158152Y-96666666D02*
X136253390Y-96714285D01*
X136253390Y-96714285D02*
X136301009Y-96761904D01*
X136301009Y-96761904D02*
X136348628Y-96857142D01*
X136348628Y-96857142D02*
X136348628Y-97238094D01*
X135824819Y-96333332D02*
X135824819Y-95714285D01*
X135824819Y-95714285D02*
X136205771Y-96047618D01*
X136205771Y-96047618D02*
X136205771Y-95904761D01*
X136205771Y-95904761D02*
X136253390Y-95809523D01*
X136253390Y-95809523D02*
X136301009Y-95761904D01*
X136301009Y-95761904D02*
X136396247Y-95714285D01*
X136396247Y-95714285D02*
X136634342Y-95714285D01*
X136634342Y-95714285D02*
X136729580Y-95761904D01*
X136729580Y-95761904D02*
X136777200Y-95809523D01*
X136777200Y-95809523D02*
X136824819Y-95904761D01*
X136824819Y-95904761D02*
X136824819Y-96190475D01*
X136824819Y-96190475D02*
X136777200Y-96285713D01*
X136777200Y-96285713D02*
X136729580Y-96333332D01*
X136824819Y-85166666D02*
X136348628Y-85499999D01*
X136824819Y-85738094D02*
X135824819Y-85738094D01*
X135824819Y-85738094D02*
X135824819Y-85357142D01*
X135824819Y-85357142D02*
X135872438Y-85261904D01*
X135872438Y-85261904D02*
X135920057Y-85214285D01*
X135920057Y-85214285D02*
X136015295Y-85166666D01*
X136015295Y-85166666D02*
X136158152Y-85166666D01*
X136158152Y-85166666D02*
X136253390Y-85214285D01*
X136253390Y-85214285D02*
X136301009Y-85261904D01*
X136301009Y-85261904D02*
X136348628Y-85357142D01*
X136348628Y-85357142D02*
X136348628Y-85738094D01*
X135920057Y-84785713D02*
X135872438Y-84738094D01*
X135872438Y-84738094D02*
X135824819Y-84642856D01*
X135824819Y-84642856D02*
X135824819Y-84404761D01*
X135824819Y-84404761D02*
X135872438Y-84309523D01*
X135872438Y-84309523D02*
X135920057Y-84261904D01*
X135920057Y-84261904D02*
X136015295Y-84214285D01*
X136015295Y-84214285D02*
X136110533Y-84214285D01*
X136110533Y-84214285D02*
X136253390Y-84261904D01*
X136253390Y-84261904D02*
X136824819Y-84833332D01*
X136824819Y-84833332D02*
X136824819Y-84214285D01*
X136824819Y-72166666D02*
X136348628Y-72499999D01*
X136824819Y-72738094D02*
X135824819Y-72738094D01*
X135824819Y-72738094D02*
X135824819Y-72357142D01*
X135824819Y-72357142D02*
X135872438Y-72261904D01*
X135872438Y-72261904D02*
X135920057Y-72214285D01*
X135920057Y-72214285D02*
X136015295Y-72166666D01*
X136015295Y-72166666D02*
X136158152Y-72166666D01*
X136158152Y-72166666D02*
X136253390Y-72214285D01*
X136253390Y-72214285D02*
X136301009Y-72261904D01*
X136301009Y-72261904D02*
X136348628Y-72357142D01*
X136348628Y-72357142D02*
X136348628Y-72738094D01*
X136824819Y-71214285D02*
X136824819Y-71785713D01*
X136824819Y-71499999D02*
X135824819Y-71499999D01*
X135824819Y-71499999D02*
X135967676Y-71595237D01*
X135967676Y-71595237D02*
X136062914Y-71690475D01*
X136062914Y-71690475D02*
X136110533Y-71785713D01*
X123859580Y-97666666D02*
X123907200Y-97714285D01*
X123907200Y-97714285D02*
X123954819Y-97857142D01*
X123954819Y-97857142D02*
X123954819Y-97952380D01*
X123954819Y-97952380D02*
X123907200Y-98095237D01*
X123907200Y-98095237D02*
X123811961Y-98190475D01*
X123811961Y-98190475D02*
X123716723Y-98238094D01*
X123716723Y-98238094D02*
X123526247Y-98285713D01*
X123526247Y-98285713D02*
X123383390Y-98285713D01*
X123383390Y-98285713D02*
X123192914Y-98238094D01*
X123192914Y-98238094D02*
X123097676Y-98190475D01*
X123097676Y-98190475D02*
X123002438Y-98095237D01*
X123002438Y-98095237D02*
X122954819Y-97952380D01*
X122954819Y-97952380D02*
X122954819Y-97857142D01*
X122954819Y-97857142D02*
X123002438Y-97714285D01*
X123002438Y-97714285D02*
X123050057Y-97666666D01*
X122954819Y-97333332D02*
X122954819Y-96714285D01*
X122954819Y-96714285D02*
X123335771Y-97047618D01*
X123335771Y-97047618D02*
X123335771Y-96904761D01*
X123335771Y-96904761D02*
X123383390Y-96809523D01*
X123383390Y-96809523D02*
X123431009Y-96761904D01*
X123431009Y-96761904D02*
X123526247Y-96714285D01*
X123526247Y-96714285D02*
X123764342Y-96714285D01*
X123764342Y-96714285D02*
X123859580Y-96761904D01*
X123859580Y-96761904D02*
X123907200Y-96809523D01*
X123907200Y-96809523D02*
X123954819Y-96904761D01*
X123954819Y-96904761D02*
X123954819Y-97190475D01*
X123954819Y-97190475D02*
X123907200Y-97285713D01*
X123907200Y-97285713D02*
X123859580Y-97333332D01*
X123859580Y-73166666D02*
X123907200Y-73214285D01*
X123907200Y-73214285D02*
X123954819Y-73357142D01*
X123954819Y-73357142D02*
X123954819Y-73452380D01*
X123954819Y-73452380D02*
X123907200Y-73595237D01*
X123907200Y-73595237D02*
X123811961Y-73690475D01*
X123811961Y-73690475D02*
X123716723Y-73738094D01*
X123716723Y-73738094D02*
X123526247Y-73785713D01*
X123526247Y-73785713D02*
X123383390Y-73785713D01*
X123383390Y-73785713D02*
X123192914Y-73738094D01*
X123192914Y-73738094D02*
X123097676Y-73690475D01*
X123097676Y-73690475D02*
X123002438Y-73595237D01*
X123002438Y-73595237D02*
X122954819Y-73452380D01*
X122954819Y-73452380D02*
X122954819Y-73357142D01*
X122954819Y-73357142D02*
X123002438Y-73214285D01*
X123002438Y-73214285D02*
X123050057Y-73166666D01*
X123954819Y-72214285D02*
X123954819Y-72785713D01*
X123954819Y-72499999D02*
X122954819Y-72499999D01*
X122954819Y-72499999D02*
X123097676Y-72595237D01*
X123097676Y-72595237D02*
X123192914Y-72690475D01*
X123192914Y-72690475D02*
X123240533Y-72785713D01*
X111405714Y-105449104D02*
X111881904Y-105449104D01*
X111310476Y-105734819D02*
X111643809Y-104734819D01*
X111643809Y-104734819D02*
X111977142Y-105734819D01*
X112834285Y-105734819D02*
X112262857Y-105734819D01*
X112548571Y-105734819D02*
X112548571Y-104734819D01*
X112548571Y-104734819D02*
X112453333Y-104877676D01*
X112453333Y-104877676D02*
X112358095Y-104972914D01*
X112358095Y-104972914D02*
X112262857Y-105020533D01*
X113381904Y-65185180D02*
X113381904Y-64375657D01*
X113381904Y-64375657D02*
X113334285Y-64280419D01*
X113334285Y-64280419D02*
X113286666Y-64232800D01*
X113286666Y-64232800D02*
X113191428Y-64185180D01*
X113191428Y-64185180D02*
X113000952Y-64185180D01*
X113000952Y-64185180D02*
X112905714Y-64232800D01*
X112905714Y-64232800D02*
X112858095Y-64280419D01*
X112858095Y-64280419D02*
X112810476Y-64375657D01*
X112810476Y-64375657D02*
X112810476Y-65185180D01*
X112381904Y-64232800D02*
X112239047Y-64185180D01*
X112239047Y-64185180D02*
X112000952Y-64185180D01*
X112000952Y-64185180D02*
X111905714Y-64232800D01*
X111905714Y-64232800D02*
X111858095Y-64280419D01*
X111858095Y-64280419D02*
X111810476Y-64375657D01*
X111810476Y-64375657D02*
X111810476Y-64470895D01*
X111810476Y-64470895D02*
X111858095Y-64566133D01*
X111858095Y-64566133D02*
X111905714Y-64613752D01*
X111905714Y-64613752D02*
X112000952Y-64661371D01*
X112000952Y-64661371D02*
X112191428Y-64708990D01*
X112191428Y-64708990D02*
X112286666Y-64756609D01*
X112286666Y-64756609D02*
X112334285Y-64804228D01*
X112334285Y-64804228D02*
X112381904Y-64899466D01*
X112381904Y-64899466D02*
X112381904Y-64994704D01*
X112381904Y-64994704D02*
X112334285Y-65089942D01*
X112334285Y-65089942D02*
X112286666Y-65137561D01*
X112286666Y-65137561D02*
X112191428Y-65185180D01*
X112191428Y-65185180D02*
X111953333Y-65185180D01*
X111953333Y-65185180D02*
X111810476Y-65137561D01*
X111048571Y-64708990D02*
X110905714Y-64661371D01*
X110905714Y-64661371D02*
X110858095Y-64613752D01*
X110858095Y-64613752D02*
X110810476Y-64518514D01*
X110810476Y-64518514D02*
X110810476Y-64375657D01*
X110810476Y-64375657D02*
X110858095Y-64280419D01*
X110858095Y-64280419D02*
X110905714Y-64232800D01*
X110905714Y-64232800D02*
X111000952Y-64185180D01*
X111000952Y-64185180D02*
X111381904Y-64185180D01*
X111381904Y-64185180D02*
X111381904Y-65185180D01*
X111381904Y-65185180D02*
X111048571Y-65185180D01*
X111048571Y-65185180D02*
X110953333Y-65137561D01*
X110953333Y-65137561D02*
X110905714Y-65089942D01*
X110905714Y-65089942D02*
X110858095Y-64994704D01*
X110858095Y-64994704D02*
X110858095Y-64899466D01*
X110858095Y-64899466D02*
X110905714Y-64804228D01*
X110905714Y-64804228D02*
X110953333Y-64756609D01*
X110953333Y-64756609D02*
X111048571Y-64708990D01*
X111048571Y-64708990D02*
X111381904Y-64708990D01*
D12*
%TO.C,D1*%
X144230000Y-62000000D02*
G75*
G02*
X139230000Y-62000000I-2500000J0D01*
G01*
X139230000Y-62000000D02*
G75*
G02*
X144230000Y-62000000I2500000J0D01*
G01*
X138740000Y-61999952D02*
G75*
G02*
X144290000Y-60455170I2990000J-48D01*
G01*
X144290000Y-63544830D02*
G75*
G02*
X138740000Y-62000048I-2560000J1544830D01*
G01*
X144290000Y-63545000D02*
X144290000Y-60455000D01*
%TO.C,C2*%
X127040000Y-83530000D02*
X127370000Y-83530000D01*
X124630000Y-83530000D02*
X124960000Y-83530000D01*
X127370000Y-88470000D02*
X127370000Y-83530000D01*
X127040000Y-88470000D02*
X127370000Y-88470000D01*
X124630000Y-88470000D02*
X124630000Y-83530000D01*
X124630000Y-88470000D02*
X124960000Y-88470000D01*
D11*
%TO.C,U1*%
X73000000Y-59000000D02*
X101000000Y-59000000D01*
X73000000Y-87000000D02*
X73000000Y-59000000D01*
X101000000Y-59000000D02*
X101000000Y-87000000D01*
X101000000Y-87000000D02*
X73000000Y-87000000D01*
X73000000Y-59000000D02*
X101000000Y-59000000D01*
X101000000Y-87000000D01*
X73000000Y-87000000D01*
X73000000Y-59000000D01*
%TO.C,U2*%
X86000000Y-90000000D02*
X100000000Y-90000000D01*
X86000000Y-104000000D02*
X86000000Y-90000000D01*
X100000000Y-90000000D02*
X100000000Y-104000000D01*
X100000000Y-104000000D02*
X86000000Y-104000000D01*
D12*
%TO.C,SW3*%
X139500000Y-96750000D02*
X139500000Y-98250000D01*
X140750000Y-100750000D02*
X145250000Y-100750000D01*
X145250000Y-94250000D02*
X140750000Y-94250000D01*
X146500000Y-98250000D02*
X146500000Y-96750000D01*
%TO.C,SW2*%
X139500000Y-85750000D02*
X139500000Y-87250000D01*
X140750000Y-89750000D02*
X145250000Y-89750000D01*
X145250000Y-83250000D02*
X140750000Y-83250000D01*
X146500000Y-87250000D02*
X146500000Y-85750000D01*
%TO.C,SW1*%
X139250000Y-72500000D02*
X139250000Y-74000000D01*
X140500000Y-76500000D02*
X145000000Y-76500000D01*
X145000000Y-70000000D02*
X140500000Y-70000000D01*
X146250000Y-74000000D02*
X146250000Y-72500000D01*
%TO.C,R4*%
X125920000Y-60630000D02*
X132460000Y-60630000D01*
X125920000Y-60960000D02*
X125920000Y-60630000D01*
X125920000Y-63040000D02*
X125920000Y-63370000D01*
X125920000Y-63370000D02*
X132460000Y-63370000D01*
X132460000Y-60630000D02*
X132460000Y-60960000D01*
X132460000Y-63370000D02*
X132460000Y-63040000D01*
%TO.C,R3*%
X135370000Y-93230000D02*
X135370000Y-99770000D01*
X135040000Y-93230000D02*
X135370000Y-93230000D01*
X132960000Y-93230000D02*
X132630000Y-93230000D01*
X132630000Y-93230000D02*
X132630000Y-99770000D01*
X135370000Y-99770000D02*
X135040000Y-99770000D01*
X132630000Y-99770000D02*
X132960000Y-99770000D01*
%TO.C,R2*%
X135370000Y-81730000D02*
X135370000Y-88270000D01*
X135040000Y-81730000D02*
X135370000Y-81730000D01*
X132960000Y-81730000D02*
X132630000Y-81730000D01*
X132630000Y-81730000D02*
X132630000Y-88270000D01*
X135370000Y-88270000D02*
X135040000Y-88270000D01*
X132630000Y-88270000D02*
X132960000Y-88270000D01*
%TO.C,R1*%
X135370000Y-68730000D02*
X135370000Y-75270000D01*
X135040000Y-68730000D02*
X135370000Y-68730000D01*
X132960000Y-68730000D02*
X132630000Y-68730000D01*
X132630000Y-68730000D02*
X132630000Y-75270000D01*
X135370000Y-75270000D02*
X135040000Y-75270000D01*
X132630000Y-75270000D02*
X132960000Y-75270000D01*
%TO.C,C3*%
X124630000Y-99970000D02*
X124960000Y-99970000D01*
X124630000Y-99970000D02*
X124630000Y-95030000D01*
X127040000Y-99970000D02*
X127370000Y-99970000D01*
X127370000Y-99970000D02*
X127370000Y-95030000D01*
X124630000Y-95030000D02*
X124960000Y-95030000D01*
X127040000Y-95030000D02*
X127370000Y-95030000D01*
%TO.C,C1*%
X124630000Y-75470000D02*
X124960000Y-75470000D01*
X124630000Y-75470000D02*
X124630000Y-70530000D01*
X127040000Y-75470000D02*
X127370000Y-75470000D01*
X127370000Y-75470000D02*
X127370000Y-70530000D01*
X124630000Y-70530000D02*
X124960000Y-70530000D01*
X127040000Y-70530000D02*
X127370000Y-70530000D01*
%TO.C,A1*%
X121140000Y-104140000D02*
X121140000Y-101470000D01*
X121140000Y-98930000D02*
X121140000Y-60700000D01*
X121140000Y-60700000D02*
X116060000Y-60700000D01*
X118470000Y-101470000D02*
X121140000Y-101470000D01*
X118470000Y-98930000D02*
X121140000Y-98930000D01*
X118470000Y-98930000D02*
X118470000Y-101470000D01*
X118470000Y-98930000D02*
X118470000Y-63370000D01*
X118470000Y-63370000D02*
X121140000Y-63370000D01*
X116060000Y-68580000D02*
X108180000Y-68580000D01*
X116060000Y-58160000D02*
X116060000Y-68580000D01*
X108180000Y-68580000D02*
X108180000Y-58160000D01*
X108180000Y-58160000D02*
X116060000Y-58160000D01*
X105770000Y-101470000D02*
X105770000Y-63370000D01*
X105770000Y-101470000D02*
X103100000Y-101470000D01*
X105770000Y-63370000D02*
X103100000Y-63370000D01*
X103100000Y-104140000D02*
X121140000Y-104140000D01*
X103100000Y-60700000D02*
X108180000Y-60700000D01*
X103100000Y-60700000D02*
X103100000Y-104140000D01*
%TD*%
M02*
