%TF.GenerationSoftware,KiCad,Pcbnew,9.0.1*%
%TF.CreationDate,2025-04-21T23:45:22+05:30*%
%TF.ProjectId,L-1,4c2d312e-6b69-4636-9164-5f7063625858,rev?*%
%TF.SameCoordinates,Original*%
%TF.FileFunction,Soldermask,Bot*%
%TF.FilePolarity,Negative*%
%FSLAX46Y46*%
G04 Gerber Fmt 4.6, Leading zero omitted, Abs format (unit mm)*
G04 Created by KiCad (PCBNEW 9.0.1) date 2025-04-21 23:45:22*
%MOMM*%
%LPD*%
G01*
G04 APERTURE LIST*
G04 APERTURE END LIST*
G36*
X134232228Y-99544448D02*
G01*
X134377117Y-99604463D01*
X134507515Y-99691592D01*
X134618408Y-99802485D01*
X134705537Y-99932883D01*
X134765552Y-100077772D01*
X134796148Y-100231586D01*
X134796148Y-100388414D01*
X134765552Y-100542228D01*
X134705537Y-100687117D01*
X134618408Y-100817515D01*
X134507515Y-100928408D01*
X134377117Y-101015537D01*
X134232228Y-101075552D01*
X134078414Y-101106148D01*
X133921586Y-101106148D01*
X133767772Y-101075552D01*
X133622883Y-101015537D01*
X133492485Y-100928408D01*
X133381592Y-100817515D01*
X133294463Y-100687117D01*
X133234448Y-100542228D01*
X133203852Y-100388414D01*
X133203852Y-100231586D01*
X133234448Y-100077772D01*
X133294463Y-99932883D01*
X133381592Y-99802485D01*
X133492485Y-99691592D01*
X133622883Y-99604463D01*
X133767772Y-99544448D01*
X133921586Y-99513852D01*
X134078414Y-99513852D01*
X134232228Y-99544448D01*
G37*
G36*
X120540000Y-101000000D02*
G01*
X118940000Y-101000000D01*
X118940000Y-99400000D01*
X120540000Y-99400000D01*
X120540000Y-101000000D01*
G37*
G36*
X104732228Y-99434448D02*
G01*
X104877117Y-99494463D01*
X105007515Y-99581592D01*
X105118408Y-99692485D01*
X105205537Y-99822883D01*
X105265552Y-99967772D01*
X105296148Y-100121586D01*
X105296148Y-100278414D01*
X105265552Y-100432228D01*
X105205537Y-100577117D01*
X105118408Y-100707515D01*
X105007515Y-100818408D01*
X104877117Y-100905537D01*
X104732228Y-100965552D01*
X104578414Y-100996148D01*
X104421586Y-100996148D01*
X104267772Y-100965552D01*
X104122883Y-100905537D01*
X103992485Y-100818408D01*
X103881592Y-100707515D01*
X103794463Y-100577117D01*
X103734448Y-100432228D01*
X103703852Y-100278414D01*
X103703852Y-100121586D01*
X103734448Y-99967772D01*
X103794463Y-99822883D01*
X103881592Y-99692485D01*
X103992485Y-99581592D01*
X104122883Y-99494463D01*
X104267772Y-99434448D01*
X104421586Y-99403852D01*
X104578414Y-99403852D01*
X104732228Y-99434448D01*
G37*
G36*
X126232228Y-99234448D02*
G01*
X126377117Y-99294463D01*
X126507515Y-99381592D01*
X126618408Y-99492485D01*
X126705537Y-99622883D01*
X126765552Y-99767772D01*
X126796148Y-99921586D01*
X126796148Y-100078414D01*
X126765552Y-100232228D01*
X126705537Y-100377117D01*
X126618408Y-100507515D01*
X126507515Y-100618408D01*
X126377117Y-100705537D01*
X126232228Y-100765552D01*
X126078414Y-100796148D01*
X125921586Y-100796148D01*
X125767772Y-100765552D01*
X125622883Y-100705537D01*
X125492485Y-100618408D01*
X125381592Y-100507515D01*
X125294463Y-100377117D01*
X125234448Y-100232228D01*
X125203852Y-100078414D01*
X125203852Y-99921586D01*
X125234448Y-99767772D01*
X125294463Y-99622883D01*
X125381592Y-99492485D01*
X125492485Y-99381592D01*
X125622883Y-99294463D01*
X125767772Y-99234448D01*
X125921586Y-99203852D01*
X126078414Y-99203852D01*
X126232228Y-99234448D01*
G37*
G36*
X140040285Y-98793060D02*
G01*
X140221397Y-98868079D01*
X140384393Y-98976990D01*
X140523010Y-99115607D01*
X140631921Y-99278603D01*
X140706940Y-99459715D01*
X140745185Y-99651983D01*
X140745185Y-99848017D01*
X140706940Y-100040285D01*
X140631921Y-100221397D01*
X140523010Y-100384393D01*
X140384393Y-100523010D01*
X140221397Y-100631921D01*
X140040285Y-100706940D01*
X139848017Y-100745185D01*
X139651983Y-100745185D01*
X139459715Y-100706940D01*
X139278603Y-100631921D01*
X139115607Y-100523010D01*
X138976990Y-100384393D01*
X138868079Y-100221397D01*
X138793060Y-100040285D01*
X138754815Y-99848017D01*
X138754815Y-99651983D01*
X138793060Y-99459715D01*
X138868079Y-99278603D01*
X138976990Y-99115607D01*
X139115607Y-98976990D01*
X139278603Y-98868079D01*
X139459715Y-98793060D01*
X139651983Y-98754815D01*
X139848017Y-98754815D01*
X140040285Y-98793060D01*
G37*
G36*
X146540285Y-98793060D02*
G01*
X146721397Y-98868079D01*
X146884393Y-98976990D01*
X147023010Y-99115607D01*
X147131921Y-99278603D01*
X147206940Y-99459715D01*
X147245185Y-99651983D01*
X147245185Y-99848017D01*
X147206940Y-100040285D01*
X147131921Y-100221397D01*
X147023010Y-100384393D01*
X146884393Y-100523010D01*
X146721397Y-100631921D01*
X146540285Y-100706940D01*
X146348017Y-100745185D01*
X146151983Y-100745185D01*
X145959715Y-100706940D01*
X145778603Y-100631921D01*
X145615607Y-100523010D01*
X145476990Y-100384393D01*
X145368079Y-100221397D01*
X145293060Y-100040285D01*
X145254815Y-99848017D01*
X145254815Y-99651983D01*
X145293060Y-99459715D01*
X145368079Y-99278603D01*
X145476990Y-99115607D01*
X145615607Y-98976990D01*
X145778603Y-98868079D01*
X145959715Y-98793060D01*
X146151983Y-98754815D01*
X146348017Y-98754815D01*
X146540285Y-98793060D01*
G37*
G36*
X104732228Y-96894448D02*
G01*
X104877117Y-96954463D01*
X105007515Y-97041592D01*
X105118408Y-97152485D01*
X105205537Y-97282883D01*
X105265552Y-97427772D01*
X105296148Y-97581586D01*
X105296148Y-97738414D01*
X105265552Y-97892228D01*
X105205537Y-98037117D01*
X105118408Y-98167515D01*
X105007515Y-98278408D01*
X104877117Y-98365537D01*
X104732228Y-98425552D01*
X104578414Y-98456148D01*
X104421586Y-98456148D01*
X104267772Y-98425552D01*
X104122883Y-98365537D01*
X103992485Y-98278408D01*
X103881592Y-98167515D01*
X103794463Y-98037117D01*
X103734448Y-97892228D01*
X103703852Y-97738414D01*
X103703852Y-97581586D01*
X103734448Y-97427772D01*
X103794463Y-97282883D01*
X103881592Y-97152485D01*
X103992485Y-97041592D01*
X104122883Y-96954463D01*
X104267772Y-96894448D01*
X104421586Y-96863852D01*
X104578414Y-96863852D01*
X104732228Y-96894448D01*
G37*
G36*
X119972228Y-96894448D02*
G01*
X120117117Y-96954463D01*
X120247515Y-97041592D01*
X120358408Y-97152485D01*
X120445537Y-97282883D01*
X120505552Y-97427772D01*
X120536148Y-97581586D01*
X120536148Y-97738414D01*
X120505552Y-97892228D01*
X120445537Y-98037117D01*
X120358408Y-98167515D01*
X120247515Y-98278408D01*
X120117117Y-98365537D01*
X119972228Y-98425552D01*
X119818414Y-98456148D01*
X119661586Y-98456148D01*
X119507772Y-98425552D01*
X119362883Y-98365537D01*
X119232485Y-98278408D01*
X119121592Y-98167515D01*
X119034463Y-98037117D01*
X118974448Y-97892228D01*
X118943852Y-97738414D01*
X118943852Y-97581586D01*
X118974448Y-97427772D01*
X119034463Y-97282883D01*
X119121592Y-97152485D01*
X119232485Y-97041592D01*
X119362883Y-96954463D01*
X119507772Y-96894448D01*
X119661586Y-96863852D01*
X119818414Y-96863852D01*
X119972228Y-96894448D01*
G37*
G36*
X140040285Y-94293060D02*
G01*
X140221397Y-94368079D01*
X140384393Y-94476990D01*
X140523010Y-94615607D01*
X140631921Y-94778603D01*
X140706940Y-94959715D01*
X140745185Y-95151983D01*
X140745185Y-95348017D01*
X140706940Y-95540285D01*
X140631921Y-95721397D01*
X140523010Y-95884393D01*
X140384393Y-96023010D01*
X140221397Y-96131921D01*
X140040285Y-96206940D01*
X139848017Y-96245185D01*
X139651983Y-96245185D01*
X139459715Y-96206940D01*
X139278603Y-96131921D01*
X139115607Y-96023010D01*
X138976990Y-95884393D01*
X138868079Y-95721397D01*
X138793060Y-95540285D01*
X138754815Y-95348017D01*
X138754815Y-95151983D01*
X138793060Y-94959715D01*
X138868079Y-94778603D01*
X138976990Y-94615607D01*
X139115607Y-94476990D01*
X139278603Y-94368079D01*
X139459715Y-94293060D01*
X139651983Y-94254815D01*
X139848017Y-94254815D01*
X140040285Y-94293060D01*
G37*
G36*
X146540285Y-94293060D02*
G01*
X146721397Y-94368079D01*
X146884393Y-94476990D01*
X147023010Y-94615607D01*
X147131921Y-94778603D01*
X147206940Y-94959715D01*
X147245185Y-95151983D01*
X147245185Y-95348017D01*
X147206940Y-95540285D01*
X147131921Y-95721397D01*
X147023010Y-95884393D01*
X146884393Y-96023010D01*
X146721397Y-96131921D01*
X146540285Y-96206940D01*
X146348017Y-96245185D01*
X146151983Y-96245185D01*
X145959715Y-96206940D01*
X145778603Y-96131921D01*
X145615607Y-96023010D01*
X145476990Y-95884393D01*
X145368079Y-95721397D01*
X145293060Y-95540285D01*
X145254815Y-95348017D01*
X145254815Y-95151983D01*
X145293060Y-94959715D01*
X145368079Y-94778603D01*
X145476990Y-94615607D01*
X145615607Y-94476990D01*
X145778603Y-94368079D01*
X145959715Y-94293060D01*
X146151983Y-94254815D01*
X146348017Y-94254815D01*
X146540285Y-94293060D01*
G37*
G36*
X104732228Y-94354448D02*
G01*
X104877117Y-94414463D01*
X105007515Y-94501592D01*
X105118408Y-94612485D01*
X105205537Y-94742883D01*
X105265552Y-94887772D01*
X105296148Y-95041586D01*
X105296148Y-95198414D01*
X105265552Y-95352228D01*
X105205537Y-95497117D01*
X105118408Y-95627515D01*
X105007515Y-95738408D01*
X104877117Y-95825537D01*
X104732228Y-95885552D01*
X104578414Y-95916148D01*
X104421586Y-95916148D01*
X104267772Y-95885552D01*
X104122883Y-95825537D01*
X103992485Y-95738408D01*
X103881592Y-95627515D01*
X103794463Y-95497117D01*
X103734448Y-95352228D01*
X103703852Y-95198414D01*
X103703852Y-95041586D01*
X103734448Y-94887772D01*
X103794463Y-94742883D01*
X103881592Y-94612485D01*
X103992485Y-94501592D01*
X104122883Y-94414463D01*
X104267772Y-94354448D01*
X104421586Y-94323852D01*
X104578414Y-94323852D01*
X104732228Y-94354448D01*
G37*
G36*
X119972228Y-94354448D02*
G01*
X120117117Y-94414463D01*
X120247515Y-94501592D01*
X120358408Y-94612485D01*
X120445537Y-94742883D01*
X120505552Y-94887772D01*
X120536148Y-95041586D01*
X120536148Y-95198414D01*
X120505552Y-95352228D01*
X120445537Y-95497117D01*
X120358408Y-95627515D01*
X120247515Y-95738408D01*
X120117117Y-95825537D01*
X119972228Y-95885552D01*
X119818414Y-95916148D01*
X119661586Y-95916148D01*
X119507772Y-95885552D01*
X119362883Y-95825537D01*
X119232485Y-95738408D01*
X119121592Y-95627515D01*
X119034463Y-95497117D01*
X118974448Y-95352228D01*
X118943852Y-95198414D01*
X118943852Y-95041586D01*
X118974448Y-94887772D01*
X119034463Y-94742883D01*
X119121592Y-94612485D01*
X119232485Y-94501592D01*
X119362883Y-94414463D01*
X119507772Y-94354448D01*
X119661586Y-94323852D01*
X119818414Y-94323852D01*
X119972228Y-94354448D01*
G37*
G36*
X126232228Y-94234448D02*
G01*
X126377117Y-94294463D01*
X126507515Y-94381592D01*
X126618408Y-94492485D01*
X126705537Y-94622883D01*
X126765552Y-94767772D01*
X126796148Y-94921586D01*
X126796148Y-95078414D01*
X126765552Y-95232228D01*
X126705537Y-95377117D01*
X126618408Y-95507515D01*
X126507515Y-95618408D01*
X126377117Y-95705537D01*
X126232228Y-95765552D01*
X126078414Y-95796148D01*
X125921586Y-95796148D01*
X125767772Y-95765552D01*
X125622883Y-95705537D01*
X125492485Y-95618408D01*
X125381592Y-95507515D01*
X125294463Y-95377117D01*
X125234448Y-95232228D01*
X125203852Y-95078414D01*
X125203852Y-94921586D01*
X125234448Y-94767772D01*
X125294463Y-94622883D01*
X125381592Y-94492485D01*
X125492485Y-94381592D01*
X125622883Y-94294463D01*
X125767772Y-94234448D01*
X125921586Y-94203852D01*
X126078414Y-94203852D01*
X126232228Y-94234448D01*
G37*
G36*
X134232228Y-91924448D02*
G01*
X134377117Y-91984463D01*
X134507515Y-92071592D01*
X134618408Y-92182485D01*
X134705537Y-92312883D01*
X134765552Y-92457772D01*
X134796148Y-92611586D01*
X134796148Y-92768414D01*
X134765552Y-92922228D01*
X134705537Y-93067117D01*
X134618408Y-93197515D01*
X134507515Y-93308408D01*
X134377117Y-93395537D01*
X134232228Y-93455552D01*
X134078414Y-93486148D01*
X133921586Y-93486148D01*
X133767772Y-93455552D01*
X133622883Y-93395537D01*
X133492485Y-93308408D01*
X133381592Y-93197515D01*
X133294463Y-93067117D01*
X133234448Y-92922228D01*
X133203852Y-92768414D01*
X133203852Y-92611586D01*
X133234448Y-92457772D01*
X133294463Y-92312883D01*
X133381592Y-92182485D01*
X133492485Y-92071592D01*
X133622883Y-91984463D01*
X133767772Y-91924448D01*
X133921586Y-91893852D01*
X134078414Y-91893852D01*
X134232228Y-91924448D01*
G37*
G36*
X104732228Y-91814448D02*
G01*
X104877117Y-91874463D01*
X105007515Y-91961592D01*
X105118408Y-92072485D01*
X105205537Y-92202883D01*
X105265552Y-92347772D01*
X105296148Y-92501586D01*
X105296148Y-92658414D01*
X105265552Y-92812228D01*
X105205537Y-92957117D01*
X105118408Y-93087515D01*
X105007515Y-93198408D01*
X104877117Y-93285537D01*
X104732228Y-93345552D01*
X104578414Y-93376148D01*
X104421586Y-93376148D01*
X104267772Y-93345552D01*
X104122883Y-93285537D01*
X103992485Y-93198408D01*
X103881592Y-93087515D01*
X103794463Y-92957117D01*
X103734448Y-92812228D01*
X103703852Y-92658414D01*
X103703852Y-92501586D01*
X103734448Y-92347772D01*
X103794463Y-92202883D01*
X103881592Y-92072485D01*
X103992485Y-91961592D01*
X104122883Y-91874463D01*
X104267772Y-91814448D01*
X104421586Y-91783852D01*
X104578414Y-91783852D01*
X104732228Y-91814448D01*
G37*
G36*
X119972228Y-91814448D02*
G01*
X120117117Y-91874463D01*
X120247515Y-91961592D01*
X120358408Y-92072485D01*
X120445537Y-92202883D01*
X120505552Y-92347772D01*
X120536148Y-92501586D01*
X120536148Y-92658414D01*
X120505552Y-92812228D01*
X120445537Y-92957117D01*
X120358408Y-93087515D01*
X120247515Y-93198408D01*
X120117117Y-93285537D01*
X119972228Y-93345552D01*
X119818414Y-93376148D01*
X119661586Y-93376148D01*
X119507772Y-93345552D01*
X119362883Y-93285537D01*
X119232485Y-93198408D01*
X119121592Y-93087515D01*
X119034463Y-92957117D01*
X118974448Y-92812228D01*
X118943852Y-92658414D01*
X118943852Y-92501586D01*
X118974448Y-92347772D01*
X119034463Y-92202883D01*
X119121592Y-92072485D01*
X119232485Y-91961592D01*
X119362883Y-91874463D01*
X119507772Y-91814448D01*
X119661586Y-91783852D01*
X119818414Y-91783852D01*
X119972228Y-91814448D01*
G37*
G36*
X104732228Y-89274448D02*
G01*
X104877117Y-89334463D01*
X105007515Y-89421592D01*
X105118408Y-89532485D01*
X105205537Y-89662883D01*
X105265552Y-89807772D01*
X105296148Y-89961586D01*
X105296148Y-90118414D01*
X105265552Y-90272228D01*
X105205537Y-90417117D01*
X105118408Y-90547515D01*
X105007515Y-90658408D01*
X104877117Y-90745537D01*
X104732228Y-90805552D01*
X104578414Y-90836148D01*
X104421586Y-90836148D01*
X104267772Y-90805552D01*
X104122883Y-90745537D01*
X103992485Y-90658408D01*
X103881592Y-90547515D01*
X103794463Y-90417117D01*
X103734448Y-90272228D01*
X103703852Y-90118414D01*
X103703852Y-89961586D01*
X103734448Y-89807772D01*
X103794463Y-89662883D01*
X103881592Y-89532485D01*
X103992485Y-89421592D01*
X104122883Y-89334463D01*
X104267772Y-89274448D01*
X104421586Y-89243852D01*
X104578414Y-89243852D01*
X104732228Y-89274448D01*
G37*
G36*
X119972228Y-89274448D02*
G01*
X120117117Y-89334463D01*
X120247515Y-89421592D01*
X120358408Y-89532485D01*
X120445537Y-89662883D01*
X120505552Y-89807772D01*
X120536148Y-89961586D01*
X120536148Y-90118414D01*
X120505552Y-90272228D01*
X120445537Y-90417117D01*
X120358408Y-90547515D01*
X120247515Y-90658408D01*
X120117117Y-90745537D01*
X119972228Y-90805552D01*
X119818414Y-90836148D01*
X119661586Y-90836148D01*
X119507772Y-90805552D01*
X119362883Y-90745537D01*
X119232485Y-90658408D01*
X119121592Y-90547515D01*
X119034463Y-90417117D01*
X118974448Y-90272228D01*
X118943852Y-90118414D01*
X118943852Y-89961586D01*
X118974448Y-89807772D01*
X119034463Y-89662883D01*
X119121592Y-89532485D01*
X119232485Y-89421592D01*
X119362883Y-89334463D01*
X119507772Y-89274448D01*
X119661586Y-89243852D01*
X119818414Y-89243852D01*
X119972228Y-89274448D01*
G37*
G36*
X140040285Y-87793060D02*
G01*
X140221397Y-87868079D01*
X140384393Y-87976990D01*
X140523010Y-88115607D01*
X140631921Y-88278603D01*
X140706940Y-88459715D01*
X140745185Y-88651983D01*
X140745185Y-88848017D01*
X140706940Y-89040285D01*
X140631921Y-89221397D01*
X140523010Y-89384393D01*
X140384393Y-89523010D01*
X140221397Y-89631921D01*
X140040285Y-89706940D01*
X139848017Y-89745185D01*
X139651983Y-89745185D01*
X139459715Y-89706940D01*
X139278603Y-89631921D01*
X139115607Y-89523010D01*
X138976990Y-89384393D01*
X138868079Y-89221397D01*
X138793060Y-89040285D01*
X138754815Y-88848017D01*
X138754815Y-88651983D01*
X138793060Y-88459715D01*
X138868079Y-88278603D01*
X138976990Y-88115607D01*
X139115607Y-87976990D01*
X139278603Y-87868079D01*
X139459715Y-87793060D01*
X139651983Y-87754815D01*
X139848017Y-87754815D01*
X140040285Y-87793060D01*
G37*
G36*
X146540285Y-87793060D02*
G01*
X146721397Y-87868079D01*
X146884393Y-87976990D01*
X147023010Y-88115607D01*
X147131921Y-88278603D01*
X147206940Y-88459715D01*
X147245185Y-88651983D01*
X147245185Y-88848017D01*
X147206940Y-89040285D01*
X147131921Y-89221397D01*
X147023010Y-89384393D01*
X146884393Y-89523010D01*
X146721397Y-89631921D01*
X146540285Y-89706940D01*
X146348017Y-89745185D01*
X146151983Y-89745185D01*
X145959715Y-89706940D01*
X145778603Y-89631921D01*
X145615607Y-89523010D01*
X145476990Y-89384393D01*
X145368079Y-89221397D01*
X145293060Y-89040285D01*
X145254815Y-88848017D01*
X145254815Y-88651983D01*
X145293060Y-88459715D01*
X145368079Y-88278603D01*
X145476990Y-88115607D01*
X145615607Y-87976990D01*
X145778603Y-87868079D01*
X145959715Y-87793060D01*
X146151983Y-87754815D01*
X146348017Y-87754815D01*
X146540285Y-87793060D01*
G37*
G36*
X134232228Y-88044448D02*
G01*
X134377117Y-88104463D01*
X134507515Y-88191592D01*
X134618408Y-88302485D01*
X134705537Y-88432883D01*
X134765552Y-88577772D01*
X134796148Y-88731586D01*
X134796148Y-88888414D01*
X134765552Y-89042228D01*
X134705537Y-89187117D01*
X134618408Y-89317515D01*
X134507515Y-89428408D01*
X134377117Y-89515537D01*
X134232228Y-89575552D01*
X134078414Y-89606148D01*
X133921586Y-89606148D01*
X133767772Y-89575552D01*
X133622883Y-89515537D01*
X133492485Y-89428408D01*
X133381592Y-89317515D01*
X133294463Y-89187117D01*
X133234448Y-89042228D01*
X133203852Y-88888414D01*
X133203852Y-88731586D01*
X133234448Y-88577772D01*
X133294463Y-88432883D01*
X133381592Y-88302485D01*
X133492485Y-88191592D01*
X133622883Y-88104463D01*
X133767772Y-88044448D01*
X133921586Y-88013852D01*
X134078414Y-88013852D01*
X134232228Y-88044448D01*
G37*
G36*
X126232228Y-87734448D02*
G01*
X126377117Y-87794463D01*
X126507515Y-87881592D01*
X126618408Y-87992485D01*
X126705537Y-88122883D01*
X126765552Y-88267772D01*
X126796148Y-88421586D01*
X126796148Y-88578414D01*
X126765552Y-88732228D01*
X126705537Y-88877117D01*
X126618408Y-89007515D01*
X126507515Y-89118408D01*
X126377117Y-89205537D01*
X126232228Y-89265552D01*
X126078414Y-89296148D01*
X125921586Y-89296148D01*
X125767772Y-89265552D01*
X125622883Y-89205537D01*
X125492485Y-89118408D01*
X125381592Y-89007515D01*
X125294463Y-88877117D01*
X125234448Y-88732228D01*
X125203852Y-88578414D01*
X125203852Y-88421586D01*
X125234448Y-88267772D01*
X125294463Y-88122883D01*
X125381592Y-87992485D01*
X125492485Y-87881592D01*
X125622883Y-87794463D01*
X125767772Y-87734448D01*
X125921586Y-87703852D01*
X126078414Y-87703852D01*
X126232228Y-87734448D01*
G37*
G36*
X104732228Y-86734448D02*
G01*
X104877117Y-86794463D01*
X105007515Y-86881592D01*
X105118408Y-86992485D01*
X105205537Y-87122883D01*
X105265552Y-87267772D01*
X105296148Y-87421586D01*
X105296148Y-87578414D01*
X105265552Y-87732228D01*
X105205537Y-87877117D01*
X105118408Y-88007515D01*
X105007515Y-88118408D01*
X104877117Y-88205537D01*
X104732228Y-88265552D01*
X104578414Y-88296148D01*
X104421586Y-88296148D01*
X104267772Y-88265552D01*
X104122883Y-88205537D01*
X103992485Y-88118408D01*
X103881592Y-88007515D01*
X103794463Y-87877117D01*
X103734448Y-87732228D01*
X103703852Y-87578414D01*
X103703852Y-87421586D01*
X103734448Y-87267772D01*
X103794463Y-87122883D01*
X103881592Y-86992485D01*
X103992485Y-86881592D01*
X104122883Y-86794463D01*
X104267772Y-86734448D01*
X104421586Y-86703852D01*
X104578414Y-86703852D01*
X104732228Y-86734448D01*
G37*
G36*
X119972228Y-86734448D02*
G01*
X120117117Y-86794463D01*
X120247515Y-86881592D01*
X120358408Y-86992485D01*
X120445537Y-87122883D01*
X120505552Y-87267772D01*
X120536148Y-87421586D01*
X120536148Y-87578414D01*
X120505552Y-87732228D01*
X120445537Y-87877117D01*
X120358408Y-88007515D01*
X120247515Y-88118408D01*
X120117117Y-88205537D01*
X119972228Y-88265552D01*
X119818414Y-88296148D01*
X119661586Y-88296148D01*
X119507772Y-88265552D01*
X119362883Y-88205537D01*
X119232485Y-88118408D01*
X119121592Y-88007515D01*
X119034463Y-87877117D01*
X118974448Y-87732228D01*
X118943852Y-87578414D01*
X118943852Y-87421586D01*
X118974448Y-87267772D01*
X119034463Y-87122883D01*
X119121592Y-86992485D01*
X119232485Y-86881592D01*
X119362883Y-86794463D01*
X119507772Y-86734448D01*
X119661586Y-86703852D01*
X119818414Y-86703852D01*
X119972228Y-86734448D01*
G37*
G36*
X104732228Y-84194448D02*
G01*
X104877117Y-84254463D01*
X105007515Y-84341592D01*
X105118408Y-84452485D01*
X105205537Y-84582883D01*
X105265552Y-84727772D01*
X105296148Y-84881586D01*
X105296148Y-85038414D01*
X105265552Y-85192228D01*
X105205537Y-85337117D01*
X105118408Y-85467515D01*
X105007515Y-85578408D01*
X104877117Y-85665537D01*
X104732228Y-85725552D01*
X104578414Y-85756148D01*
X104421586Y-85756148D01*
X104267772Y-85725552D01*
X104122883Y-85665537D01*
X103992485Y-85578408D01*
X103881592Y-85467515D01*
X103794463Y-85337117D01*
X103734448Y-85192228D01*
X103703852Y-85038414D01*
X103703852Y-84881586D01*
X103734448Y-84727772D01*
X103794463Y-84582883D01*
X103881592Y-84452485D01*
X103992485Y-84341592D01*
X104122883Y-84254463D01*
X104267772Y-84194448D01*
X104421586Y-84163852D01*
X104578414Y-84163852D01*
X104732228Y-84194448D01*
G37*
G36*
X119972228Y-84194448D02*
G01*
X120117117Y-84254463D01*
X120247515Y-84341592D01*
X120358408Y-84452485D01*
X120445537Y-84582883D01*
X120505552Y-84727772D01*
X120536148Y-84881586D01*
X120536148Y-85038414D01*
X120505552Y-85192228D01*
X120445537Y-85337117D01*
X120358408Y-85467515D01*
X120247515Y-85578408D01*
X120117117Y-85665537D01*
X119972228Y-85725552D01*
X119818414Y-85756148D01*
X119661586Y-85756148D01*
X119507772Y-85725552D01*
X119362883Y-85665537D01*
X119232485Y-85578408D01*
X119121592Y-85467515D01*
X119034463Y-85337117D01*
X118974448Y-85192228D01*
X118943852Y-85038414D01*
X118943852Y-84881586D01*
X118974448Y-84727772D01*
X119034463Y-84582883D01*
X119121592Y-84452485D01*
X119232485Y-84341592D01*
X119362883Y-84254463D01*
X119507772Y-84194448D01*
X119661586Y-84163852D01*
X119818414Y-84163852D01*
X119972228Y-84194448D01*
G37*
G36*
X140040285Y-83293060D02*
G01*
X140221397Y-83368079D01*
X140384393Y-83476990D01*
X140523010Y-83615607D01*
X140631921Y-83778603D01*
X140706940Y-83959715D01*
X140745185Y-84151983D01*
X140745185Y-84348017D01*
X140706940Y-84540285D01*
X140631921Y-84721397D01*
X140523010Y-84884393D01*
X140384393Y-85023010D01*
X140221397Y-85131921D01*
X140040285Y-85206940D01*
X139848017Y-85245185D01*
X139651983Y-85245185D01*
X139459715Y-85206940D01*
X139278603Y-85131921D01*
X139115607Y-85023010D01*
X138976990Y-84884393D01*
X138868079Y-84721397D01*
X138793060Y-84540285D01*
X138754815Y-84348017D01*
X138754815Y-84151983D01*
X138793060Y-83959715D01*
X138868079Y-83778603D01*
X138976990Y-83615607D01*
X139115607Y-83476990D01*
X139278603Y-83368079D01*
X139459715Y-83293060D01*
X139651983Y-83254815D01*
X139848017Y-83254815D01*
X140040285Y-83293060D01*
G37*
G36*
X146540285Y-83293060D02*
G01*
X146721397Y-83368079D01*
X146884393Y-83476990D01*
X147023010Y-83615607D01*
X147131921Y-83778603D01*
X147206940Y-83959715D01*
X147245185Y-84151983D01*
X147245185Y-84348017D01*
X147206940Y-84540285D01*
X147131921Y-84721397D01*
X147023010Y-84884393D01*
X146884393Y-85023010D01*
X146721397Y-85131921D01*
X146540285Y-85206940D01*
X146348017Y-85245185D01*
X146151983Y-85245185D01*
X145959715Y-85206940D01*
X145778603Y-85131921D01*
X145615607Y-85023010D01*
X145476990Y-84884393D01*
X145368079Y-84721397D01*
X145293060Y-84540285D01*
X145254815Y-84348017D01*
X145254815Y-84151983D01*
X145293060Y-83959715D01*
X145368079Y-83778603D01*
X145476990Y-83615607D01*
X145615607Y-83476990D01*
X145778603Y-83368079D01*
X145959715Y-83293060D01*
X146151983Y-83254815D01*
X146348017Y-83254815D01*
X146540285Y-83293060D01*
G37*
G36*
X126232228Y-82734448D02*
G01*
X126377117Y-82794463D01*
X126507515Y-82881592D01*
X126618408Y-82992485D01*
X126705537Y-83122883D01*
X126765552Y-83267772D01*
X126796148Y-83421586D01*
X126796148Y-83578414D01*
X126765552Y-83732228D01*
X126705537Y-83877117D01*
X126618408Y-84007515D01*
X126507515Y-84118408D01*
X126377117Y-84205537D01*
X126232228Y-84265552D01*
X126078414Y-84296148D01*
X125921586Y-84296148D01*
X125767772Y-84265552D01*
X125622883Y-84205537D01*
X125492485Y-84118408D01*
X125381592Y-84007515D01*
X125294463Y-83877117D01*
X125234448Y-83732228D01*
X125203852Y-83578414D01*
X125203852Y-83421586D01*
X125234448Y-83267772D01*
X125294463Y-83122883D01*
X125381592Y-82992485D01*
X125492485Y-82881592D01*
X125622883Y-82794463D01*
X125767772Y-82734448D01*
X125921586Y-82703852D01*
X126078414Y-82703852D01*
X126232228Y-82734448D01*
G37*
G36*
X104732228Y-81654448D02*
G01*
X104877117Y-81714463D01*
X105007515Y-81801592D01*
X105118408Y-81912485D01*
X105205537Y-82042883D01*
X105265552Y-82187772D01*
X105296148Y-82341586D01*
X105296148Y-82498414D01*
X105265552Y-82652228D01*
X105205537Y-82797117D01*
X105118408Y-82927515D01*
X105007515Y-83038408D01*
X104877117Y-83125537D01*
X104732228Y-83185552D01*
X104578414Y-83216148D01*
X104421586Y-83216148D01*
X104267772Y-83185552D01*
X104122883Y-83125537D01*
X103992485Y-83038408D01*
X103881592Y-82927515D01*
X103794463Y-82797117D01*
X103734448Y-82652228D01*
X103703852Y-82498414D01*
X103703852Y-82341586D01*
X103734448Y-82187772D01*
X103794463Y-82042883D01*
X103881592Y-81912485D01*
X103992485Y-81801592D01*
X104122883Y-81714463D01*
X104267772Y-81654448D01*
X104421586Y-81623852D01*
X104578414Y-81623852D01*
X104732228Y-81654448D01*
G37*
G36*
X119972228Y-81654448D02*
G01*
X120117117Y-81714463D01*
X120247515Y-81801592D01*
X120358408Y-81912485D01*
X120445537Y-82042883D01*
X120505552Y-82187772D01*
X120536148Y-82341586D01*
X120536148Y-82498414D01*
X120505552Y-82652228D01*
X120445537Y-82797117D01*
X120358408Y-82927515D01*
X120247515Y-83038408D01*
X120117117Y-83125537D01*
X119972228Y-83185552D01*
X119818414Y-83216148D01*
X119661586Y-83216148D01*
X119507772Y-83185552D01*
X119362883Y-83125537D01*
X119232485Y-83038408D01*
X119121592Y-82927515D01*
X119034463Y-82797117D01*
X118974448Y-82652228D01*
X118943852Y-82498414D01*
X118943852Y-82341586D01*
X118974448Y-82187772D01*
X119034463Y-82042883D01*
X119121592Y-81912485D01*
X119232485Y-81801592D01*
X119362883Y-81714463D01*
X119507772Y-81654448D01*
X119661586Y-81623852D01*
X119818414Y-81623852D01*
X119972228Y-81654448D01*
G37*
G36*
X134232228Y-80424448D02*
G01*
X134377117Y-80484463D01*
X134507515Y-80571592D01*
X134618408Y-80682485D01*
X134705537Y-80812883D01*
X134765552Y-80957772D01*
X134796148Y-81111586D01*
X134796148Y-81268414D01*
X134765552Y-81422228D01*
X134705537Y-81567117D01*
X134618408Y-81697515D01*
X134507515Y-81808408D01*
X134377117Y-81895537D01*
X134232228Y-81955552D01*
X134078414Y-81986148D01*
X133921586Y-81986148D01*
X133767772Y-81955552D01*
X133622883Y-81895537D01*
X133492485Y-81808408D01*
X133381592Y-81697515D01*
X133294463Y-81567117D01*
X133234448Y-81422228D01*
X133203852Y-81268414D01*
X133203852Y-81111586D01*
X133234448Y-80957772D01*
X133294463Y-80812883D01*
X133381592Y-80682485D01*
X133492485Y-80571592D01*
X133622883Y-80484463D01*
X133767772Y-80424448D01*
X133921586Y-80393852D01*
X134078414Y-80393852D01*
X134232228Y-80424448D01*
G37*
G36*
X104732228Y-79114448D02*
G01*
X104877117Y-79174463D01*
X105007515Y-79261592D01*
X105118408Y-79372485D01*
X105205537Y-79502883D01*
X105265552Y-79647772D01*
X105296148Y-79801586D01*
X105296148Y-79958414D01*
X105265552Y-80112228D01*
X105205537Y-80257117D01*
X105118408Y-80387515D01*
X105007515Y-80498408D01*
X104877117Y-80585537D01*
X104732228Y-80645552D01*
X104578414Y-80676148D01*
X104421586Y-80676148D01*
X104267772Y-80645552D01*
X104122883Y-80585537D01*
X103992485Y-80498408D01*
X103881592Y-80387515D01*
X103794463Y-80257117D01*
X103734448Y-80112228D01*
X103703852Y-79958414D01*
X103703852Y-79801586D01*
X103734448Y-79647772D01*
X103794463Y-79502883D01*
X103881592Y-79372485D01*
X103992485Y-79261592D01*
X104122883Y-79174463D01*
X104267772Y-79114448D01*
X104421586Y-79083852D01*
X104578414Y-79083852D01*
X104732228Y-79114448D01*
G37*
G36*
X119972228Y-79114448D02*
G01*
X120117117Y-79174463D01*
X120247515Y-79261592D01*
X120358408Y-79372485D01*
X120445537Y-79502883D01*
X120505552Y-79647772D01*
X120536148Y-79801586D01*
X120536148Y-79958414D01*
X120505552Y-80112228D01*
X120445537Y-80257117D01*
X120358408Y-80387515D01*
X120247515Y-80498408D01*
X120117117Y-80585537D01*
X119972228Y-80645552D01*
X119818414Y-80676148D01*
X119661586Y-80676148D01*
X119507772Y-80645552D01*
X119362883Y-80585537D01*
X119232485Y-80498408D01*
X119121592Y-80387515D01*
X119034463Y-80257117D01*
X118974448Y-80112228D01*
X118943852Y-79958414D01*
X118943852Y-79801586D01*
X118974448Y-79647772D01*
X119034463Y-79502883D01*
X119121592Y-79372485D01*
X119232485Y-79261592D01*
X119362883Y-79174463D01*
X119507772Y-79114448D01*
X119661586Y-79083852D01*
X119818414Y-79083852D01*
X119972228Y-79114448D01*
G37*
G36*
X104732228Y-76574448D02*
G01*
X104877117Y-76634463D01*
X105007515Y-76721592D01*
X105118408Y-76832485D01*
X105205537Y-76962883D01*
X105265552Y-77107772D01*
X105296148Y-77261586D01*
X105296148Y-77418414D01*
X105265552Y-77572228D01*
X105205537Y-77717117D01*
X105118408Y-77847515D01*
X105007515Y-77958408D01*
X104877117Y-78045537D01*
X104732228Y-78105552D01*
X104578414Y-78136148D01*
X104421586Y-78136148D01*
X104267772Y-78105552D01*
X104122883Y-78045537D01*
X103992485Y-77958408D01*
X103881592Y-77847515D01*
X103794463Y-77717117D01*
X103734448Y-77572228D01*
X103703852Y-77418414D01*
X103703852Y-77261586D01*
X103734448Y-77107772D01*
X103794463Y-76962883D01*
X103881592Y-76832485D01*
X103992485Y-76721592D01*
X104122883Y-76634463D01*
X104267772Y-76574448D01*
X104421586Y-76543852D01*
X104578414Y-76543852D01*
X104732228Y-76574448D01*
G37*
G36*
X119972228Y-76574448D02*
G01*
X120117117Y-76634463D01*
X120247515Y-76721592D01*
X120358408Y-76832485D01*
X120445537Y-76962883D01*
X120505552Y-77107772D01*
X120536148Y-77261586D01*
X120536148Y-77418414D01*
X120505552Y-77572228D01*
X120445537Y-77717117D01*
X120358408Y-77847515D01*
X120247515Y-77958408D01*
X120117117Y-78045537D01*
X119972228Y-78105552D01*
X119818414Y-78136148D01*
X119661586Y-78136148D01*
X119507772Y-78105552D01*
X119362883Y-78045537D01*
X119232485Y-77958408D01*
X119121592Y-77847515D01*
X119034463Y-77717117D01*
X118974448Y-77572228D01*
X118943852Y-77418414D01*
X118943852Y-77261586D01*
X118974448Y-77107772D01*
X119034463Y-76962883D01*
X119121592Y-76832485D01*
X119232485Y-76721592D01*
X119362883Y-76634463D01*
X119507772Y-76574448D01*
X119661586Y-76543852D01*
X119818414Y-76543852D01*
X119972228Y-76574448D01*
G37*
G36*
X134232228Y-75044448D02*
G01*
X134377117Y-75104463D01*
X134507515Y-75191592D01*
X134618408Y-75302485D01*
X134705537Y-75432883D01*
X134765552Y-75577772D01*
X134796148Y-75731586D01*
X134796148Y-75888414D01*
X134765552Y-76042228D01*
X134705537Y-76187117D01*
X134618408Y-76317515D01*
X134507515Y-76428408D01*
X134377117Y-76515537D01*
X134232228Y-76575552D01*
X134078414Y-76606148D01*
X133921586Y-76606148D01*
X133767772Y-76575552D01*
X133622883Y-76515537D01*
X133492485Y-76428408D01*
X133381592Y-76317515D01*
X133294463Y-76187117D01*
X133234448Y-76042228D01*
X133203852Y-75888414D01*
X133203852Y-75731586D01*
X133234448Y-75577772D01*
X133294463Y-75432883D01*
X133381592Y-75302485D01*
X133492485Y-75191592D01*
X133622883Y-75104463D01*
X133767772Y-75044448D01*
X133921586Y-75013852D01*
X134078414Y-75013852D01*
X134232228Y-75044448D01*
G37*
G36*
X139790285Y-74543060D02*
G01*
X139971397Y-74618079D01*
X140134393Y-74726990D01*
X140273010Y-74865607D01*
X140381921Y-75028603D01*
X140456940Y-75209715D01*
X140495185Y-75401983D01*
X140495185Y-75598017D01*
X140456940Y-75790285D01*
X140381921Y-75971397D01*
X140273010Y-76134393D01*
X140134393Y-76273010D01*
X139971397Y-76381921D01*
X139790285Y-76456940D01*
X139598017Y-76495185D01*
X139401983Y-76495185D01*
X139209715Y-76456940D01*
X139028603Y-76381921D01*
X138865607Y-76273010D01*
X138726990Y-76134393D01*
X138618079Y-75971397D01*
X138543060Y-75790285D01*
X138504815Y-75598017D01*
X138504815Y-75401983D01*
X138543060Y-75209715D01*
X138618079Y-75028603D01*
X138726990Y-74865607D01*
X138865607Y-74726990D01*
X139028603Y-74618079D01*
X139209715Y-74543060D01*
X139401983Y-74504815D01*
X139598017Y-74504815D01*
X139790285Y-74543060D01*
G37*
G36*
X146290285Y-74543060D02*
G01*
X146471397Y-74618079D01*
X146634393Y-74726990D01*
X146773010Y-74865607D01*
X146881921Y-75028603D01*
X146956940Y-75209715D01*
X146995185Y-75401983D01*
X146995185Y-75598017D01*
X146956940Y-75790285D01*
X146881921Y-75971397D01*
X146773010Y-76134393D01*
X146634393Y-76273010D01*
X146471397Y-76381921D01*
X146290285Y-76456940D01*
X146098017Y-76495185D01*
X145901983Y-76495185D01*
X145709715Y-76456940D01*
X145528603Y-76381921D01*
X145365607Y-76273010D01*
X145226990Y-76134393D01*
X145118079Y-75971397D01*
X145043060Y-75790285D01*
X145004815Y-75598017D01*
X145004815Y-75401983D01*
X145043060Y-75209715D01*
X145118079Y-75028603D01*
X145226990Y-74865607D01*
X145365607Y-74726990D01*
X145528603Y-74618079D01*
X145709715Y-74543060D01*
X145901983Y-74504815D01*
X146098017Y-74504815D01*
X146290285Y-74543060D01*
G37*
G36*
X126232228Y-74734448D02*
G01*
X126377117Y-74794463D01*
X126507515Y-74881592D01*
X126618408Y-74992485D01*
X126705537Y-75122883D01*
X126765552Y-75267772D01*
X126796148Y-75421586D01*
X126796148Y-75578414D01*
X126765552Y-75732228D01*
X126705537Y-75877117D01*
X126618408Y-76007515D01*
X126507515Y-76118408D01*
X126377117Y-76205537D01*
X126232228Y-76265552D01*
X126078414Y-76296148D01*
X125921586Y-76296148D01*
X125767772Y-76265552D01*
X125622883Y-76205537D01*
X125492485Y-76118408D01*
X125381592Y-76007515D01*
X125294463Y-75877117D01*
X125234448Y-75732228D01*
X125203852Y-75578414D01*
X125203852Y-75421586D01*
X125234448Y-75267772D01*
X125294463Y-75122883D01*
X125381592Y-74992485D01*
X125492485Y-74881592D01*
X125622883Y-74794463D01*
X125767772Y-74734448D01*
X125921586Y-74703852D01*
X126078414Y-74703852D01*
X126232228Y-74734448D01*
G37*
G36*
X104732228Y-74034448D02*
G01*
X104877117Y-74094463D01*
X105007515Y-74181592D01*
X105118408Y-74292485D01*
X105205537Y-74422883D01*
X105265552Y-74567772D01*
X105296148Y-74721586D01*
X105296148Y-74878414D01*
X105265552Y-75032228D01*
X105205537Y-75177117D01*
X105118408Y-75307515D01*
X105007515Y-75418408D01*
X104877117Y-75505537D01*
X104732228Y-75565552D01*
X104578414Y-75596148D01*
X104421586Y-75596148D01*
X104267772Y-75565552D01*
X104122883Y-75505537D01*
X103992485Y-75418408D01*
X103881592Y-75307515D01*
X103794463Y-75177117D01*
X103734448Y-75032228D01*
X103703852Y-74878414D01*
X103703852Y-74721586D01*
X103734448Y-74567772D01*
X103794463Y-74422883D01*
X103881592Y-74292485D01*
X103992485Y-74181592D01*
X104122883Y-74094463D01*
X104267772Y-74034448D01*
X104421586Y-74003852D01*
X104578414Y-74003852D01*
X104732228Y-74034448D01*
G37*
G36*
X119972228Y-74034448D02*
G01*
X120117117Y-74094463D01*
X120247515Y-74181592D01*
X120358408Y-74292485D01*
X120445537Y-74422883D01*
X120505552Y-74567772D01*
X120536148Y-74721586D01*
X120536148Y-74878414D01*
X120505552Y-75032228D01*
X120445537Y-75177117D01*
X120358408Y-75307515D01*
X120247515Y-75418408D01*
X120117117Y-75505537D01*
X119972228Y-75565552D01*
X119818414Y-75596148D01*
X119661586Y-75596148D01*
X119507772Y-75565552D01*
X119362883Y-75505537D01*
X119232485Y-75418408D01*
X119121592Y-75307515D01*
X119034463Y-75177117D01*
X118974448Y-75032228D01*
X118943852Y-74878414D01*
X118943852Y-74721586D01*
X118974448Y-74567772D01*
X119034463Y-74422883D01*
X119121592Y-74292485D01*
X119232485Y-74181592D01*
X119362883Y-74094463D01*
X119507772Y-74034448D01*
X119661586Y-74003852D01*
X119818414Y-74003852D01*
X119972228Y-74034448D01*
G37*
G36*
X104732228Y-71494448D02*
G01*
X104877117Y-71554463D01*
X105007515Y-71641592D01*
X105118408Y-71752485D01*
X105205537Y-71882883D01*
X105265552Y-72027772D01*
X105296148Y-72181586D01*
X105296148Y-72338414D01*
X105265552Y-72492228D01*
X105205537Y-72637117D01*
X105118408Y-72767515D01*
X105007515Y-72878408D01*
X104877117Y-72965537D01*
X104732228Y-73025552D01*
X104578414Y-73056148D01*
X104421586Y-73056148D01*
X104267772Y-73025552D01*
X104122883Y-72965537D01*
X103992485Y-72878408D01*
X103881592Y-72767515D01*
X103794463Y-72637117D01*
X103734448Y-72492228D01*
X103703852Y-72338414D01*
X103703852Y-72181586D01*
X103734448Y-72027772D01*
X103794463Y-71882883D01*
X103881592Y-71752485D01*
X103992485Y-71641592D01*
X104122883Y-71554463D01*
X104267772Y-71494448D01*
X104421586Y-71463852D01*
X104578414Y-71463852D01*
X104732228Y-71494448D01*
G37*
G36*
X119972228Y-71494448D02*
G01*
X120117117Y-71554463D01*
X120247515Y-71641592D01*
X120358408Y-71752485D01*
X120445537Y-71882883D01*
X120505552Y-72027772D01*
X120536148Y-72181586D01*
X120536148Y-72338414D01*
X120505552Y-72492228D01*
X120445537Y-72637117D01*
X120358408Y-72767515D01*
X120247515Y-72878408D01*
X120117117Y-72965537D01*
X119972228Y-73025552D01*
X119818414Y-73056148D01*
X119661586Y-73056148D01*
X119507772Y-73025552D01*
X119362883Y-72965537D01*
X119232485Y-72878408D01*
X119121592Y-72767515D01*
X119034463Y-72637117D01*
X118974448Y-72492228D01*
X118943852Y-72338414D01*
X118943852Y-72181586D01*
X118974448Y-72027772D01*
X119034463Y-71882883D01*
X119121592Y-71752485D01*
X119232485Y-71641592D01*
X119362883Y-71554463D01*
X119507772Y-71494448D01*
X119661586Y-71463852D01*
X119818414Y-71463852D01*
X119972228Y-71494448D01*
G37*
G36*
X139790285Y-70043060D02*
G01*
X139971397Y-70118079D01*
X140134393Y-70226990D01*
X140273010Y-70365607D01*
X140381921Y-70528603D01*
X140456940Y-70709715D01*
X140495185Y-70901983D01*
X140495185Y-71098017D01*
X140456940Y-71290285D01*
X140381921Y-71471397D01*
X140273010Y-71634393D01*
X140134393Y-71773010D01*
X139971397Y-71881921D01*
X139790285Y-71956940D01*
X139598017Y-71995185D01*
X139401983Y-71995185D01*
X139209715Y-71956940D01*
X139028603Y-71881921D01*
X138865607Y-71773010D01*
X138726990Y-71634393D01*
X138618079Y-71471397D01*
X138543060Y-71290285D01*
X138504815Y-71098017D01*
X138504815Y-70901983D01*
X138543060Y-70709715D01*
X138618079Y-70528603D01*
X138726990Y-70365607D01*
X138865607Y-70226990D01*
X139028603Y-70118079D01*
X139209715Y-70043060D01*
X139401983Y-70004815D01*
X139598017Y-70004815D01*
X139790285Y-70043060D01*
G37*
G36*
X146290285Y-70043060D02*
G01*
X146471397Y-70118079D01*
X146634393Y-70226990D01*
X146773010Y-70365607D01*
X146881921Y-70528603D01*
X146956940Y-70709715D01*
X146995185Y-70901983D01*
X146995185Y-71098017D01*
X146956940Y-71290285D01*
X146881921Y-71471397D01*
X146773010Y-71634393D01*
X146634393Y-71773010D01*
X146471397Y-71881921D01*
X146290285Y-71956940D01*
X146098017Y-71995185D01*
X145901983Y-71995185D01*
X145709715Y-71956940D01*
X145528603Y-71881921D01*
X145365607Y-71773010D01*
X145226990Y-71634393D01*
X145118079Y-71471397D01*
X145043060Y-71290285D01*
X145004815Y-71098017D01*
X145004815Y-70901983D01*
X145043060Y-70709715D01*
X145118079Y-70528603D01*
X145226990Y-70365607D01*
X145365607Y-70226990D01*
X145528603Y-70118079D01*
X145709715Y-70043060D01*
X145901983Y-70004815D01*
X146098017Y-70004815D01*
X146290285Y-70043060D01*
G37*
G36*
X126232228Y-69734448D02*
G01*
X126377117Y-69794463D01*
X126507515Y-69881592D01*
X126618408Y-69992485D01*
X126705537Y-70122883D01*
X126765552Y-70267772D01*
X126796148Y-70421586D01*
X126796148Y-70578414D01*
X126765552Y-70732228D01*
X126705537Y-70877117D01*
X126618408Y-71007515D01*
X126507515Y-71118408D01*
X126377117Y-71205537D01*
X126232228Y-71265552D01*
X126078414Y-71296148D01*
X125921586Y-71296148D01*
X125767772Y-71265552D01*
X125622883Y-71205537D01*
X125492485Y-71118408D01*
X125381592Y-71007515D01*
X125294463Y-70877117D01*
X125234448Y-70732228D01*
X125203852Y-70578414D01*
X125203852Y-70421586D01*
X125234448Y-70267772D01*
X125294463Y-70122883D01*
X125381592Y-69992485D01*
X125492485Y-69881592D01*
X125622883Y-69794463D01*
X125767772Y-69734448D01*
X125921586Y-69703852D01*
X126078414Y-69703852D01*
X126232228Y-69734448D01*
G37*
G36*
X104732228Y-68954448D02*
G01*
X104877117Y-69014463D01*
X105007515Y-69101592D01*
X105118408Y-69212485D01*
X105205537Y-69342883D01*
X105265552Y-69487772D01*
X105296148Y-69641586D01*
X105296148Y-69798414D01*
X105265552Y-69952228D01*
X105205537Y-70097117D01*
X105118408Y-70227515D01*
X105007515Y-70338408D01*
X104877117Y-70425537D01*
X104732228Y-70485552D01*
X104578414Y-70516148D01*
X104421586Y-70516148D01*
X104267772Y-70485552D01*
X104122883Y-70425537D01*
X103992485Y-70338408D01*
X103881592Y-70227515D01*
X103794463Y-70097117D01*
X103734448Y-69952228D01*
X103703852Y-69798414D01*
X103703852Y-69641586D01*
X103734448Y-69487772D01*
X103794463Y-69342883D01*
X103881592Y-69212485D01*
X103992485Y-69101592D01*
X104122883Y-69014463D01*
X104267772Y-68954448D01*
X104421586Y-68923852D01*
X104578414Y-68923852D01*
X104732228Y-68954448D01*
G37*
G36*
X119972228Y-68954448D02*
G01*
X120117117Y-69014463D01*
X120247515Y-69101592D01*
X120358408Y-69212485D01*
X120445537Y-69342883D01*
X120505552Y-69487772D01*
X120536148Y-69641586D01*
X120536148Y-69798414D01*
X120505552Y-69952228D01*
X120445537Y-70097117D01*
X120358408Y-70227515D01*
X120247515Y-70338408D01*
X120117117Y-70425537D01*
X119972228Y-70485552D01*
X119818414Y-70516148D01*
X119661586Y-70516148D01*
X119507772Y-70485552D01*
X119362883Y-70425537D01*
X119232485Y-70338408D01*
X119121592Y-70227515D01*
X119034463Y-70097117D01*
X118974448Y-69952228D01*
X118943852Y-69798414D01*
X118943852Y-69641586D01*
X118974448Y-69487772D01*
X119034463Y-69342883D01*
X119121592Y-69212485D01*
X119232485Y-69101592D01*
X119362883Y-69014463D01*
X119507772Y-68954448D01*
X119661586Y-68923852D01*
X119818414Y-68923852D01*
X119972228Y-68954448D01*
G37*
G36*
X134232228Y-67424448D02*
G01*
X134377117Y-67484463D01*
X134507515Y-67571592D01*
X134618408Y-67682485D01*
X134705537Y-67812883D01*
X134765552Y-67957772D01*
X134796148Y-68111586D01*
X134796148Y-68268414D01*
X134765552Y-68422228D01*
X134705537Y-68567117D01*
X134618408Y-68697515D01*
X134507515Y-68808408D01*
X134377117Y-68895537D01*
X134232228Y-68955552D01*
X134078414Y-68986148D01*
X133921586Y-68986148D01*
X133767772Y-68955552D01*
X133622883Y-68895537D01*
X133492485Y-68808408D01*
X133381592Y-68697515D01*
X133294463Y-68567117D01*
X133234448Y-68422228D01*
X133203852Y-68268414D01*
X133203852Y-68111586D01*
X133234448Y-67957772D01*
X133294463Y-67812883D01*
X133381592Y-67682485D01*
X133492485Y-67571592D01*
X133622883Y-67484463D01*
X133767772Y-67424448D01*
X133921586Y-67393852D01*
X134078414Y-67393852D01*
X134232228Y-67424448D01*
G37*
G36*
X104732228Y-66414448D02*
G01*
X104877117Y-66474463D01*
X105007515Y-66561592D01*
X105118408Y-66672485D01*
X105205537Y-66802883D01*
X105265552Y-66947772D01*
X105296148Y-67101586D01*
X105296148Y-67258414D01*
X105265552Y-67412228D01*
X105205537Y-67557117D01*
X105118408Y-67687515D01*
X105007515Y-67798408D01*
X104877117Y-67885537D01*
X104732228Y-67945552D01*
X104578414Y-67976148D01*
X104421586Y-67976148D01*
X104267772Y-67945552D01*
X104122883Y-67885537D01*
X103992485Y-67798408D01*
X103881592Y-67687515D01*
X103794463Y-67557117D01*
X103734448Y-67412228D01*
X103703852Y-67258414D01*
X103703852Y-67101586D01*
X103734448Y-66947772D01*
X103794463Y-66802883D01*
X103881592Y-66672485D01*
X103992485Y-66561592D01*
X104122883Y-66474463D01*
X104267772Y-66414448D01*
X104421586Y-66383852D01*
X104578414Y-66383852D01*
X104732228Y-66414448D01*
G37*
G36*
X119972228Y-66414448D02*
G01*
X120117117Y-66474463D01*
X120247515Y-66561592D01*
X120358408Y-66672485D01*
X120445537Y-66802883D01*
X120505552Y-66947772D01*
X120536148Y-67101586D01*
X120536148Y-67258414D01*
X120505552Y-67412228D01*
X120445537Y-67557117D01*
X120358408Y-67687515D01*
X120247515Y-67798408D01*
X120117117Y-67885537D01*
X119972228Y-67945552D01*
X119818414Y-67976148D01*
X119661586Y-67976148D01*
X119507772Y-67945552D01*
X119362883Y-67885537D01*
X119232485Y-67798408D01*
X119121592Y-67687515D01*
X119034463Y-67557117D01*
X118974448Y-67412228D01*
X118943852Y-67258414D01*
X118943852Y-67101586D01*
X118974448Y-66947772D01*
X119034463Y-66802883D01*
X119121592Y-66672485D01*
X119232485Y-66561592D01*
X119362883Y-66474463D01*
X119507772Y-66414448D01*
X119661586Y-66383852D01*
X119818414Y-66383852D01*
X119972228Y-66414448D01*
G37*
G36*
X104732228Y-63874448D02*
G01*
X104877117Y-63934463D01*
X105007515Y-64021592D01*
X105118408Y-64132485D01*
X105205537Y-64262883D01*
X105265552Y-64407772D01*
X105296148Y-64561586D01*
X105296148Y-64718414D01*
X105265552Y-64872228D01*
X105205537Y-65017117D01*
X105118408Y-65147515D01*
X105007515Y-65258408D01*
X104877117Y-65345537D01*
X104732228Y-65405552D01*
X104578414Y-65436148D01*
X104421586Y-65436148D01*
X104267772Y-65405552D01*
X104122883Y-65345537D01*
X103992485Y-65258408D01*
X103881592Y-65147515D01*
X103794463Y-65017117D01*
X103734448Y-64872228D01*
X103703852Y-64718414D01*
X103703852Y-64561586D01*
X103734448Y-64407772D01*
X103794463Y-64262883D01*
X103881592Y-64132485D01*
X103992485Y-64021592D01*
X104122883Y-63934463D01*
X104267772Y-63874448D01*
X104421586Y-63843852D01*
X104578414Y-63843852D01*
X104732228Y-63874448D01*
G37*
G36*
X119972228Y-63874448D02*
G01*
X120117117Y-63934463D01*
X120247515Y-64021592D01*
X120358408Y-64132485D01*
X120445537Y-64262883D01*
X120505552Y-64407772D01*
X120536148Y-64561586D01*
X120536148Y-64718414D01*
X120505552Y-64872228D01*
X120445537Y-65017117D01*
X120358408Y-65147515D01*
X120247515Y-65258408D01*
X120117117Y-65345537D01*
X119972228Y-65405552D01*
X119818414Y-65436148D01*
X119661586Y-65436148D01*
X119507772Y-65405552D01*
X119362883Y-65345537D01*
X119232485Y-65258408D01*
X119121592Y-65147515D01*
X119034463Y-65017117D01*
X118974448Y-64872228D01*
X118943852Y-64718414D01*
X118943852Y-64561586D01*
X118974448Y-64407772D01*
X119034463Y-64262883D01*
X119121592Y-64132485D01*
X119232485Y-64021592D01*
X119362883Y-63934463D01*
X119507772Y-63874448D01*
X119661586Y-63843852D01*
X119818414Y-63843852D01*
X119972228Y-63874448D01*
G37*
G36*
X143900000Y-62900000D02*
G01*
X142100000Y-62900000D01*
X142100000Y-61100000D01*
X143900000Y-61100000D01*
X143900000Y-62900000D01*
G37*
G36*
X140721256Y-61138754D02*
G01*
X140884257Y-61206271D01*
X141030954Y-61304291D01*
X141155709Y-61429046D01*
X141253729Y-61575743D01*
X141321246Y-61738744D01*
X141355666Y-61911785D01*
X141355666Y-62088215D01*
X141321246Y-62261256D01*
X141253729Y-62424257D01*
X141155709Y-62570954D01*
X141030954Y-62695709D01*
X140884257Y-62793729D01*
X140721256Y-62861246D01*
X140548215Y-62895666D01*
X140371785Y-62895666D01*
X140198744Y-62861246D01*
X140035743Y-62793729D01*
X139889046Y-62695709D01*
X139764291Y-62570954D01*
X139666271Y-62424257D01*
X139598754Y-62261256D01*
X139564334Y-62088215D01*
X139564334Y-61911785D01*
X139598754Y-61738744D01*
X139666271Y-61575743D01*
X139764291Y-61429046D01*
X139889046Y-61304291D01*
X140035743Y-61206271D01*
X140198744Y-61138754D01*
X140371785Y-61104334D01*
X140548215Y-61104334D01*
X140721256Y-61138754D01*
G37*
G36*
X125612228Y-61234448D02*
G01*
X125757117Y-61294463D01*
X125887515Y-61381592D01*
X125998408Y-61492485D01*
X126085537Y-61622883D01*
X126145552Y-61767772D01*
X126176148Y-61921586D01*
X126176148Y-62078414D01*
X126145552Y-62232228D01*
X126085537Y-62377117D01*
X125998408Y-62507515D01*
X125887515Y-62618408D01*
X125757117Y-62705537D01*
X125612228Y-62765552D01*
X125458414Y-62796148D01*
X125301586Y-62796148D01*
X125147772Y-62765552D01*
X125002883Y-62705537D01*
X124872485Y-62618408D01*
X124761592Y-62507515D01*
X124674463Y-62377117D01*
X124614448Y-62232228D01*
X124583852Y-62078414D01*
X124583852Y-61921586D01*
X124614448Y-61767772D01*
X124674463Y-61622883D01*
X124761592Y-61492485D01*
X124872485Y-61381592D01*
X125002883Y-61294463D01*
X125147772Y-61234448D01*
X125301586Y-61203852D01*
X125458414Y-61203852D01*
X125612228Y-61234448D01*
G37*
G36*
X133232228Y-61234448D02*
G01*
X133377117Y-61294463D01*
X133507515Y-61381592D01*
X133618408Y-61492485D01*
X133705537Y-61622883D01*
X133765552Y-61767772D01*
X133796148Y-61921586D01*
X133796148Y-62078414D01*
X133765552Y-62232228D01*
X133705537Y-62377117D01*
X133618408Y-62507515D01*
X133507515Y-62618408D01*
X133377117Y-62705537D01*
X133232228Y-62765552D01*
X133078414Y-62796148D01*
X132921586Y-62796148D01*
X132767772Y-62765552D01*
X132622883Y-62705537D01*
X132492485Y-62618408D01*
X132381592Y-62507515D01*
X132294463Y-62377117D01*
X132234448Y-62232228D01*
X132203852Y-62078414D01*
X132203852Y-61921586D01*
X132234448Y-61767772D01*
X132294463Y-61622883D01*
X132381592Y-61492485D01*
X132492485Y-61381592D01*
X132622883Y-61294463D01*
X132767772Y-61234448D01*
X132921586Y-61203852D01*
X133078414Y-61203852D01*
X133232228Y-61234448D01*
G37*
M02*
